<svg width="239" height="181" viewBox="0 0 239 181" fill="none" xmlns="http://www.w3.org/2000/svg">
<g opacity="0.15">
<path opacity="0.0323" d="M151.314 180.413C198.439 180.413 236.642 166.277 236.642 148.838C236.642 131.4 198.439 117.264 151.314 117.264C104.189 117.264 65.986 131.4 65.986 148.838C65.986 166.277 104.189 180.413 151.314 180.413Z" fill="#231F20"/>
<path opacity="0.0645" d="M149.117 180.147C196.242 180.147 234.445 166.011 234.445 148.573C234.445 131.134 196.242 116.998 149.117 116.998C101.992 116.998 63.7893 131.134 63.7893 148.573C63.7893 166.011 101.992 180.147 149.117 180.147Z" fill="#231F20"/>
<path opacity="0.0968" d="M146.916 179.882C194.041 179.882 232.243 165.746 232.243 148.308C232.243 130.869 194.041 116.733 146.916 116.733C99.7905 116.733 61.5879 130.869 61.5879 148.308C61.5879 165.746 99.7905 179.882 146.916 179.882Z" fill="#231F20"/>
<path opacity="0.129" d="M144.719 179.617C191.844 179.617 230.046 165.48 230.046 148.042C230.046 130.604 191.844 116.467 144.719 116.467C97.5935 116.467 59.391 130.604 59.391 148.042C59.391 165.48 97.5935 179.617 144.719 179.617Z" fill="#231F20"/>
<path opacity="0.1613" d="M142.517 179.347C189.643 179.347 227.845 165.211 227.845 147.772C227.845 130.334 189.643 116.198 142.517 116.198C95.3922 116.198 57.1897 130.334 57.1897 147.772C57.1897 165.211 95.3922 179.347 142.517 179.347Z" fill="#231F20"/>
<path opacity="0.1935" d="M140.316 179.082C187.441 179.082 225.644 164.946 225.644 147.508C225.644 130.069 187.441 115.933 140.316 115.933C93.1909 115.933 54.9884 130.069 54.9884 147.508C54.9884 164.946 93.1909 179.082 140.316 179.082Z" fill="#231F20"/>
<path opacity="0.2258" d="M138.119 178.817C185.244 178.817 223.447 164.68 223.447 147.242C223.447 129.803 185.244 115.667 138.119 115.667C90.994 115.667 52.7915 129.803 52.7915 147.242C52.7915 164.68 90.994 178.817 138.119 178.817Z" fill="#231F20"/>
<path opacity="0.2581" d="M135.918 178.547C183.043 178.547 221.246 164.411 221.246 146.972C221.246 129.534 183.043 115.397 135.918 115.397C88.7927 115.397 50.5902 129.534 50.5902 146.972C50.5902 164.411 88.7927 178.547 135.918 178.547Z" fill="#231F20"/>
<path opacity="0.2903" d="M133.721 178.282C180.846 178.282 219.049 164.146 219.049 146.707C219.049 129.269 180.846 115.133 133.721 115.133C86.5958 115.133 48.3933 129.269 48.3933 146.707C48.3933 164.146 86.5958 178.282 133.721 178.282Z" fill="#231F20"/>
<path opacity="0.3226" d="M131.52 178.016C178.645 178.016 216.847 163.88 216.847 146.442C216.847 129.003 178.645 114.867 131.52 114.867C84.3945 114.867 46.192 129.003 46.192 146.442C46.192 163.88 84.3945 178.016 131.52 178.016Z" fill="#231F20"/>
<path opacity="0.3548" d="M129.318 177.751C176.444 177.751 214.646 163.614 214.646 146.176C214.646 128.738 176.444 114.601 129.318 114.601C82.1933 114.601 43.9907 128.738 43.9907 146.176C43.9907 163.614 82.1933 177.751 129.318 177.751Z" fill="#231F20"/>
<path opacity="0.3871" d="M127.121 177.481C174.247 177.481 212.449 163.345 212.449 145.906C212.449 128.468 174.247 114.332 127.121 114.332C79.9963 114.332 41.7938 128.468 41.7938 145.906C41.7938 163.345 79.9963 177.481 127.121 177.481Z" fill="#231F20"/>
<path opacity="0.4194" d="M124.92 177.216C172.045 177.216 210.248 163.079 210.248 145.641C210.248 128.203 172.045 114.066 124.92 114.066C77.7951 114.066 39.5925 128.203 39.5925 145.641C39.5925 163.079 77.7951 177.216 124.92 177.216Z" fill="#231F20"/>
<path opacity="0.4516" d="M122.723 176.95C169.849 176.95 208.051 162.814 208.051 145.376C208.051 127.937 169.849 113.801 122.723 113.801C75.5982 113.801 37.3956 127.937 37.3956 145.376C37.3956 162.814 75.5982 176.95 122.723 176.95Z" fill="#231F20"/>
<path opacity="0.4839" d="M120.522 176.68C167.647 176.68 205.85 162.544 205.85 145.105C205.85 127.667 167.647 113.531 120.522 113.531C73.3969 113.531 35.1944 127.667 35.1944 145.105C35.1944 162.544 73.3969 176.68 120.522 176.68Z" fill="#231F20"/>
<path opacity="0.5161" d="M118.321 176.415C165.446 176.415 203.649 162.278 203.649 144.84C203.649 127.402 165.446 113.265 118.321 113.265C71.1956 113.265 32.9931 127.402 32.9931 144.84C32.9931 162.278 71.1956 176.415 118.321 176.415Z" fill="#231F20"/>
<path opacity="0.5484" d="M116.124 176.15C163.249 176.15 201.452 162.014 201.452 144.575C201.452 127.137 163.249 113.001 116.124 113.001C68.9986 113.001 30.7961 127.137 30.7961 144.575C30.7961 162.014 68.9986 176.15 116.124 176.15Z" fill="#231F20"/>
<path opacity="0.5806" d="M113.923 175.88C161.048 175.88 199.25 161.743 199.25 144.305C199.25 126.867 161.048 112.73 113.923 112.73C66.7974 112.73 28.5949 126.867 28.5949 144.305C28.5949 161.743 66.7974 175.88 113.923 175.88Z" fill="#231F20"/>
<path opacity="0.6129" d="M111.726 175.615C158.851 175.615 197.053 161.478 197.053 144.04C197.053 126.601 158.851 112.465 111.726 112.465C64.6004 112.465 26.3979 126.601 26.3979 144.04C26.3979 161.478 64.6004 175.615 111.726 175.615Z" fill="#231F20"/>
<path opacity="0.6452" d="M109.524 175.35C156.65 175.35 194.852 161.213 194.852 143.775C194.852 126.337 156.65 112.2 109.524 112.2C62.3992 112.2 24.1967 126.337 24.1967 143.775C24.1967 161.213 62.3992 175.35 109.524 175.35Z" fill="#231F20"/>
<path opacity="0.6774" d="M107.323 175.084C154.448 175.084 192.651 160.947 192.651 143.509C192.651 126.071 154.448 111.934 107.323 111.934C60.1979 111.934 21.9953 126.071 21.9953 143.509C21.9953 160.947 60.1979 175.084 107.323 175.084Z" fill="#231F20"/>
<path opacity="0.7097" d="M105.126 174.814C152.251 174.814 190.454 160.678 190.454 143.24C190.454 125.801 152.251 111.665 105.126 111.665C58.001 111.665 19.7984 125.801 19.7984 143.24C19.7984 160.678 58.001 174.814 105.126 174.814Z" fill="#231F20"/>
<path opacity="0.7419" d="M102.925 174.549C150.05 174.549 188.253 160.413 188.253 142.974C188.253 125.536 150.05 111.399 102.925 111.399C55.7996 111.399 17.5971 125.536 17.5971 142.974C17.5971 160.413 55.7996 174.549 102.925 174.549Z" fill="#231F20"/>
<path opacity="0.7742" d="M100.728 174.283C147.853 174.283 186.056 160.147 186.056 142.709C186.056 125.27 147.853 111.134 100.728 111.134C53.6028 111.134 15.4003 125.27 15.4003 142.709C15.4003 160.147 53.6028 174.283 100.728 174.283Z" fill="#231F20"/>
<path opacity="0.8065" d="M98.5267 174.014C145.652 174.014 183.854 159.877 183.854 142.439C183.854 125.001 145.652 110.864 98.5267 110.864C51.4015 110.864 13.1989 125.001 13.1989 142.439C13.1989 159.877 51.4015 174.014 98.5267 174.014Z" fill="#231F20"/>
<path opacity="0.8387" d="M96.3254 173.748C143.451 173.748 181.653 159.611 181.653 142.173C181.653 124.735 143.451 110.598 96.3254 110.598C49.2002 110.598 10.9977 124.735 10.9977 142.173C10.9977 159.611 49.2002 173.748 96.3254 173.748Z" fill="#231F20"/>
<path opacity="0.871" d="M94.1285 173.483C141.254 173.483 179.456 159.347 179.456 141.908C179.456 124.47 141.254 110.333 94.1285 110.333C47.0033 110.333 8.80076 124.47 8.80076 141.908C8.80076 159.347 47.0033 173.483 94.1285 173.483Z" fill="#231F20"/>
<path opacity="0.9032" d="M91.9273 173.217C139.052 173.217 177.255 159.081 177.255 141.643C177.255 124.204 139.052 110.068 91.9273 110.068C44.8021 110.068 6.59959 124.204 6.59959 141.643C6.59959 159.081 44.8021 173.217 91.9273 173.217Z" fill="#231F20"/>
<path opacity="0.9355" d="M89.7303 172.948C136.856 172.948 175.058 158.811 175.058 141.373C175.058 123.935 136.856 109.798 89.7303 109.798C42.6051 109.798 4.40258 123.935 4.40258 141.373C4.40258 158.811 42.6051 172.948 89.7303 172.948Z" fill="#231F20"/>
<path opacity="0.9677" d="M87.529 172.683C134.654 172.683 172.857 158.546 172.857 141.108C172.857 123.67 134.654 109.533 87.529 109.533C40.4038 109.533 2.20129 123.67 2.20129 141.108C2.20129 158.546 40.4038 172.683 87.529 172.683Z" fill="#231F20"/>
<path d="M85.3277 172.417C132.453 172.417 170.655 158.281 170.655 140.842C170.655 123.404 132.453 109.268 85.3277 109.268C38.2025 109.268 0 123.404 0 140.842C0 158.281 38.2025 172.417 85.3277 172.417Z" fill="#231F20"/>
</g>
<path d="M0.0043335 91.9574V142.743H0.165294C2.82771 159.292 39.9362 172.413 85.3321 172.413C130.728 172.413 167.836 159.292 170.499 142.743H170.66V91.9574H0.0043335Z" fill="url(#paint0_linear_116_13)"/>
<path opacity="0.5" d="M0.0043335 91.9574V142.743H0.165294C2.82771 159.292 39.9362 172.413 85.3321 172.413C130.728 172.413 167.836 159.292 170.499 142.743H170.66V91.9574H0.0043335Z" fill="url(#paint1_linear_116_13)"/>
<path d="M85.3277 125.333C132.453 125.333 170.655 111.197 170.655 93.7586C170.655 76.3203 132.453 62.1837 85.3277 62.1837C38.2025 62.1837 0 76.3203 0 93.7586C0 111.197 38.2025 125.333 85.3277 125.333Z" fill="#638BD0"/>
<path d="M85.3277 123.95C132.453 123.95 170.655 109.813 170.655 92.375C170.655 74.9367 132.453 60.8002 85.3277 60.8002C38.2025 60.8002 0 74.9367 0 92.375C0 109.813 38.2025 123.95 85.3277 123.95Z" fill="url(#paint2_linear_116_13)"/>
<mask id="mask0_116_13" style="mask-type:alpha" maskUnits="userSpaceOnUse" x="3" y="62" width="164" height="61">
<path d="M85.3277 122.562C130.384 122.562 166.91 109.047 166.91 92.3753C166.91 75.7034 130.384 62.1882 85.3277 62.1882C40.2712 62.1882 3.74564 75.7034 3.74564 92.3753C3.74564 109.047 40.2712 122.562 85.3277 122.562Z" fill="url(#paint3_linear_116_13)"/>
</mask>
<g mask="url(#mask0_116_13)">
<path d="M85.3277 122.562C130.384 122.562 166.91 109.047 166.91 92.3753C166.91 75.7034 130.384 62.1882 85.3277 62.1882C40.2712 62.1882 3.74564 75.7034 3.74564 92.3753C3.74564 109.047 40.2712 122.562 85.3277 122.562Z" fill="url(#paint4_linear_116_13)"/>
</g>
<path d="M118.01 44.8444L121.667 27.3716C122.087 25.7775 123.606 24.8495 125.331 25.1342L125.352 25.1378C126.348 25.3022 127.106 26.2837 126.976 27.241L118.01 44.8444Z" fill="url(#paint5_linear_116_13)"/>
<path d="M121.004 41.3143L124.662 23.8416C125.082 22.2475 126.6 21.3195 128.326 21.6041L128.347 21.6078C129.342 21.7721 130.1 22.7537 129.971 23.711L121.004 41.3143Z" fill="url(#paint6_linear_116_13)"/>
<path d="M92.375 76.7947L94.1151 60.189C94.4841 56.6656 96.2432 53.63 99.0162 51.7102C101.155 50.2298 103.942 48.6525 107.078 47.7399C109.903 46.9176 112.507 45.6162 114.745 43.8387C117.027 42.0275 119.77 39.3814 122.397 35.6628C122.397 35.6628 122.87 31.694 126.191 26.5501L127.444 22.3847C128.105 20.9051 129.778 20.2338 131.48 20.7657L131.501 20.7723C132.484 21.0789 133.103 22.1419 132.83 23.0486L124.298 51.3617C124.154 51.8422 123.933 52.289 123.625 52.6675C123.545 52.7673 123.459 52.8626 123.368 52.9536L113.101 63.221C111.037 65.2846 109.737 68.0172 109.368 71.0668L107.274 82.0259L92.375 76.7947Z" fill="url(#paint7_linear_116_13)"/>
<path d="M111.699 58.9111L121.593 45.6866L124.56 37.3985C124.931 36.3619 124.385 35.1728 123.332 34.7275L122.598 34.4172C121.256 33.8501 119.747 34.1655 118.828 35.2094C117.081 37.1938 114.494 40.6424 114.059 44.0639C114.059 44.0639 108.473 49.5116 105.462 50.4411" fill="url(#paint8_linear_116_13)"/>
<path d="M123.922 36.035L121.042 34.8459C120.825 34.7564 120.584 34.8239 120.459 35.0087C119.797 35.9881 118.016 39.0076 120.296 40.2143L121.689 40.8129C121.689 40.8129 123.29 41.8011 124.242 36.608C124.285 36.3718 124.15 36.1297 123.922 36.035Z" fill="url(#paint9_linear_116_13)"/>
<path d="M131.558 27.2691L133 22.5389L132.172 22.2433C131.875 22.1369 131.564 22.3005 131.495 22.5983C131.255 23.6459 130.644 26.6323 131.558 27.2691Z" fill="url(#paint10_linear_116_13)"/>
<path d="M111.558 71.1259L110.987 73.1045L90.6863 67.2379L91.2577 65.2594L111.558 71.1259Z" fill="url(#paint11_linear_116_13)"/>
<path d="M111.548 74.5939L108.109 86.4943C107.829 87.4626 106.817 88.0216 105.848 87.7414L87.2237 82.3598C86.2554 82.0795 85.6964 81.0679 85.9766 80.0988L89.4157 68.1985C89.6959 67.2301 90.7075 66.6711 91.6766 66.9514L110.301 72.333C111.27 72.6125 111.828 73.6249 111.548 74.5939Z" fill="url(#paint12_linear_116_13)"/>
<mask id="mask1_116_13" style="mask-type:alpha" maskUnits="userSpaceOnUse" x="87" y="67" width="10" height="17">
<path d="M92.2716 83.8184L96.723 68.4092L92.1373 67.0844L87.6881 82.4935L92.2716 83.8184Z" fill="url(#paint13_linear_116_13)"/>
</mask>
<g mask="url(#mask1_116_13)">
<path opacity="0.2" d="M92.2716 83.818L96.723 68.4089L92.1373 67.084L87.6881 82.4931L92.2716 83.818Z" fill="url(#paint14_linear_116_13)"/>
</g>
<mask id="mask2_116_13" style="mask-type:alpha" maskUnits="userSpaceOnUse" x="92" y="68" width="19" height="20">
<path d="M105.81 87.7302L110.261 72.3211L96.7208 68.4081L92.2716 83.8172L105.81 87.7302Z" fill="url(#paint15_linear_116_13)"/>
</mask>
<g mask="url(#mask2_116_13)">
<path opacity="0.2" d="M105.81 87.7306L110.262 72.3214L96.7208 68.4084L92.2716 83.8176L105.81 87.7306Z" fill="url(#paint16_linear_116_13)"/>
</g>
<path d="M48.9902 44.8444L45.3318 27.3716C44.9122 25.7775 43.3936 24.8495 41.6682 25.1342L41.647 25.1378C40.6515 25.3022 39.8937 26.2837 40.0228 27.241L48.9902 44.8444Z" fill="url(#paint17_linear_116_13)"/>
<path d="M45.9957 41.3143L42.338 23.8416C41.9184 22.2475 40.3999 21.3195 38.6744 21.6041L38.6532 21.6078C37.6577 21.7721 36.8999 22.7537 37.029 23.711L45.9957 41.3143Z" fill="url(#paint18_linear_116_13)"/>
<path d="M74.625 76.7947L72.8849 60.189C72.5159 56.6656 70.7567 53.63 67.9837 51.7102C65.8453 50.2298 63.0584 48.6525 59.9223 47.7399C57.0972 46.9176 54.4929 45.6162 52.2547 43.8387C49.9733 42.0275 47.2296 39.3814 44.6033 35.6628C44.6033 35.6628 44.1302 31.694 40.8092 26.5501L39.5562 22.3847C38.8952 20.9051 37.2219 20.2338 35.52 20.7657L35.4987 20.7723C34.5164 21.0789 33.8965 22.1419 34.1702 23.0486L42.7019 51.3617C42.8464 51.8422 43.0672 52.289 43.3746 52.6675C43.4553 52.7673 43.5411 52.8626 43.6321 52.9536L53.8994 63.221C55.963 65.2846 57.263 68.0172 57.632 71.0668L59.7264 82.0259L74.625 76.7947Z" fill="url(#paint19_linear_116_13)"/>
<path d="M55.3014 58.9111L45.4067 45.6866L42.44 37.3985C42.0688 36.3619 42.6153 35.1728 43.668 34.7275L44.4024 34.4172C45.7441 33.8501 47.2531 34.1655 48.1723 35.2094C49.919 37.1938 52.5064 40.6424 52.9407 44.0639C52.9407 44.0639 58.527 49.5116 61.5377 50.4411" fill="url(#paint20_linear_116_13)"/>
<path d="M43.0782 36.035L45.9583 34.8459C46.1747 34.7564 46.4161 34.8239 46.5408 35.0087C47.2032 35.9881 48.9837 39.0076 46.7036 40.2143L45.3113 40.8129C45.3113 40.8129 43.7098 41.8011 42.7576 36.608C42.7144 36.3718 42.8501 36.1297 43.0782 36.035Z" fill="url(#paint21_linear_116_13)"/>
<path d="M35.4422 27.2691L34 22.5389L34.8282 22.2433C35.1253 22.1369 35.4363 22.3005 35.5046 22.5983C35.7445 23.6459 36.3555 26.6323 35.4422 27.2691Z" fill="url(#paint22_linear_116_13)"/>
<path d="M55.4415 71.1259L56.0129 73.1045L76.3137 67.2379L75.7422 65.2594L55.4415 71.1259Z" fill="url(#paint23_linear_116_13)"/>
<path d="M55.4517 74.5939L58.8908 86.4943C59.171 87.4626 60.1827 88.0216 61.1518 87.7414L79.7762 82.3598C80.7446 82.0795 81.3036 81.0679 81.0233 80.0988L77.5843 68.1985C77.304 67.2301 76.2924 66.6711 75.3233 66.9514L56.6988 72.333C55.7298 72.6125 55.1715 73.6249 55.4517 74.5939Z" fill="url(#paint24_linear_116_13)"/>
<mask id="mask3_116_13" style="mask-type:alpha" maskUnits="userSpaceOnUse" x="70" y="67" width="10" height="17">
<path d="M74.7284 83.8184L70.2769 68.4092L74.8626 67.0844L79.3119 82.4935L74.7284 83.8184Z" fill="url(#paint25_linear_116_13)"/>
</mask>
<g mask="url(#mask3_116_13)">
<path opacity="0.2" d="M74.7284 83.818L70.2769 68.4089L74.8626 67.084L79.3119 82.4931L74.7284 83.818Z" fill="url(#paint26_linear_116_13)"/>
</g>
<mask id="mask4_116_13" style="mask-type:alpha" maskUnits="userSpaceOnUse" x="56" y="68" width="19" height="20">
<path d="M61.1899 87.7302L56.7384 72.3211L70.2791 68.4081L74.7284 83.8172L61.1899 87.7302Z" fill="url(#paint27_linear_116_13)"/>
</mask>
<g mask="url(#mask4_116_13)">
<path opacity="0.2" d="M61.1899 87.7306L56.7385 72.3214L70.2791 68.4084L74.7284 83.8176L61.1899 87.7306Z" fill="url(#paint28_linear_116_13)"/>
</g>
<path opacity="0.9" d="M100.425 25.3687C100.142 23.077 98.1939 21.3567 95.8853 21.3567H94.6462C95.225 20.772 95.7114 19.9526 95.9608 18.806L96.2432 19.0803L96.1075 17.8142C96.1405 17.4246 96.1494 17.005 96.131 16.5524C96.7854 16.1907 97.1889 15.0727 97.1889 15.0727C97.1889 15.0727 98.3699 12.8331 97.3686 12.5073C97.3033 12.4861 97.2402 12.4729 97.18 12.4655C97.5248 10.7834 97.841 8.07056 96.3349 7.92311C96.6687 7.41106 96.9504 6.7853 97.1668 6.0253C97.1668 6.0253 95.616 6.28646 93.5091 5.84777C92.9347 5.57854 92.3134 5.39221 91.6605 5.30564C91.6128 5.2873 91.5651 5.26896 91.5174 5.24989C89.0988 4.28521 86.8305 5.04668 86.248 5.89985L85.8284 5.63796L86.1196 6.43905C86.1292 6.47793 86.1424 6.51534 86.1615 6.55275L84.9312 6.20723L85.7272 6.63198C84.9958 6.88874 83.6738 7.97006 84.5028 12.4963C84.4896 12.5 84.4771 12.5037 84.4639 12.5081C83.4626 12.8338 84.6437 15.0735 84.6437 15.0735C84.6437 15.0735 84.9716 15.9824 85.5159 16.4262C85.4623 17.473 85.5533 18.3489 85.7455 19.0811V19.7464L85.9399 19.6907C86.2069 20.3913 86.5767 20.9349 86.9941 21.3574H85.7448C83.4354 21.3574 81.4885 23.0777 81.2046 25.3694L80.0521 34.667H83.993L84.3187 30.71L84.6796 34.667H96.9534L97.3143 30.71L97.64 34.667H101.581L100.425 25.3687Z" fill="url(#paint29_linear_116_13)"/>
<path opacity="0.9" d="M111.765 25.1499C111.542 23.8434 110.56 22.7973 109.27 22.4913L106.35 21.7988L106.275 20.7249L107.36 20.6456L107.458 20.215L107.547 20.6324L108.901 20.5334L108.864 18.7302L109.027 20.5238L110.248 20.4344C110.248 20.4344 110.321 19.8306 110.369 18.8769C110.728 17.7985 110.868 16.7092 110.783 15.6293C110.708 14.68 110.461 13.7374 110.049 12.8233C109.507 9.886 108.228 7.12622 105.374 6.7088C105.374 6.7088 104.667 6.55475 104.219 7.24873C103.73 6.65892 103.024 6.66112 103.024 6.66112C102.102 6.58776 101.345 6.81077 100.725 7.24726C100.403 7.39838 100.044 7.63533 99.6889 8.008C98.89 8.84723 98.3369 10.1384 98.0435 11.8462C97.6664 14.0433 97.7258 16.9263 98.221 20.4138H98.2232C98.2335 20.5106 98.2401 20.5627 98.2401 20.5627L99.1439 20.6288L99.3992 19.6758L99.5107 20.6552L102.08 20.843L102.014 21.7988L99.1725 22.473C97.8439 22.7877 96.8455 23.8881 96.6606 25.2409L95.3725 34.6661H98.7837L99.0984 30.8411L99.4476 34.6661H109.319L109.668 30.8411L109.983 34.6661H113.394L111.765 25.1499ZM110.585 15.6498C110.647 16.4407 110.585 17.2381 110.402 18.0318C110.432 16.8236 110.402 15.2897 110.195 13.7418C110.404 14.3705 110.535 15.0087 110.585 15.6498ZM99.7836 8.20093C98.4 10.1237 98.0493 13.4784 98.0251 16.2081C97.9004 13.0206 98.2555 9.86546 99.7836 8.20093Z" fill="url(#paint30_linear_116_13)"/>
<path opacity="0.9" d="M86.4776 25.2328C86.2451 23.3548 84.9107 21.8546 83.1713 21.3477L83.1809 21.347C83.1809 21.347 85.5218 18.3987 80.7057 17.7898C81.0534 17.3621 81.3711 16.8933 81.6557 16.3989C82.5874 16.4634 83.1919 14.7864 83.1919 14.7864C83.1919 14.7864 84.3898 12.5145 83.3738 12.1837C83.3085 12.1624 83.2462 12.1484 83.1867 12.1418C84.6745 7.92881 82.1707 6.47629 82.1707 6.47629C83.8059 5.12428 77.6437 0.00012207 77.6437 0.00012207C77.6437 0.00012207 78.7258 1.79229 77.439 2.95944C77.3312 2.49067 76.8257 2.43785 76.8257 2.43785C77.5601 3.3145 75.5684 3.773 75.5684 3.773C75.4084 3.80381 75.2537 3.83829 75.1047 3.8757C75.0548 3.70184 75.005 3.58153 75.005 3.58153C74.9338 3.7774 74.4364 4.04002 74.0799 4.20655C73.9523 4.25864 73.8297 4.31219 73.7124 4.36794L73.7116 4.36867C72.2467 5.06852 71.5673 6.07208 71.2717 6.6861C71.2548 6.49243 71.2585 6.18579 71.3935 5.88501C71.3935 5.88501 71.0656 6.38679 71.0656 6.80861L70.7178 6.46969L70.7831 6.88784L70.1075 7.11892L70.8088 7.19961C69.9087 7.66911 69.1039 8.84066 70.2997 11.7523C70.3092 11.8887 70.3224 12.0274 70.3393 12.1668C70.3202 12.1719 70.3019 12.177 70.2821 12.1837C69.2661 12.5145 70.464 14.7864 70.464 14.7864C70.464 14.7864 70.6936 15.4239 71.0883 15.8971C70.9621 16.0203 70.877 16.2434 70.877 16.4994C70.877 16.8882 71.0714 17.2029 71.3113 17.2029C71.5512 17.2029 71.7456 16.8882 71.7456 16.4994C71.7456 16.4554 71.7427 16.4128 71.7383 16.371C71.7544 16.3754 71.7706 16.3791 71.7867 16.3827C72.0735 16.8831 72.3956 17.3577 72.747 17.7898C67.9441 18.4016 70.2814 21.3455 70.2814 21.3455C68.5413 21.8524 67.2069 23.3526 66.9736 25.2314L65.8042 34.6639H69.8023L70.1324 30.6497L70.4985 34.6639H82.9505L83.3166 30.6497L83.6467 34.6639H87.6448L86.4776 25.2328Z" fill="url(#paint31_linear_116_13)"/>
<path opacity="0.9" d="M70.1009 26.0773C69.8991 24.8984 69.013 23.9535 67.8488 23.6777L65.2129 23.0527L65.1623 22.3235C65.4536 22.625 65.8614 22.8135 66.3141 22.8135C66.9508 22.8135 67.501 22.4408 67.7585 21.9024C68.0006 22.0491 68.2838 22.1335 68.5875 22.1335C69.4715 22.1335 70.1882 21.4167 70.1882 20.5328C70.1882 20.1285 70.0378 19.7588 69.7906 19.4771C70.354 19.2292 70.7472 18.6665 70.7472 18.0121C70.7472 17.3108 70.296 16.7151 69.6681 16.4987C69.8713 16.2302 69.9916 15.8964 69.9916 15.534C69.9916 14.7132 69.3732 14.0368 68.5765 13.9444C68.7261 13.7008 68.8134 13.414 68.8134 13.1066C68.8134 12.2644 68.1627 11.5748 67.3367 11.5118C66.6574 10.4209 65.6934 9.63155 64.3326 9.43275C64.3326 9.43275 63.6951 9.29336 63.2909 9.91985C62.8493 9.38726 62.2125 9.38946 62.2125 9.38946C61.3807 9.32344 60.6977 9.52445 60.1372 9.91839C59.8467 10.0548 59.5225 10.269 59.2026 10.605C59.1762 10.6322 59.1505 10.6608 59.1248 10.6894C58.5534 10.9337 58.1536 11.5007 58.1536 12.1617C58.1536 12.2211 58.1572 12.2798 58.1631 12.337C57.3297 12.3928 56.6717 13.086 56.6717 13.9333C56.6717 14.2084 56.7414 14.4667 56.8632 14.6926C56.4949 14.9861 56.258 15.4379 56.258 15.9449C56.258 16.3828 56.434 16.7797 56.7194 17.0687C56.3416 17.3614 56.098 17.8192 56.098 18.3342C56.098 18.9775 56.4773 19.5314 57.0246 19.786C56.8588 20.0383 56.7627 20.3391 56.7627 20.6633C56.7627 21.5473 57.4794 22.264 58.3634 22.264C58.6377 22.264 58.8952 22.1951 59.1212 22.0733C59.4058 22.5179 59.9032 22.8128 60.4695 22.8128C60.7886 22.8128 61.085 22.7189 61.3344 22.5582L61.3 23.0519L58.7346 23.6601C57.5351 23.9447 56.6343 24.9373 56.4678 26.158L55.305 34.6655H58.3839L58.6678 31.2132L58.9825 34.6655H67.892L68.2067 31.2132L68.4906 34.6655H71.5695L70.1009 26.0773Z" fill="url(#paint32_linear_116_13)"/>
<defs>
<linearGradient id="paint0_linear_116_13" x1="0.00355043" y1="132.186" x2="170.655" y2="132.186" gradientUnits="userSpaceOnUse">
<stop stop-color="#F8A700"/>
<stop offset="1" stop-color="#F8A700"/>
</linearGradient>
<linearGradient id="paint1_linear_116_13" x1="146.552" y1="132.186" x2="18.3221" y2="132.186" gradientUnits="userSpaceOnUse">
<stop stop-color="#231F20"/>
<stop offset="1" stop-color="white"/>
</linearGradient>
<linearGradient id="paint2_linear_116_13" x1="169.212" y1="92.3736" x2="1.3771" y2="92.3736" gradientUnits="userSpaceOnUse">
<stop stop-color="#F8A700"/>
<stop offset="1" stop-color="#F8A700"/>
</linearGradient>
<linearGradient id="paint3_linear_116_13" x1="-46.4994" y1="7.46723" x2="75.0214" y2="85.7349" gradientUnits="userSpaceOnUse">
<stop stop-color="white"/>
<stop offset="1"/>
</linearGradient>
<linearGradient id="paint4_linear_116_13" x1="-46.4994" y1="7.46723" x2="75.0214" y2="85.7349" gradientUnits="userSpaceOnUse">
<stop stop-color="white"/>
<stop offset="1" stop-color="white"/>
</linearGradient>
<linearGradient id="paint5_linear_116_13" x1="114.406" y1="41.2409" x2="128.183" y2="27.4644" gradientUnits="userSpaceOnUse">
<stop stop-color="#F9AF7F"/>
<stop offset="0.7398" stop-color="#F9B284"/>
<stop offset="1" stop-color="#F9C09A"/>
</linearGradient>
<linearGradient id="paint6_linear_116_13" x1="117.401" y1="37.711" x2="131.177" y2="23.9345" gradientUnits="userSpaceOnUse">
<stop stop-color="#F9A570"/>
<stop offset="0.7826" stop-color="#F9BF9A"/>
<stop offset="1" stop-color="#F9B68B"/>
</linearGradient>
<linearGradient id="paint7_linear_116_13" x1="131.843" y1="19.0676" x2="95.4931" y2="78.4458" gradientUnits="userSpaceOnUse">
<stop stop-color="#F9D0B6"/>
<stop offset="0.2049" stop-color="#F9BF9A"/>
<stop offset="1" stop-color="#F9A570"/>
</linearGradient>
<linearGradient id="paint8_linear_116_13" x1="123.698" y1="34.4445" x2="101.351" y2="64.3708" gradientUnits="userSpaceOnUse">
<stop stop-color="#F9D9C5"/>
<stop offset="0.4279" stop-color="#F9BF9A"/>
<stop offset="0.7942" stop-color="#F9AC7B"/>
<stop offset="1" stop-color="#F9A570"/>
</linearGradient>
<linearGradient id="paint9_linear_116_13" x1="119.648" y1="39.7217" x2="123.657" y2="35.7131" gradientUnits="userSpaceOnUse">
<stop stop-color="#F9B68B"/>
<stop offset="0.9988" stop-color="#F9D1B8"/>
</linearGradient>
<linearGradient id="paint10_linear_116_13" x1="130.34" y1="26.0661" x2="133.434" y2="22.9726" gradientUnits="userSpaceOnUse">
<stop stop-color="#F9B68B"/>
<stop offset="0.9988" stop-color="#F9C5A4"/>
</linearGradient>
<linearGradient id="paint11_linear_116_13" x1="90.947" y1="66.2416" x2="111.665" y2="72.2283" gradientUnits="userSpaceOnUse">
<stop stop-color="#F2F2F2"/>
<stop offset="0.9988" stop-color="#CCCCCC"/>
</linearGradient>
<linearGradient id="paint12_linear_116_13" x1="87.363" y1="74.052" x2="110.976" y2="80.8753" gradientUnits="userSpaceOnUse">
<stop stop-color="#333333"/>
<stop offset="0.9988" stop-color="#1A1A1A"/>
</linearGradient>
<linearGradient id="paint13_linear_116_13" x1="89.8664" y1="74.7567" x2="94.6453" y2="76.1759" gradientUnits="userSpaceOnUse">
<stop offset="0.00119"/>
<stop offset="0.1014" stop-color="#050505"/>
<stop offset="0.2249" stop-color="#141414"/>
<stop offset="0.3608" stop-color="#2E2E2E"/>
<stop offset="0.5057" stop-color="#515151"/>
<stop offset="0.6576" stop-color="#7E7E7E"/>
<stop offset="0.8155" stop-color="#B5B5B5"/>
<stop offset="0.9753" stop-color="#F4F4F4"/>
<stop offset="1" stop-color="white"/>
</linearGradient>
<linearGradient id="paint14_linear_116_13" x1="89.8665" y1="74.7564" x2="94.6454" y2="76.1756" gradientUnits="userSpaceOnUse">
<stop offset="0.00119"/>
<stop offset="1"/>
</linearGradient>
<linearGradient id="paint15_linear_116_13" x1="94.4733" y1="76.052" x2="108.357" y2="80.175" gradientUnits="userSpaceOnUse">
<stop stop-color="#999999"/>
<stop offset="0.9988"/>
</linearGradient>
<linearGradient id="paint16_linear_116_13" x1="94.4733" y1="76.0523" x2="108.357" y2="80.1754" gradientUnits="userSpaceOnUse">
<stop stop-color="white"/>
<stop offset="0.9988" stop-color="white"/>
</linearGradient>
<linearGradient id="paint17_linear_116_13" x1="52.5935" y1="41.2409" x2="38.817" y2="27.4644" gradientUnits="userSpaceOnUse">
<stop stop-color="#F9AF7F"/>
<stop offset="0.7398" stop-color="#F9B284"/>
<stop offset="1" stop-color="#F9C09A"/>
</linearGradient>
<linearGradient id="paint18_linear_116_13" x1="49.5992" y1="37.711" x2="35.8227" y2="23.9345" gradientUnits="userSpaceOnUse">
<stop stop-color="#F9A570"/>
<stop offset="0.7826" stop-color="#F9BF9A"/>
<stop offset="1" stop-color="#F9B68B"/>
</linearGradient>
<linearGradient id="paint19_linear_116_13" x1="35.1566" y1="19.0677" x2="71.5068" y2="78.4458" gradientUnits="userSpaceOnUse">
<stop stop-color="#F9D0B6"/>
<stop offset="0.2049" stop-color="#F9BF9A"/>
<stop offset="1" stop-color="#F9A570"/>
</linearGradient>
<linearGradient id="paint20_linear_116_13" x1="43.3022" y1="34.4445" x2="65.6494" y2="64.3709" gradientUnits="userSpaceOnUse">
<stop stop-color="#F9D9C5"/>
<stop offset="0.4279" stop-color="#F9BF9A"/>
<stop offset="0.7942" stop-color="#F9AC7B"/>
<stop offset="1" stop-color="#F9A570"/>
</linearGradient>
<linearGradient id="paint21_linear_116_13" x1="47.3516" y1="39.7217" x2="43.343" y2="35.7131" gradientUnits="userSpaceOnUse">
<stop stop-color="#F9B68B"/>
<stop offset="0.9988" stop-color="#F9D1B8"/>
</linearGradient>
<linearGradient id="paint22_linear_116_13" x1="36.6598" y1="26.0661" x2="33.5663" y2="22.9726" gradientUnits="userSpaceOnUse">
<stop stop-color="#F9B68B"/>
<stop offset="0.9988" stop-color="#F9C5A4"/>
</linearGradient>
<linearGradient id="paint23_linear_116_13" x1="76.0529" y1="66.2416" x2="55.3345" y2="72.2283" gradientUnits="userSpaceOnUse">
<stop stop-color="#F2F2F2"/>
<stop offset="0.9988" stop-color="#CCCCCC"/>
</linearGradient>
<linearGradient id="paint24_linear_116_13" x1="79.6369" y1="74.052" x2="56.0236" y2="80.8753" gradientUnits="userSpaceOnUse">
<stop stop-color="#333333"/>
<stop offset="0.9988" stop-color="#1A1A1A"/>
</linearGradient>
<linearGradient id="paint25_linear_116_13" x1="77.1335" y1="74.7568" x2="72.3546" y2="76.1759" gradientUnits="userSpaceOnUse">
<stop offset="0.00119"/>
<stop offset="0.1014" stop-color="#050505"/>
<stop offset="0.2249" stop-color="#141414"/>
<stop offset="0.3608" stop-color="#2E2E2E"/>
<stop offset="0.5057" stop-color="#515151"/>
<stop offset="0.6576" stop-color="#7E7E7E"/>
<stop offset="0.8155" stop-color="#B5B5B5"/>
<stop offset="0.9753" stop-color="#F4F4F4"/>
<stop offset="1" stop-color="white"/>
</linearGradient>
<linearGradient id="paint26_linear_116_13" x1="77.1335" y1="74.7564" x2="72.3546" y2="76.1756" gradientUnits="userSpaceOnUse">
<stop offset="0.00119"/>
<stop offset="1"/>
</linearGradient>
<linearGradient id="paint27_linear_116_13" x1="72.5267" y1="76.052" x2="58.6429" y2="80.175" gradientUnits="userSpaceOnUse">
<stop stop-color="#999999"/>
<stop offset="0.9988"/>
</linearGradient>
<linearGradient id="paint28_linear_116_13" x1="72.5267" y1="76.0523" x2="58.6429" y2="80.1754" gradientUnits="userSpaceOnUse">
<stop stop-color="white"/>
<stop offset="0.9988" stop-color="white"/>
</linearGradient>
<linearGradient id="paint29_linear_116_13" x1="79.6994" y1="11.437" x2="102.253" y2="33.991" gradientUnits="userSpaceOnUse">
<stop stop-color="#53B8F8"/>
<stop offset="1" stop-color="#2968F5"/>
</linearGradient>
<linearGradient id="paint30_linear_116_13" x1="94.0027" y1="13.6932" x2="114.183" y2="33.8738" gradientUnits="userSpaceOnUse">
<stop stop-color="#EA5149"/>
<stop offset="1" stop-color="#971D15"/>
</linearGradient>
<linearGradient id="paint31_linear_116_13" x1="65.8344" y1="11.3551" x2="88.3964" y2="33.917" gradientUnits="userSpaceOnUse">
<stop stop-color="#A8D462"/>
<stop offset="1" stop-color="#469B2C"/>
</linearGradient>
<linearGradient id="paint32_linear_116_13" x1="54.0775" y1="15.5739" x2="72.3692" y2="33.8656" gradientUnits="userSpaceOnUse">
<stop stop-color="#9967F5"/>
<stop offset="1" stop-color="#5025A1"/>
</linearGradient>
</defs>
</svg>
