<svg width="604" height="536" viewBox="0 0 604 536" fill="none" xmlns="http://www.w3.org/2000/svg">
<mask id="mask0_1_2071" style="mask-type:alpha" maskUnits="userSpaceOnUse" x="0" y="61" width="604" height="475">
<path d="M604 61.6004H0V535.078H604V61.6004Z" fill="url(#paint0_linear_1_2071)"/>
</mask>
<g mask="url(#mask0_1_2071)">
<g filter="url(#filter0_d_1_2071)">
<path d="M531.301 356.55L531.116 328.408L497.039 321.495L317.94 217.681C291.215 202.186 244.476 204.041 213.536 221.829L48.3305 316.825C46.9816 317.6 45.7001 318.41 44.4524 319.219L22.7184 325.846V351.441H22.7352C22.9375 361.052 28.8558 370.19 40.7261 377.087L236.096 490.343C262.821 505.838 309.56 503.984 340.5 486.195L505.706 391.199C522.887 381.285 531.554 368.572 531.301 356.55Z" fill="url(#paint1_linear_1_2071)"/>
<path d="M236.113 464.73L40.743 351.473C14.018 335.978 17.4239 309 48.3473 291.212L213.553 196.216C244.476 178.427 291.215 176.573 317.957 192.068L513.327 305.324C540.052 320.82 536.646 347.798 505.723 365.586L340.5 460.582C309.577 478.37 262.838 480.225 236.113 464.73Z" fill="url(#paint2_linear_1_2071)"/>
</g>
</g>
<path d="M202.755 166.617L179.487 153.128C177.835 152.167 176.334 152.083 175.154 152.69C175.137 152.706 175.12 152.706 175.103 152.723L80.8154 207.05L113.003 329.496L206.802 275.439C208.387 274.68 209.415 272.69 209.415 269.79L209.584 179.701C209.584 174.677 206.532 168.809 202.755 166.617Z" fill="url(#paint3_linear_1_2071)"/>
<path d="M108.619 329.091L85.351 315.602C81.5742 313.41 78.5223 307.559 78.5391 302.518L78.6909 212.429C78.7078 207.387 81.7597 205.077 85.5365 207.269L108.805 220.758C112.582 222.95 115.634 228.801 115.617 233.842L115.465 323.932C115.465 328.973 112.396 331.283 108.619 329.091Z" fill="#AB95F9"/>
<path d="M103.949 318.435L89.0606 309.802C86.6494 308.402 84.6935 304.659 84.6935 301.422L84.7441 220.91C84.7441 217.689 86.7169 216.206 89.128 217.605L104.016 226.238C106.428 227.637 108.383 231.381 108.383 234.618L108.333 315.13C108.333 318.367 106.36 319.834 103.949 318.435Z" fill="url(#paint4_linear_1_2071)"/>
<path d="M96.3108 306.024C93.8997 304.625 91.9438 300.882 91.9438 297.644L91.9944 219.291L89.128 217.638C86.7169 216.239 84.7441 217.723 84.7441 220.943L84.6935 301.455C84.6935 304.676 86.6494 308.436 89.0606 309.835L103.949 318.468C106.36 319.867 108.333 318.384 108.333 315.163V313.005L96.3108 306.024Z" fill="url(#paint5_linear_1_2071)"/>
<path d="M94.9619 323.712L80.0735 315.079C77.6623 313.68 75.7064 309.936 75.7064 306.699L75.757 226.187C75.757 222.967 77.7298 221.483 80.1409 222.882L95.0293 231.515C97.4405 232.915 99.3964 236.658 99.3964 239.895L99.3458 320.407C99.3458 323.628 97.373 325.111 94.9619 323.712Z" fill="url(#paint6_linear_1_2071)"/>
<path d="M89.971 330.236C89.1954 330.236 88.3692 330 87.543 329.528L72.6546 320.895C69.8219 319.26 67.6131 315.061 67.6131 311.352L67.6637 230.84C67.6637 228.648 68.473 226.928 69.8556 226.136C71.0865 225.428 72.5871 225.512 74.0709 226.372L88.9593 235.005C91.792 236.64 94.0008 240.839 94.0008 244.548L93.9502 325.06C93.9502 327.252 93.1409 328.972 91.7583 329.764C91.2187 330.068 90.6117 330.236 89.971 330.236ZM71.6766 228.344C71.5249 228.344 71.3562 228.378 71.2214 228.463C70.8167 228.699 70.3783 229.44 70.3783 230.84L70.3277 311.352C70.3277 314.1 72.0138 317.405 74.0203 318.568L88.9087 327.201C89.2628 327.404 89.9373 327.724 90.4262 327.437C90.8309 327.201 91.2693 326.46 91.2693 325.06L91.3199 244.548C91.3199 241.8 89.6337 238.495 87.6273 237.331L72.7389 228.699C72.486 228.547 72.0644 228.344 71.6766 228.344Z" fill="#57FFFE"/>
<path d="M57.2771 348.919C56.5015 348.919 55.6753 348.683 54.8491 348.211L39.9608 339.578C37.1281 337.942 34.9193 333.744 34.9193 330.034L34.9698 249.522C34.9698 247.331 35.7792 245.611 37.1618 244.818C38.3927 244.11 39.8933 244.194 41.3771 245.054L56.2655 253.687C59.0981 255.323 61.307 259.521 61.307 263.231L61.2564 343.743C61.2564 345.934 60.447 347.654 59.0644 348.447C58.508 348.767 57.901 348.919 57.2771 348.919ZM38.966 247.044C38.8142 247.044 38.6456 247.078 38.5107 247.162C38.106 247.398 37.6676 248.14 37.6676 249.539L37.617 330.051C37.617 332.8 39.3032 336.104 41.3096 337.268L56.198 345.901C56.5521 346.103 57.2266 346.423 57.7156 346.137C58.1202 345.901 58.5586 345.159 58.5586 343.759L58.6092 263.247C58.6092 260.499 56.9231 257.194 54.9166 256.031L40.0282 247.398C39.7753 247.246 39.3706 247.044 38.966 247.044Z" fill="#57FFFE"/>
<path opacity="0.6" d="M103.932 318.586L89.0436 309.953C86.6325 308.554 84.6766 304.81 84.6766 301.573L84.7272 221.061C84.7272 217.841 86.6999 216.357 89.1111 217.756L103.999 226.389C106.411 227.789 108.366 231.532 108.366 234.769L108.316 315.281C108.316 318.502 106.343 319.986 103.932 318.586Z" fill="url(#paint7_linear_1_2071)"/>
<path d="M137.148 269.655V265.17C136.44 265.591 135.665 266.046 134.788 266.552L133.608 267.227V271.695L129.881 273.853V269.385L126.425 271.375L126.442 238.664L129.898 236.674V232.206L133.624 230.048V234.516L136.255 232.999C136.575 232.813 136.862 232.644 137.165 232.493V228.008L140.892 225.849V230.705C141.735 230.469 142.477 230.453 143.151 230.672C143.91 230.925 144.534 231.464 145.039 232.307C145.545 233.15 145.798 234.28 145.798 235.696C145.798 237.231 145.478 238.816 144.871 240.451C144.247 242.087 143.404 243.537 142.342 244.784C143.842 244.498 144.989 244.835 145.781 245.762C146.591 246.707 146.978 248.106 146.978 249.995C146.978 251.478 146.726 253.08 146.203 254.783C145.68 256.486 144.972 258.021 144.061 259.403C143.185 260.718 142.122 261.848 140.858 262.792V267.48L137.148 269.655ZM131.399 254.26V263.011L135.985 260.364C137.772 259.336 138.902 258.611 139.391 258.206C140.133 257.599 140.723 256.823 141.195 255.862C141.65 254.901 141.886 253.839 141.886 252.676C141.886 251.698 141.701 250.973 141.347 250.484C140.993 250.011 140.47 249.809 139.796 249.877C139.121 249.961 137.654 250.635 135.395 251.934L131.399 254.26ZM131.399 241.244V248.814L134.653 246.943C136.575 245.83 137.789 245.105 138.244 244.751C139.087 244.127 139.762 243.351 140.251 242.424C140.74 241.497 140.976 240.502 140.976 239.456C140.976 238.445 140.774 237.737 140.352 237.349C139.93 236.961 139.307 236.927 138.48 237.281C137.991 237.484 136.575 238.259 134.248 239.608L131.399 241.244Z" fill="url(#paint8_linear_1_2071)"/>
<path d="M139.34 271.173V266.688C138.632 267.11 137.857 267.565 136.98 268.071L135.8 268.745V273.213L132.073 275.372V270.903L128.617 272.893L128.634 240.182L132.09 238.193V233.725L135.816 231.566V236.035L138.447 234.517C138.767 234.332 139.054 234.163 139.357 234.011V229.526L143.084 227.368V232.224C143.927 231.988 144.669 231.971 145.343 232.19C146.102 232.443 146.726 232.983 147.231 233.826C147.737 234.669 147.99 235.798 147.99 237.215C147.99 238.749 147.67 240.334 147.063 241.97C146.439 243.605 145.596 245.055 144.534 246.303C146.034 246.016 147.181 246.354 147.973 247.281C148.783 248.225 149.171 249.625 149.171 251.513C149.171 252.997 148.918 254.599 148.395 256.302C147.872 258.005 147.164 259.539 146.254 260.922C145.377 262.237 144.314 263.366 143.05 264.311V268.998L139.34 271.173ZM133.591 255.779V264.53L138.177 261.883C139.964 260.854 141.094 260.129 141.583 259.724C142.325 259.117 142.915 258.342 143.387 257.381C143.842 256.42 144.078 255.357 144.078 254.194C144.078 253.216 143.893 252.491 143.539 252.002C143.185 251.53 142.662 251.328 141.988 251.395C141.313 251.479 139.846 252.154 137.587 253.452L133.591 255.779ZM133.608 242.762V250.333L136.862 248.461C138.784 247.348 139.998 246.623 140.453 246.269C141.296 245.645 141.971 244.87 142.46 243.942C142.949 243.015 143.185 242.02 143.185 240.975C143.185 239.963 142.982 239.255 142.561 238.867C142.139 238.479 141.516 238.446 140.689 238.8C140.2 239.002 138.784 239.778 136.457 241.127L133.608 242.762Z" fill="url(#paint9_linear_1_2071)"/>
<path d="M407.517 359.627V134.547L182.421 130.113V353.304C181.611 355.782 182.674 358.295 185.692 360.082L287.82 420.478C293.114 423.598 302.405 423.311 308.576 419.838L402.425 366.961C406.101 364.887 407.821 362.156 407.517 359.627Z" fill="url(#paint10_linear_1_2071)"/>
<path d="M287.803 194.152L185.675 133.756C180.381 130.636 181.106 125.274 187.294 121.784L281.143 68.9075C287.331 65.4173 296.621 65.1307 301.899 68.2668L404.027 128.663C409.321 131.783 408.596 137.145 402.408 140.635L308.559 193.511C302.388 196.985 293.097 197.288 287.803 194.152Z" fill="url(#paint11_linear_1_2071)"/>
<path d="M270.166 337.084C270.267 332.885 267.755 327.962 264.551 326.073L188.558 281.189C187.125 280.346 185.81 280.295 184.764 280.835C184.613 280.919 184.461 280.987 184.309 281.105L165.425 292.351L248.314 353.304L267.435 341.889C267.873 341.771 268.261 341.518 268.598 341.215C269.542 340.389 270.132 338.989 270.166 337.084Z" fill="url(#paint12_linear_1_2071)"/>
<path d="M244.891 352.764L168.898 307.879C165.711 305.991 163.199 301.067 163.283 296.869C163.384 292.671 166.049 290.799 169.235 292.687L245.212 337.572C248.398 339.46 250.911 344.384 250.826 348.582C250.742 352.781 248.078 354.652 244.891 352.764Z" fill="url(#paint13_linear_1_2071)"/>
<path d="M270.065 303.582C270.166 299.383 267.654 294.46 264.45 292.571L188.457 247.687C187.024 246.844 185.709 246.793 184.663 247.333C184.512 247.417 184.36 247.485 184.208 247.603L165.324 258.849L248.213 319.802L267.333 308.387C267.772 308.269 268.16 308.016 268.497 307.713C269.424 306.887 270.014 305.487 270.065 303.582Z" fill="url(#paint14_linear_1_2071)"/>
<path d="M244.773 319.262L168.78 274.377C165.593 272.489 163.081 267.566 163.165 263.367C163.266 259.169 165.931 257.297 169.117 259.186L245.111 304.07C248.297 305.958 250.81 310.882 250.725 315.08C250.641 319.279 247.977 321.15 244.773 319.262Z" fill="url(#paint15_linear_1_2071)"/>
<path d="M270.284 270.161C270.385 265.963 267.873 261.04 264.669 259.151L188.676 214.267C187.243 213.424 185.928 213.373 184.882 213.913C184.731 213.997 184.579 214.064 184.427 214.182L165.526 225.429L248.415 286.382L267.536 274.967C267.974 274.849 268.362 274.596 268.699 274.292C269.643 273.483 270.234 272.084 270.284 270.161Z" fill="url(#paint16_linear_1_2071)"/>
<path d="M244.992 285.858L169.016 240.974C165.829 239.085 163.317 234.162 163.401 229.963C163.503 225.765 166.167 223.893 169.353 225.782L245.33 270.666C248.516 272.555 251.029 277.478 250.944 281.677C250.86 285.875 248.196 287.747 244.992 285.858Z" fill="url(#paint17_linear_1_2071)"/>
<path d="M270.284 236.761C270.385 232.563 267.873 227.639 264.669 225.751L188.676 180.867C187.243 180.023 185.928 179.973 184.882 180.512C184.731 180.597 184.579 180.664 184.427 180.782L165.526 192.029L248.415 252.982L267.536 241.567C267.974 241.449 268.362 241.196 268.699 240.892C269.643 240.066 270.234 238.667 270.284 236.761Z" fill="url(#paint18_linear_1_2071)"/>
<path d="M244.992 252.441L169.016 207.557C165.829 205.668 163.317 200.745 163.401 196.547C163.503 192.348 166.167 190.476 169.353 192.365L245.33 237.249C248.516 239.138 251.029 244.061 250.944 248.26C250.86 252.458 248.196 254.33 244.992 252.441Z" fill="url(#paint19_linear_1_2071)"/>
<path d="M391.415 196.006L320.21 237.13V226.052L391.415 184.945V196.006Z" fill="url(#paint20_linear_1_2071)"/>
<path d="M391.415 217.286L369.563 229.898V218.82L391.415 206.208V217.286Z" fill="url(#paint21_linear_1_2071)"/>
<path d="M361.267 234.687L320.21 258.393V247.332L361.267 223.626V234.687Z" fill="url(#paint22_linear_1_2071)"/>
<path d="M391.415 237.737L340.73 267.076V256.015L391.415 226.676V237.737Z" fill="url(#paint23_linear_1_2071)"/>
<path d="M332.434 271.865L320.21 278.862V267.785L332.434 260.804V271.865Z" fill="url(#paint24_linear_1_2071)"/>
<path d="M391.415 259.133L320.21 300.241V289.163L391.415 248.056V259.133Z" fill="url(#paint25_linear_1_2071)"/>
<path d="M391.415 280.48L369.563 293.092V282.015L391.415 269.402V280.48Z" fill="url(#paint26_linear_1_2071)"/>
<path d="M361.267 297.881L320.21 321.588V310.527L361.267 286.82V297.881Z" fill="url(#paint27_linear_1_2071)"/>
<path d="M391.415 300.934L340.73 330.272V319.195L391.415 289.873V300.934Z" fill="url(#paint28_linear_1_2071)"/>
<path d="M332.434 335.059L320.21 342.057V330.979L332.434 323.998V335.059Z" fill="url(#paint29_linear_1_2071)"/>
<path d="M391.415 331.132L320.21 372.256V351.247L391.415 310.123V331.132Z" fill="url(#paint30_linear_1_2071)"/>
<path d="M391.415 331.133L374.318 320.005L391.415 310.124V331.133Z" fill="url(#paint31_linear_1_2071)"/>
<path d="M184.36 418.034C184.36 418.034 183.854 418.068 183.719 419.45C183.584 420.833 182.91 421.879 183.871 422.536C184.832 423.194 187.344 423.75 188.373 423.447C189.401 423.143 190.042 422.772 190.329 422.637C190.632 422.502 197.832 418.827 197.832 418.827C197.832 418.827 198.371 418.068 198.169 417.562C197.68 416.348 196.584 416.146 196.331 416.061C196.078 415.977 192.335 416.297 191.323 416.399C190.312 416.483 187.344 415.775 187.344 415.775L184.36 418.034Z" fill="#343499"/>
<mask id="mask1_1_2071" style="mask-type:alpha" maskUnits="userSpaceOnUse" x="183" y="417" width="16" height="7">
<path d="M183.466 420.9C183.534 421.136 183.668 421.405 183.888 421.658C184.478 422.383 186.838 422.687 187.732 422.636C188.626 422.586 188.406 421.844 189.351 421.439C190.295 421.034 191.189 421.271 191.509 421.271C191.829 421.271 197.208 418.32 197.528 418.084C197.849 417.848 197.95 417.106 197.95 417.072C198.051 417.207 198.135 417.359 198.203 417.544C198.405 418.05 197.866 418.809 197.866 418.809C197.866 418.809 190.666 422.485 190.362 422.619C190.059 422.754 189.435 423.108 188.406 423.429C187.378 423.732 184.849 423.176 183.905 422.518C183.298 422.13 183.314 421.574 183.466 420.9Z" fill="url(#paint32_linear_1_2071)"/>
</mask>
<g mask="url(#mask1_1_2071)">
<path d="M183.466 420.9C183.534 421.136 183.668 421.406 183.888 421.659C184.478 422.384 186.838 422.688 187.732 422.637C188.626 422.587 188.406 421.845 189.351 421.44C190.295 421.035 191.189 421.271 191.509 421.271C191.829 421.271 197.208 418.321 197.528 418.085C197.849 417.848 197.95 417.107 197.95 417.073C198.051 417.208 198.135 417.36 198.203 417.545C198.405 418.051 197.866 418.81 197.866 418.81C197.866 418.81 190.666 422.485 190.362 422.62C190.059 422.755 189.435 423.109 188.406 423.43C187.378 423.733 184.849 423.177 183.905 422.519C183.298 422.131 183.314 421.575 183.466 420.9Z" fill="url(#paint33_linear_1_2071)"/>
</g>
<path d="M170.871 413.464C170.871 413.464 170.365 413.498 170.23 414.88C170.095 416.263 169.421 417.308 170.382 417.966C171.343 418.623 173.855 419.18 174.884 418.876C175.912 418.573 176.553 418.202 176.84 418.067C177.143 417.932 184.343 414.256 184.343 414.256C184.343 414.256 184.882 413.498 184.68 412.992C184.191 411.778 183.095 411.575 182.842 411.491C182.589 411.407 178.846 411.727 177.834 411.828C176.823 411.913 173.855 411.204 173.855 411.204L170.871 413.464Z" fill="#343499"/>
<mask id="mask2_1_2071" style="mask-type:alpha" maskUnits="userSpaceOnUse" x="169" y="412" width="16" height="7">
<path d="M169.977 416.329C170.045 416.565 170.18 416.835 170.399 417.088C170.989 417.813 173.349 418.117 174.243 418.066C175.137 418.015 174.918 417.273 175.862 416.869C176.806 416.464 177.7 416.7 178.02 416.7C178.34 416.7 183.719 413.75 184.039 413.513C184.36 413.277 184.461 412.535 184.461 412.502C184.562 412.637 184.646 412.788 184.714 412.974C184.916 413.48 184.377 414.238 184.377 414.238C184.377 414.238 177.177 417.914 176.873 418.049C176.57 418.184 175.946 418.538 174.918 418.858C173.889 419.162 171.36 418.606 170.416 417.948C169.792 417.577 169.825 417.021 169.977 416.329Z" fill="url(#paint34_linear_1_2071)"/>
</mask>
<g mask="url(#mask2_1_2071)">
<path d="M169.977 416.329C170.045 416.565 170.18 416.835 170.399 417.088C170.989 417.813 173.349 418.117 174.243 418.066C175.137 418.015 174.918 417.273 175.862 416.869C176.806 416.464 177.7 416.7 178.02 416.7C178.34 416.7 183.719 413.75 184.039 413.513C184.36 413.277 184.461 412.535 184.461 412.502C184.562 412.637 184.646 412.788 184.714 412.974C184.916 413.48 184.377 414.238 184.377 414.238C184.377 414.238 177.177 417.914 176.873 418.049C176.57 418.184 175.946 418.538 174.918 418.858C173.889 419.162 171.36 418.606 170.416 417.948C169.792 417.577 169.825 417.021 169.977 416.329Z" fill="url(#paint35_linear_1_2071)"/>
</g>
<path d="M184.68 360.959L180.212 358.379C180.111 358.312 179.993 358.244 179.892 358.194L179.824 358.143H179.807C179.335 357.958 178.796 357.974 178.307 358.244L162.727 367.197C161.412 367.956 160.602 369.356 160.602 370.873V384.548C160.602 385.138 160.889 385.627 161.311 385.947V385.964L161.395 386.015C161.445 386.048 163.233 387.296 163.283 387.33L166.217 388.847L170.938 381.715L178.779 377.264C180.111 376.505 180.937 375.105 180.937 373.571V366.607L184.68 360.959Z" fill="#4343C9"/>
<path d="M167.903 388.813L183.466 379.995C184.798 379.236 185.624 377.836 185.624 376.302V362.51C185.624 361.161 184.157 360.318 182.994 360.992L167.414 369.945C166.099 370.704 165.29 372.104 165.29 373.621V387.296C165.273 388.628 166.723 389.471 167.903 388.813Z" fill="#867CE2"/>
<path d="M168.932 366.203C168.932 366.203 168.797 383.738 168.932 387.06C169.067 390.466 169.876 398.846 169.826 404.731C169.775 410.615 169.741 412.706 170.888 413.532C172.034 414.342 177.194 413.448 177.851 412.436C178.509 411.441 178.037 397.75 178.408 395.12C178.779 392.489 180.482 382.154 180.482 382.154L179.723 369.912L168.932 366.203Z" fill="#4B4BAA"/>
<path d="M191.003 370.722C191.003 370.722 193.532 390.213 193.347 394.749C193.161 399.285 192.032 414.881 191.661 416.146C191.29 417.41 190.902 418.237 189.216 418.506C187.53 418.776 186.113 418.877 184.984 418.506C183.854 418.152 183.196 417.242 183.382 416.062C183.567 414.881 184.798 399.015 184.41 396.486C184.039 393.94 179.251 382.98 178.593 378.9C177.936 374.819 177.835 369.929 177.835 369.929L191.003 370.722Z" fill="#6666D3"/>
<path d="M191.981 378.629C191.981 378.629 189.924 378.208 188.929 376.792C187.934 375.358 186.822 372.61 186.822 372.61L191.003 370.738L191.981 378.629Z" fill="#4B4BAA"/>
<path d="M169.168 329.952C169.168 329.952 163.486 341.806 162.558 344.352C161.614 346.898 161.715 347.926 162.558 349.225C163.401 350.523 168.375 358.026 168.375 358.026L174.108 350.928L175.609 339.276L172.877 331.723L169.168 329.952Z" fill="#867CE2"/>
<path d="M196.163 347.403C196.163 347.403 194.78 341.417 193.532 338.028C192.285 334.639 191.34 333.914 190.025 333.02C188.71 332.11 187.159 330.862 187.159 330.862L174.732 327.945C174.732 327.945 170.163 328.181 169.168 329.951C167.566 332.767 166.639 363.016 167.397 365.191C168.156 367.366 171.765 370.452 178.138 372.087C184.528 373.723 190.902 372.812 192.318 371.818C193.735 370.823 194.004 360.032 193.262 354.872C192.504 349.696 196.163 347.403 196.163 347.403Z" fill="#4343C9"/>
<path d="M185.557 330.238C185.557 330.238 185.102 328.805 184.95 326.664C184.798 324.522 185.422 321.403 185.422 321.403L178.037 320.341C178.037 320.341 178.796 321.706 178.593 324.371C178.391 327.051 176.519 328.889 176.519 328.889C176.519 328.889 180.448 331.57 181.46 331.655C182.471 331.756 184.781 331.655 184.781 331.655L185.557 330.238Z" fill="#F4B489"/>
<path d="M187.681 315.113C187.681 315.113 189.536 317.406 189.3 320.644C189.081 323.915 187.783 326.107 186.805 326.326C185.827 326.528 183.095 325.921 181.797 324.555C180.499 323.19 179.133 317.828 179.133 317.828L185.894 312.011L187.681 315.113Z" fill="#FCBF9D"/>
<path d="M187.412 310.999C188.659 311.792 190.059 313.174 190.008 314.591C189.958 316.007 188.541 317.423 188.541 317.423C188.541 317.423 187.462 315.687 185.776 314.979C184.41 314.405 184.276 315.619 184.276 315.619L181.207 311.724C181.207 311.724 184.731 309.296 187.412 310.999Z" fill="#8480CE"/>
<path d="M183.871 311.573L185.439 310.797C185.439 310.797 182.623 309.432 180.195 309.904C177.632 310.393 176.975 312.416 176.975 312.416C176.975 312.416 174.951 313.917 174.749 316.429C174.564 318.823 175.508 320.779 177.076 321.791C178.644 322.819 178.897 323.393 181.207 322.819C182.91 322.381 184.562 320.189 184.276 318.587C183.989 316.986 185.085 317.66 185.894 316.395C186.704 315.131 186.704 313.478 185.894 312.366C185.085 311.236 183.871 311.573 183.871 311.573Z" fill="#5E56E8"/>
<path d="M187.816 330.964C187.26 330.255 186.602 329.598 186.164 329.193C185.894 328.94 185.523 328.856 185.169 328.974C184.461 329.21 183.129 329.547 181.763 329.261C179.757 328.839 178.509 328.131 177.784 326.934C177.059 325.753 174.58 327.136 174.732 327.929C174.884 328.721 175.879 330.643 178.576 331.689C181.527 332.835 183.989 332.65 185.692 332.346C186.451 332.211 187.058 332.076 187.496 331.958C187.934 331.84 188.103 331.318 187.816 330.964Z" fill="#867CE2"/>
<path d="M206.414 341.451L208.033 338.82C208.033 338.82 209.685 339.006 210.208 338.129C210.731 337.252 211.54 335.954 211.203 334.908C210.866 333.846 209.651 333.054 209.651 333.054C209.651 333.054 211.371 329.344 211.27 328.872C211.169 328.4 210.697 328.383 210.41 328.602C210.124 328.838 208.117 332.16 208.117 332.16C208.117 332.16 206.92 332.565 206.161 334.655C205.402 336.746 205.419 337.033 205.419 337.033L204.34 338.719L206.414 341.451Z" fill="#FCBF9D"/>
<path d="M206.212 343.56L207.207 341.992L204.34 338.181L203.126 340.272L206.212 343.56Z" fill="#4B4BAA"/>
<path d="M206.347 342.95C206.617 343.321 206.65 343.81 206.414 344.215C204.812 346.947 198.54 357.4 196.18 357.957C194.51 358.345 190.835 353.152 188.862 347.992C186.889 342.833 185.86 339.561 186.518 337.117C187.176 334.672 189.317 332.395 190.767 333.491C192.217 334.587 193.836 336.392 195.151 342.091C196.466 347.807 196.466 347.807 196.466 347.807C196.466 347.807 201.356 341.096 202.199 340.017C202.435 339.713 202.654 339.494 202.823 339.342C203.126 339.089 203.598 339.157 203.834 339.477L206.347 342.95Z" fill="#867CE2"/>
<path d="M207.207 341.99L207.561 341.45C207.712 341.231 207.696 340.928 207.544 340.709L205.2 337.556C205.048 337.353 204.728 337.387 204.61 337.606L204.34 338.179L207.207 341.99Z" fill="#F5E6FF"/>
<path d="M182.893 329.445C182.758 329.428 182.64 329.395 182.539 329.361C183.618 329.428 184.596 329.175 185.169 328.99C185.523 328.872 185.894 328.956 186.164 329.209C186.602 329.614 187.26 330.271 187.816 330.98C188.052 331.283 187.968 331.688 187.665 331.89C187.361 331.637 184.866 329.766 182.893 329.445Z" fill="#FFE9F4"/>
<path d="M267.131 439.161V408.71L231.773 408.018V438.183C231.655 438.571 231.807 438.976 232.279 439.245L248.314 448.738C249.14 449.227 250.607 449.177 251.568 448.637L266.305 440.324C266.895 439.987 267.165 439.566 267.131 439.161Z" fill="url(#paint36_linear_1_2071)"/>
<path d="M248.314 418.068L232.279 408.575C231.453 408.086 231.554 407.243 232.532 406.704L247.269 398.391C248.247 397.852 249.697 397.801 250.523 398.29L266.558 407.783C267.384 408.272 267.283 409.115 266.305 409.654L251.568 417.967C250.607 418.523 249.157 418.574 248.314 418.068Z" fill="url(#paint37_linear_1_2071)"/>
<path d="M294.632 455.212V393.838L259.274 393.146V454.234C259.139 454.622 259.308 455.027 259.78 455.296L275.815 464.789C276.641 465.278 278.108 465.228 279.069 464.688L293.806 456.376C294.396 456.038 294.666 455.6 294.632 455.212Z" fill="url(#paint38_linear_1_2071)"/>
<path d="M275.815 403.196L259.78 393.703C258.954 393.214 259.055 392.371 260.033 391.832L274.769 383.519C275.747 382.979 277.197 382.929 278.024 383.418L294.058 392.911C294.885 393.4 294.784 394.243 293.806 394.782L279.069 403.095C278.108 403.634 276.658 403.685 275.815 403.196Z" fill="url(#paint39_linear_1_2071)"/>
<path d="M471.404 323.832V255.898L432.269 255.123V322.736C432.134 323.174 432.32 323.613 432.842 323.916L450.597 334.421C451.525 334.96 453.126 334.91 454.205 334.303L470.527 325.113C471.151 324.759 471.454 324.27 471.404 323.832Z" fill="url(#paint40_linear_1_2071)"/>
<path d="M450.58 266.251L432.825 255.746C431.898 255.206 432.033 254.279 433.112 253.672L449.434 244.483C450.513 243.876 452.131 243.825 453.042 244.365L470.797 254.869C471.724 255.409 471.589 256.336 470.51 256.943L454.189 266.132C453.126 266.756 451.508 266.807 450.58 266.251Z" fill="url(#paint41_linear_1_2071)"/>
<path d="M132.849 380.197V352.949L101.217 352.325V379.303C101.099 379.657 101.251 380.011 101.673 380.264L116.021 388.746C116.763 389.184 118.079 389.15 118.938 388.661L132.124 381.225C132.647 380.939 132.899 380.551 132.849 380.197Z" fill="url(#paint42_linear_1_2071)"/>
<path d="M116.022 361.33L101.673 352.848C100.931 352.41 101.032 351.651 101.892 351.162L115.077 343.727C115.954 343.238 117.252 343.204 117.994 343.642L132.343 352.123C133.085 352.562 132.984 353.321 132.124 353.81L118.939 361.245C118.079 361.734 116.763 361.768 116.022 361.33Z" fill="url(#paint43_linear_1_2071)"/>
<path opacity="0.7" d="M287.499 128.985L184.629 68.1502C179.301 64.9972 180.043 59.6016 186.265 56.0945L280.789 2.83014C287.01 -0.676983 296.385 -0.963619 301.696 2.18942L404.566 63.0244C409.894 66.1775 409.169 71.573 402.931 75.0802L308.39 128.361C302.185 131.852 292.827 132.138 287.499 128.985Z" fill="#EAB6FF"/>
<path opacity="0.4" d="M402.948 75.0799L308.424 128.344C302.202 131.851 292.827 132.138 287.516 128.985L184.646 68.1499C182.353 66.7842 181.19 65.0138 181.089 63.1591L181.122 128.209C181.139 130.132 182.303 131.986 184.68 133.386L287.55 194.221C292.878 197.374 302.236 197.087 308.458 193.58L402.981 140.316C406.539 138.309 408.293 135.679 408.158 133.217L408.124 68.3017C408.107 70.6622 406.354 73.1577 402.948 75.0799Z" fill="url(#paint44_linear_1_2071)"/>
<path opacity="0.4" d="M402.948 75.0799L308.424 128.344C302.202 131.851 292.827 132.138 287.516 128.985L184.646 68.1499C182.353 66.7842 181.19 65.0138 181.089 63.1591L181.122 128.209C181.139 130.132 182.303 131.986 184.68 133.386L287.55 194.221C292.878 197.374 302.236 197.087 308.458 193.58L402.981 140.316C406.539 138.309 408.293 135.679 408.158 133.217L408.124 68.3017C408.107 70.6622 406.354 73.1577 402.948 75.0799Z" fill="url(#paint45_linear_1_2071)"/>
<path d="M375.43 417.326C375.43 417.326 382.377 421.98 386.221 432.08C390.083 442.179 403.184 452.279 403.184 452.279L455.453 483.641L522.493 444.287L470.207 412.909C470.207 412.909 457.139 402.842 453.295 392.759C449.451 382.693 442.521 378.04 442.521 378.04L390.605 347.824L323.616 387.162L375.43 417.326Z" fill="url(#paint46_linear_1_2071)"/>
<path d="M429.504 363.17C423.198 352.311 406.438 344.522 386.693 344.522C366.949 344.522 350.189 352.311 343.883 363.17H341.168V372.646C341.168 388.175 361.553 400.77 386.693 400.77C411.833 400.77 432.218 388.175 432.218 372.646V363.17H429.504Z" fill="#E06703"/>
<mask id="mask3_1_2071" style="mask-type:alpha" maskUnits="userSpaceOnUse" x="349" y="372" width="40" height="29">
<path d="M349.059 372.645V388.461C359.412 397.532 373.221 400.769 388.868 400.769V391.293L349.059 372.645Z" fill="url(#paint47_linear_1_2071)"/>
</mask>
<g mask="url(#mask3_1_2071)">
<path d="M349.059 372.644V388.46C359.412 397.531 373.221 400.768 388.868 400.768V391.292L349.059 372.644Z" fill="url(#paint48_linear_1_2071)"/>
<path d="M386.693 391.293C411.836 391.293 432.218 378.702 432.218 363.169C432.218 347.636 411.836 335.045 386.693 335.045C361.551 335.045 341.168 347.636 341.168 363.169C341.168 378.702 361.551 391.293 386.693 391.293Z" fill="#FFD81D"/>
</g>
<mask id="mask4_1_2071" style="mask-type:alpha" maskUnits="userSpaceOnUse" x="341" y="335" width="81" height="50">
<path d="M356.31 384.061L421.967 345.381C413.637 339.092 401.009 335.062 386.828 335.029L341.185 363.153C341.185 371.466 347.036 378.918 356.31 384.061Z" fill="url(#paint49_linear_1_2071)"/>
</mask>
<g mask="url(#mask4_1_2071)">
<path d="M356.31 384.06L421.967 345.381C413.637 339.091 401.009 335.062 386.828 335.028L341.185 363.152C341.185 371.465 347.036 378.917 356.31 384.06Z" fill="url(#paint50_linear_1_2071)"/>
</g>
<mask id="mask5_1_2071" style="mask-type:alpha" maskUnits="userSpaceOnUse" x="372" y="355" width="61" height="37">
<path d="M386.693 391.291C387.385 391.291 388.076 391.241 388.751 391.224L431.999 365.763C432.134 364.903 432.219 364.027 432.219 363.15C432.219 360.536 431.595 358.024 430.516 355.63C410.737 367.18 388.498 380.197 372.109 389.774C376.695 390.752 381.601 391.291 386.693 391.291Z" fill="url(#paint51_linear_1_2071)"/>
</mask>
<g mask="url(#mask5_1_2071)">
<path d="M386.693 391.294C387.385 391.294 388.076 391.243 388.751 391.226L431.999 365.766C432.134 364.906 432.218 364.029 432.218 363.152C432.218 360.539 431.595 358.027 430.516 355.632C410.737 367.182 388.497 380.199 372.108 389.776C376.695 390.754 381.601 391.294 386.693 391.294Z" fill="url(#paint52_linear_1_2071)"/>
<path d="M386.693 383.064C406.77 383.064 423.046 373.59 423.046 361.904C423.046 350.217 406.77 340.743 386.693 340.743C366.616 340.743 350.341 350.217 350.341 361.904C350.341 373.59 366.616 383.064 386.693 383.064Z" fill="#F9B815"/>
</g>
<mask id="mask6_1_2071" style="mask-type:alpha" maskUnits="userSpaceOnUse" x="352" y="343" width="71" height="40">
<path d="M379.814 382.762L422.355 357.707C420.567 352.682 415.711 348.315 408.984 345.28C404.178 344.201 399.019 343.611 393.606 343.594L352.448 368.953C356.664 375.967 367.033 381.312 379.814 382.762Z" fill="url(#paint53_linear_1_2071)"/>
</mask>
<g mask="url(#mask6_1_2071)">
<path opacity="0.5" d="M379.814 382.762L422.355 357.707C420.567 352.682 415.711 348.315 408.984 345.28C404.178 344.201 399.019 343.611 393.606 343.594L352.448 368.953C356.664 375.967 367.033 381.312 379.814 382.762Z" fill="url(#paint54_linear_1_2071)"/>
<path d="M386.693 340.743C366.612 340.743 350.341 350.219 350.341 361.904C350.341 362.949 350.509 363.977 350.762 364.989C353.325 354.771 368.416 346.914 386.677 346.914C404.954 346.914 420.028 354.771 422.591 364.989C422.844 363.977 423.012 362.949 423.012 361.904C423.046 350.219 406.775 340.743 386.693 340.743Z" fill="#DD7105"/>
</g>
<mask id="mask7_1_2071" style="mask-type:alpha" maskUnits="userSpaceOnUse" x="376" y="340" width="40" height="16">
<path d="M386.761 340.744C383.068 340.744 379.494 341.064 376.138 341.671V347.842C379.511 347.235 383.068 346.898 386.761 346.898C398.53 346.898 408.933 350.169 415.577 355.21H415.593V349.039C408.95 343.998 398.513 340.744 386.761 340.744Z" fill="url(#paint55_linear_1_2071)"/>
</mask>
<g mask="url(#mask7_1_2071)">
<path d="M386.761 340.743C383.068 340.743 379.494 341.063 376.138 341.67V347.841C379.511 347.234 383.068 346.897 386.761 346.897C398.53 346.897 408.933 350.168 415.577 355.21H415.593V349.038C408.95 343.997 398.513 340.743 386.761 340.743Z" fill="url(#paint56_linear_1_2071)"/>
</g>
<path d="M406.809 373.506C408.191 372.123 408.916 370.741 409.001 369.325C409.018 369.325 409.068 369.358 409.068 369.358V365.295L406.303 364.148C405.747 363.71 405.106 363.288 404.381 362.867C401.835 361.45 399.07 360.675 396.102 360.574C393.134 360.472 389.273 361.231 384.552 362.867L375.329 357.707C377.487 357.185 379.679 357.336 381.888 358.162L386.963 354.234V350.491L380.455 352.733L380.489 352.784C379.831 352.733 379.19 352.716 378.533 352.733C375.666 352.818 372.867 353.509 370.119 354.79L368.922 354.116L369.377 353.762V352.008L364.42 351.738V357.623L366.022 356.375L366.764 356.78C366.005 357.336 365.415 357.893 364.909 358.466C364.066 358.179 363.391 357.96 363.391 357.96L363.408 362.277C363.56 364.216 364.943 365.902 367.522 367.335C370.068 368.751 372.952 369.544 376.138 369.696C379.342 369.847 382.883 369.274 386.795 367.959L396.692 373.489C395.444 373.759 394.028 373.843 392.443 373.742C391.431 373.675 390.454 373.489 389.476 373.236L389.712 372.427L382.428 372.983V376.727C385.985 378.177 389.459 378.885 392.814 378.834C396.186 378.784 399.373 378.059 402.374 376.659L406.674 379.053L410.029 377.047V373.304L406.809 373.506ZM376.088 364.637C374.874 364.536 373.862 364.249 373.019 363.777C372.109 363.271 371.535 362.648 371.333 361.889C371.114 361.147 371.316 360.405 371.906 359.697L380.067 364.266C378.617 364.62 377.302 364.738 376.088 364.637ZM400.368 371.736L391.162 366.593C392.966 365.986 394.551 365.716 395.917 365.784C397.282 365.851 398.496 366.172 399.559 366.762C400.739 367.419 401.396 368.212 401.548 369.139C401.7 370.05 401.312 370.91 400.368 371.736Z" fill="#E06703"/>
<path d="M396.692 369.797L386.795 364.267C382.883 365.582 379.342 366.155 376.138 366.003C372.935 365.852 370.068 365.059 367.522 363.643C364.943 362.21 363.577 360.507 363.408 358.584C363.256 356.645 364.369 354.824 366.747 353.088L364.403 351.789L367.758 349.783L370.102 351.081C372.851 349.783 375.666 349.092 378.516 349.024C381.382 348.94 384.181 349.446 386.946 350.525L381.871 354.453C379.662 353.627 377.47 353.476 375.312 353.998L384.535 359.158C389.256 357.522 393.118 356.747 396.085 356.865C399.053 356.966 401.818 357.741 404.364 359.158C407.213 360.743 408.765 362.597 409.034 364.688C409.287 366.779 408.141 368.853 405.578 370.893L409.996 373.355L406.64 375.361L402.341 372.967C399.339 374.383 396.153 375.108 392.78 375.142C389.408 375.193 385.952 374.485 382.394 373.034L387.773 369.055C389.273 369.612 390.824 369.949 392.426 370.05C394.028 370.151 395.444 370.067 396.692 369.797ZM371.906 355.971C371.316 356.696 371.114 357.421 371.333 358.163C371.552 358.905 372.109 359.529 373.019 360.051C373.862 360.524 374.874 360.81 376.088 360.911C377.302 361.012 378.617 360.894 380.067 360.54L371.906 355.971ZM400.368 367.993C401.312 367.184 401.7 366.307 401.548 365.396C401.396 364.469 400.739 363.693 399.559 363.019C398.496 362.429 397.282 362.108 395.917 362.041C394.551 361.974 392.966 362.243 391.162 362.85L400.368 367.993Z" fill="#FFD81D"/>
<mask id="mask8_1_2071" style="mask-type:alpha" maskUnits="userSpaceOnUse" x="363" y="349" width="47" height="27">
<path d="M396.692 369.797L386.795 364.267C382.883 365.582 379.342 366.155 376.138 366.003C372.935 365.852 370.068 365.059 367.522 363.643C364.943 362.21 363.577 360.507 363.408 358.584C363.257 356.645 364.369 354.824 366.747 353.088L364.403 351.789L367.758 349.783L370.102 351.081C372.851 349.783 375.666 349.092 378.516 349.024C381.382 348.94 384.181 349.446 386.946 350.525L381.871 354.453C379.662 353.627 377.47 353.475 375.312 353.998L384.535 359.158C389.256 357.522 393.118 356.747 396.085 356.865C399.053 356.966 401.818 357.741 404.364 359.158C407.214 360.743 408.765 362.597 409.035 364.688C409.287 366.779 408.141 368.853 405.578 370.893L409.996 373.355L406.64 375.361L402.341 372.967C399.339 374.383 396.153 375.108 392.78 375.142C389.408 375.193 385.952 374.484 382.394 373.034L387.773 369.055C389.273 369.612 390.825 369.949 392.426 370.05C394.028 370.151 395.444 370.067 396.692 369.797ZM371.906 355.971C371.316 356.696 371.114 357.421 371.333 358.163C371.552 358.905 372.109 359.529 373.019 360.051C373.862 360.523 374.874 360.81 376.088 360.911C377.302 361.012 378.617 360.894 380.067 360.54L371.906 355.971ZM400.368 367.993C401.312 367.184 401.7 366.307 401.548 365.396C401.396 364.469 400.739 363.693 399.559 363.019C398.496 362.429 397.282 362.108 395.917 362.041C394.551 361.973 392.966 362.243 391.162 362.85L400.368 367.993Z" fill="url(#paint57_linear_1_2071)"/>
</mask>
<g mask="url(#mask8_1_2071)">
<path d="M396.692 369.795L386.795 364.265C382.883 365.58 379.342 366.153 376.138 366.002C372.935 365.85 370.068 365.057 367.522 363.641C364.943 362.208 363.577 360.505 363.408 358.583C363.256 356.644 364.369 354.823 366.747 353.086L364.403 351.788L367.758 349.781L370.102 351.08C372.851 349.781 375.666 349.09 378.516 349.023C381.382 348.938 384.181 349.444 386.946 350.523L381.871 354.452C379.662 353.626 377.47 353.474 375.312 353.997L384.535 359.156C389.256 357.521 393.118 356.745 396.085 356.863C399.053 356.964 401.818 357.74 404.364 359.156C407.213 360.741 408.765 362.596 409.035 364.687C409.287 366.777 408.141 368.851 405.578 370.891L409.996 373.353L406.64 375.36L402.341 372.965C399.339 374.382 396.153 375.107 392.78 375.14C389.408 375.191 385.952 374.483 382.394 373.033L387.773 369.054C389.273 369.61 390.825 369.947 392.426 370.048C394.028 370.15 395.444 370.065 396.692 369.795ZM371.906 355.969C371.316 356.694 371.114 357.419 371.333 358.161C371.552 358.903 372.109 359.527 373.019 360.05C373.862 360.522 374.874 360.808 376.088 360.91C377.302 361.011 378.617 360.893 380.067 360.539L371.906 355.969ZM400.368 367.991C401.312 367.182 401.7 366.305 401.548 365.395C401.396 364.467 400.739 363.692 399.559 363.017C398.496 362.427 397.282 362.107 395.917 362.039C394.551 361.972 392.966 362.242 391.162 362.849L400.368 367.991Z" fill="url(#paint58_linear_1_2071)"/>
</g>
<path d="M344.409 60.6131C337.182 48.1562 317.972 39.2297 295.337 39.2297C272.701 39.2297 253.491 48.1562 246.264 60.6131H243.159V71.4879C243.159 89.3054 266.526 103.734 295.337 103.734C324.147 103.734 347.514 89.2936 347.514 71.4879V60.6131H344.409Z" fill="#E06703"/>
<mask id="mask9_1_2071" style="mask-type:alpha" maskUnits="userSpaceOnUse" x="252" y="71" width="46" height="33">
<path d="M252.18 71.487V89.6234C264.058 100.026 279.892 103.745 297.828 103.745V92.8704L252.18 71.487Z" fill="url(#paint59_linear_1_2071)"/>
</mask>
<g mask="url(#mask9_1_2071)">
<path d="M252.18 71.487V89.6234C264.058 100.026 279.892 103.745 297.828 103.745V92.8705L252.18 71.487Z" fill="url(#paint60_linear_1_2071)"/>
<path d="M295.325 92.8594C324.142 92.8594 347.502 78.4222 347.502 60.6131C347.502 42.8039 324.142 28.3667 295.325 28.3667C266.508 28.3667 243.147 42.8039 243.147 60.6131C243.147 78.4222 266.508 92.8594 295.325 92.8594Z" fill="#FFD81D"/>
</g>
<mask id="mask10_1_2071" style="mask-type:alpha" maskUnits="userSpaceOnUse" x="243" y="28" width="93" height="57">
<path d="M260.481 84.5578L335.754 40.2205C326.213 33.0061 311.714 28.3894 295.478 28.3658L243.159 60.6121C243.147 70.129 249.866 78.654 260.481 84.5578Z" fill="url(#paint61_linear_1_2071)"/>
</mask>
<g mask="url(#mask10_1_2071)">
<path d="M260.481 84.5587L335.754 40.2215C326.213 33.0071 311.714 28.3903 295.478 28.3667L243.159 60.6131C243.147 70.1299 249.866 78.655 260.481 84.5587Z" fill="url(#paint62_linear_1_2071)"/>
</g>
<mask id="mask11_1_2071" style="mask-type:alpha" maskUnits="userSpaceOnUse" x="278" y="51" width="70" height="42">
<path d="M295.325 92.859C296.128 92.859 296.895 92.8118 297.686 92.7882L347.254 63.6118C347.408 62.6199 347.502 61.6281 347.502 60.6126C347.502 57.6253 346.794 54.7443 345.554 51.9932C322.883 65.2412 297.379 80.1423 278.593 91.1469C283.86 92.2332 289.468 92.859 295.325 92.859Z" fill="url(#paint63_linear_1_2071)"/>
</mask>
<g mask="url(#mask11_1_2071)">
<path d="M295.325 92.859C296.128 92.859 296.895 92.8118 297.686 92.7882L347.254 63.6118C347.408 62.6199 347.502 61.6281 347.502 60.6126C347.502 57.6253 346.794 54.7443 345.554 51.9932C322.883 65.2412 297.379 80.1423 278.593 91.1469C283.86 92.2332 289.468 92.859 295.325 92.859Z" fill="url(#paint64_linear_1_2071)"/>
<path d="M295.325 83.4258C318.338 83.4258 336.993 72.5622 336.993 59.1613C336.993 45.7604 318.338 34.8968 295.325 34.8968C272.312 34.8968 253.656 45.7604 253.656 59.1613C253.656 72.5622 272.312 83.4258 295.325 83.4258Z" fill="#F9B815"/>
</g>
<mask id="mask12_1_2071" style="mask-type:alpha" maskUnits="userSpaceOnUse" x="256" y="38" width="81" height="46">
<path d="M287.426 83.0603L336.191 54.3326C334.148 48.5705 328.575 43.5641 320.865 40.0809C315.362 38.8529 309.435 38.1681 303.236 38.1562L256.065 67.2264C260.882 75.2909 272.772 81.4191 287.426 83.0603Z" fill="url(#paint65_linear_1_2071)"/>
</mask>
<g mask="url(#mask12_1_2071)">
<path opacity="0.5" d="M287.425 83.0588L336.191 54.3311C334.148 48.569 328.575 43.5626 320.864 40.0794C315.362 38.8514 309.435 38.1666 303.236 38.1548L256.065 67.2249C260.882 75.2895 272.772 81.4176 287.425 83.0588Z" fill="url(#paint66_linear_1_2071)"/>
<path d="M295.325 34.8968C272.312 34.8968 253.656 45.7598 253.656 59.1613C253.656 60.3657 253.857 61.5346 254.152 62.6918C257.092 50.9669 274.39 41.9577 295.337 41.9577C316.283 41.9577 333.569 50.9669 336.521 62.6918C336.816 61.5346 337.017 60.3657 337.017 59.1613C336.994 45.7598 318.338 34.8968 295.325 34.8968Z" fill="#DD7105"/>
</g>
<mask id="mask13_1_2071" style="mask-type:alpha" maskUnits="userSpaceOnUse" x="283" y="34" width="46" height="18">
<path d="M295.396 34.8952C291.157 34.8952 287.059 35.2731 283.21 35.9579V43.0424C287.071 42.3576 291.157 41.9679 295.396 41.9679C308.88 41.9679 320.817 45.7109 328.421 51.4966H328.445V44.4239C320.829 38.6382 308.88 34.8952 295.396 34.8952Z" fill="url(#paint67_linear_1_2071)"/>
</mask>
<g mask="url(#mask13_1_2071)">
<path d="M295.396 34.8968C291.157 34.8968 287.059 35.2747 283.21 35.9595V43.044C287.071 42.3592 291.157 41.9695 295.396 41.9695C308.88 41.9695 320.817 45.7125 328.421 51.4982H328.445V44.4255C320.829 38.6398 308.88 34.8968 295.396 34.8968Z" fill="url(#paint68_linear_1_2071)"/>
</g>
<path d="M269.502 67.0135V64.3214L261.39 68.9972L259.087 67.6747V70.355L261.39 71.6893L264.413 69.9418L275.712 76.4713L277.779 75.2788V72.5866L267.931 67.9109L269.502 67.0135Z" fill="#CE5800"/>
<path d="M285.666 64.2273L284.143 62.0901L276.976 59.398L270.706 61.8422V64.7823L270.73 64.8059C270.741 64.983 270.741 65.1601 270.789 65.3608C270.942 65.904 271.249 66.4471 271.71 66.9903C272.052 67.3799 272.524 67.7932 273.091 68.2065V68.2183L273.15 68.2419C273.611 68.5843 274.118 68.9267 274.732 69.2809C276.893 70.5325 279.042 71.2528 281.179 71.4535C283.305 71.6424 285.135 71.3118 286.646 70.4381C287.732 69.8123 288.323 69.0802 288.441 68.2537L288.476 68.2301V65.2546L287.555 65.8804C287.095 65.3254 286.469 64.7823 285.666 64.2273ZM280.589 68.0293C280.329 67.9939 274.473 65.4789 273.988 65.2664C273.882 64.6288 274.166 64.0974 274.921 63.6605C275.771 63.1646 276.834 62.9993 278.121 63.1528C279.396 63.2945 280.825 63.8259 282.372 64.7232C283.883 65.597 284.78 66.3999 285.076 67.132C283.588 67.4508 280.778 68.0529 280.589 68.0293Z" fill="#CE5800"/>
<path d="M295.041 62.6213C295.041 62.6213 292.821 61.6767 290.531 60.6967L299.516 62.7158L302.185 61.1808V59.9528L303.247 60.5668L311.005 56.0918V54.0491L312.776 55.0763L314.689 53.9664V51.2861C314.689 51.2861 310.981 50.5895 310.674 50.4005C310.604 50.3533 309.931 50.0109 308.951 49.5032L318.798 51.5813L320.864 50.3887V47.7084L318.078 47.614L315.02 47.0118L313.815 46.3151L315.055 46.7048C315.055 46.7048 314.925 45.9373 314.701 45.6539C314.476 45.3823 305.361 40.9545 305.361 40.9545V43.6348L309.246 45.8783L306.943 45.4296L304.452 46.1144L307.309 47.366L302.929 46.4332C300.862 45.3823 299.197 44.5322 299.197 44.5322V47.0944L293.672 48.8065L294.947 49.6685L292.42 51.1208L289.669 50.0227V52.703L299.02 58.0991L289.421 56.9419L289.87 58.713H289.846L288.394 53.4351L287.296 54.0727L287.248 53.2698L285.631 52.3488V55.0291L286.941 59.1263C286.15 58.7839 285.631 58.5595 285.631 58.5477C285.654 58.5123 279.408 55.9383 279.408 55.9383V58.6186L293.01 66.4706L295.065 65.278V62.6213H295.041ZM299.516 49.6803V47.4132L310.32 53.6476L302.681 56.3751L300.579 55.1944L304.44 52.9628V50.2825L300.39 51.3333L301.075 52.2543L298.253 53.8838L295.573 52.3724L295.136 52.1953L299.516 49.6803Z" fill="#CE5800"/>
<path d="M315.208 72.3391V71.0285L313.036 70.3318V73.0121C313.449 73.3428 313.756 73.6616 313.981 73.945L313.662 74.3582L305.302 72.8823L303.566 71.2883C303.696 71.0049 303.944 70.7569 304.322 70.5444C304.865 70.2256 305.538 70.0721 306.329 70.0957C307.12 70.1075 307.935 70.2846 308.762 70.627L310.143 69.0684V66.3881C310.143 66.3881 305.113 66.3999 304.96 66.3881C304.794 66.3763 302.409 68.2065 302.409 68.2065L303.188 68.6434C302.799 68.7732 302.433 68.9385 302.078 69.1393C301.89 69.2455 301.76 69.3754 301.594 69.4935L301.181 69.1157L300.378 68.8087V71.3355V71.5952L300.414 71.6189C300.425 71.8078 300.425 72.0085 300.485 72.2092C300.744 73.0476 301.465 73.8977 302.598 74.7715C301.37 74.2401 300.461 73.8505 300.366 73.8269C300.036 73.7206 294.498 71.3827 294.498 71.3827V74.063L308.1 81.915L310.167 80.7225V78.0658C310.379 78.1012 310.604 78.1484 310.816 78.1721C312.918 78.3846 314.654 78.0894 316.011 77.3101C317.109 76.6725 317.641 75.9404 317.641 75.1257V72.4454L315.834 71.4772L315.208 72.3391Z" fill="#CE5800"/>
<path d="M328.445 66.0449C328.445 66.0449 327.89 66.3755 327.311 66.7297C326.898 66.2811 326.355 65.8324 325.694 65.3719C324.891 64.2029 323.084 61.7352 323.084 61.7352L316.212 60.4009L312.28 62.5263L312.694 63.3174C312.635 63.3528 312.564 63.3646 312.516 63.4C312.174 63.6007 311.902 63.8133 311.654 64.0258L310.663 63.2701L310.674 65.6435C310.674 65.6789 310.674 65.7143 310.674 65.7497V65.9268L310.698 65.9386C310.71 66.104 310.71 66.2693 310.757 66.4582C310.911 67.0013 311.206 67.5445 311.678 68.0876C312.304 68.8079 313.319 69.5754 314.701 70.3665C316.862 71.6181 319.011 72.3383 321.148 72.5391C323.273 72.7398 325.103 72.3974 326.615 71.5236C327.772 70.8506 328.362 70.0713 328.421 69.1857L328.445 69.1739V66.0449V66.0449ZM314.89 64.7579C315.74 64.2738 316.803 64.0967 318.078 64.2502C319.353 64.3918 320.782 64.9232 322.34 65.8206C323.769 66.6471 324.631 67.4146 324.985 68.1112C323.698 68.737 321.738 69.6226 321.738 69.6226L314.689 66.3637L313.981 65.8206C314.087 65.4073 314.37 65.0531 314.89 64.7579Z" fill="#CE5800"/>
<path d="M275.712 73.7805L264.413 67.2509L261.39 68.9984L259.087 67.6642L267.199 62.9884L269.502 64.3226L266.479 66.0702L277.779 72.5997L275.712 73.7805Z" fill="#F9B815"/>
<path d="M274.732 66.5898C273.351 65.7869 272.335 65.0312 271.71 64.311C271.249 63.7796 270.942 63.2365 270.789 62.6815C270.647 62.1266 270.67 61.6425 270.883 61.2056C271.155 60.6388 271.71 60.1075 272.548 59.6234C274.047 58.7496 275.878 58.419 278.027 58.6198C280.176 58.8205 282.348 59.5525 284.568 60.8278C286.764 62.0912 288.039 63.3428 288.382 64.5825C288.724 65.8105 288.157 66.8614 286.658 67.7234C285.135 68.5971 283.316 68.9395 281.191 68.7388C279.042 68.5617 276.905 67.8414 274.732 66.5898ZM276.763 65.3146C278.298 66.2002 279.739 66.7315 281.061 66.8732C282.384 67.0267 283.47 66.8614 284.285 66.3891C285.111 65.9168 285.383 65.3028 285.123 64.5353C284.863 63.7796 283.942 62.9413 282.36 62.0321C280.801 61.1348 279.373 60.6034 278.109 60.4617C276.822 60.32 275.76 60.4853 274.909 60.9694C274.059 61.4654 273.764 62.0794 274.024 62.8232C274.284 63.5789 275.205 64.4054 276.763 65.3146Z" fill="#F9B815"/>
<path d="M292.987 63.816L279.384 55.964L281.451 54.7714L287.484 58.2546L285.607 52.3627L288.37 50.7569L289.822 56.0348L302.173 58.4908L299.505 60.0258L290.318 57.9594L290.92 60.2383L295.029 62.6116L292.987 63.816Z" fill="#F9B815"/>
<path d="M303.248 57.8873L289.645 50.0353L297.214 45.6665L299.516 47.0007L294.014 50.177L297.025 51.9127L302.149 48.9608L304.44 50.2832L299.316 53.2351L303.023 55.3723L308.726 52.078L311.017 53.4004L303.248 57.8873Z" fill="#F9B815"/>
<path d="M312.776 52.3852L299.174 44.5332L301.181 43.3761L314.441 46.2099L305.361 40.9673L307.274 39.8574L320.876 47.7095L318.81 48.902L305.833 46.1627L314.701 51.2871L312.776 52.3852Z" fill="#F9B815"/>
<path d="M308.124 79.2597L294.522 71.4077L296.588 70.2151L310.19 78.0671L308.124 79.2597Z" fill="#F9B815"/>
<path d="M313.036 70.3442L315.87 69.683C317.05 70.7102 317.641 71.6548 317.653 72.4814C317.664 73.3079 317.121 74.04 316.023 74.6658C314.665 75.4451 312.941 75.7284 310.828 75.5277C308.714 75.3152 306.601 74.5949 304.452 73.3551C302.185 72.0445 300.862 70.7811 300.485 69.5531C300.107 68.3251 300.638 67.2979 302.067 66.4713C303.318 65.7511 304.818 65.4559 306.577 65.5621C307.628 65.633 308.809 65.9164 310.119 66.4005L308.738 67.9591C307.911 67.6167 307.109 67.4395 306.306 67.4277C305.515 67.4159 304.842 67.5694 304.298 67.8764C303.543 68.3133 303.295 68.8801 303.543 69.5649C303.791 70.2497 304.735 71.0645 306.353 72.0091C308.077 73.0009 309.529 73.5795 310.722 73.733C311.914 73.8865 312.882 73.7448 313.626 73.3197C314.169 73.0009 314.417 72.5994 314.347 72.1035C314.299 71.5958 313.862 71.0172 313.036 70.3442Z" fill="#F9B815"/>
<path d="M314.701 67.6877C313.319 66.8848 312.304 66.1291 311.678 65.4088C311.218 64.8775 310.911 64.3344 310.757 63.7794C310.615 63.2244 310.639 62.7403 310.852 62.3035C311.135 61.7367 311.678 61.2054 312.516 60.7213C314.016 59.8475 315.846 59.5169 317.983 59.7176C320.132 59.9183 322.305 60.6504 324.525 61.9256C326.721 63.2008 327.984 64.4406 328.338 65.6804C328.681 66.9084 328.102 67.9593 326.603 68.8212C325.091 69.695 323.261 70.0374 321.136 69.8367C319.011 69.6596 316.873 68.9393 314.701 67.6877ZM316.732 66.4125C318.279 67.298 319.707 67.8294 321.041 67.9711C322.364 68.1246 323.438 67.9593 324.265 67.487C325.091 67.0147 325.363 66.4007 325.103 65.6332C324.843 64.8775 323.923 64.0392 322.34 63.13C320.782 62.2326 319.365 61.7013 318.078 61.5596C316.803 61.4061 315.728 61.5832 314.89 62.0673C314.04 62.5632 313.744 63.1772 314.004 63.9211C314.264 64.6768 315.173 65.5033 316.732 66.4125Z" fill="#F9B815"/>
<mask id="mask14_1_2071" style="mask-type:alpha" maskUnits="userSpaceOnUse" x="259" y="62" width="19" height="12">
<path d="M275.712 73.7815L264.412 67.2519L261.39 68.9994L259.087 67.6651L267.199 62.9894L269.502 64.3236L266.479 66.0711L277.779 72.6007L275.712 73.7815Z" fill="url(#paint69_linear_1_2071)"/>
</mask>
<g mask="url(#mask14_1_2071)">
<path d="M275.712 73.7805L264.413 67.2509L261.39 68.9984L259.087 67.6642L267.199 62.9884L269.502 64.3227L266.479 66.0702L277.779 72.5998L275.712 73.7805Z" fill="url(#paint70_linear_1_2071)"/>
</g>
<mask id="mask15_1_2071" style="mask-type:alpha" maskUnits="userSpaceOnUse" x="270" y="58" width="19" height="11">
<path d="M274.732 66.5898C273.351 65.7869 272.335 65.0312 271.71 64.311C271.249 63.7796 270.942 63.2365 270.789 62.6815C270.647 62.1266 270.67 61.6425 270.883 61.2056C271.155 60.6388 271.71 60.1075 272.548 59.6234C274.047 58.7496 275.878 58.419 278.027 58.6198C280.176 58.8205 282.348 59.5525 284.568 60.8278C286.764 62.0912 288.039 63.3428 288.382 64.5825C288.724 65.8105 288.157 66.8614 286.658 67.7234C285.135 68.5971 283.316 68.9395 281.191 68.7388C279.042 68.5617 276.893 67.8414 274.732 66.5898ZM276.763 65.3146C278.298 66.2002 279.739 66.7315 281.061 66.8732C282.384 67.0267 283.47 66.8614 284.285 66.3891C285.111 65.9168 285.383 65.3028 285.123 64.5353C284.863 63.7796 283.942 62.9413 282.36 62.0321C280.801 61.1348 279.373 60.6034 278.109 60.4617C276.822 60.32 275.76 60.4853 274.909 60.9694C274.059 61.4654 273.764 62.0794 274.024 62.8232C274.284 63.5789 275.193 64.4054 276.763 65.3146Z" fill="url(#paint71_linear_1_2071)"/>
</mask>
<g mask="url(#mask15_1_2071)">
<path d="M274.732 66.5898C273.351 65.7869 272.335 65.0312 271.71 64.311C271.249 63.7796 270.942 63.2365 270.789 62.6815C270.647 62.1266 270.67 61.6425 270.883 61.2056C271.155 60.6388 271.71 60.1075 272.548 59.6234C274.047 58.7496 275.878 58.419 278.027 58.6198C280.176 58.8205 282.348 59.5525 284.568 60.8278C286.764 62.0912 288.039 63.3428 288.382 64.5825C288.724 65.8105 288.157 66.8614 286.658 67.7234C285.135 68.5971 283.316 68.9395 281.191 68.7388C279.042 68.5617 276.893 67.8414 274.732 66.5898ZM276.763 65.3146C278.298 66.2002 279.739 66.7315 281.061 66.8732C282.384 67.0267 283.47 66.8614 284.285 66.3891C285.111 65.9168 285.383 65.3028 285.123 64.5353C284.863 63.7796 283.942 62.9413 282.36 62.0321C280.801 61.1348 279.373 60.6034 278.109 60.4617C276.822 60.32 275.76 60.4853 274.909 60.9694C274.059 61.4654 273.764 62.0794 274.024 62.8232C274.284 63.5789 275.193 64.4054 276.763 65.3146Z" fill="url(#paint72_linear_1_2071)"/>
</g>
<mask id="mask16_1_2071" style="mask-type:alpha" maskUnits="userSpaceOnUse" x="279" y="50" width="24" height="14">
<path d="M292.975 63.8143L279.373 55.9623L281.439 54.7697L287.473 58.253L285.595 52.361L288.358 50.7552L289.811 56.0332L302.161 58.4891L299.493 60.0241L290.306 57.9578L290.909 60.2366L295.018 62.6099L292.975 63.8143Z" fill="url(#paint73_linear_1_2071)"/>
</mask>
<g mask="url(#mask16_1_2071)">
<path d="M292.975 63.816L279.373 55.964L281.439 54.7714L287.473 58.2546L285.595 52.3627L288.358 50.7569L289.811 56.0348L302.161 58.4908L299.493 60.0258L290.306 57.9594L290.909 60.2383L295.018 62.6116L292.975 63.816Z" fill="url(#paint74_linear_1_2071)"/>
</g>
<mask id="mask17_1_2071" style="mask-type:alpha" maskUnits="userSpaceOnUse" x="289" y="45" width="22" height="13">
<path d="M303.236 57.8874L289.633 50.0354L297.202 45.6666L299.505 47.0009L294.002 50.1771L297.013 51.9128L302.138 48.9609L304.428 50.2834L299.304 53.2352L303.011 55.3724L308.703 52.0781L310.993 53.4005L303.236 57.8874Z" fill="url(#paint75_linear_1_2071)"/>
</mask>
<g mask="url(#mask17_1_2071)">
<path d="M303.236 57.8873L289.633 50.0353L297.202 45.6665L299.504 47.0007L294.002 50.177L297.013 51.9127L302.138 48.9608L304.428 50.2832L299.304 53.2351L303.011 55.3723L308.703 52.078L310.993 53.4004L303.236 57.8873Z" fill="url(#paint76_linear_1_2071)"/>
</g>
<mask id="mask18_1_2071" style="mask-type:alpha" maskUnits="userSpaceOnUse" x="299" y="39" width="22" height="14">
<path d="M312.764 52.3859L299.162 44.5339L301.169 43.3768L314.429 46.2106L305.349 40.9681L307.262 39.8582L320.864 47.7102L318.798 48.9027L305.822 46.1516L314.689 51.2761L312.764 52.3859Z" fill="url(#paint77_linear_1_2071)"/>
</mask>
<g mask="url(#mask18_1_2071)">
<path d="M312.764 52.3852L299.162 44.5332L301.169 43.3761L314.429 46.2099L305.349 40.9673L307.262 39.8574L320.864 47.7095L318.798 48.902L305.822 46.1509L314.689 51.2753L312.764 52.3852Z" fill="url(#paint78_linear_1_2071)"/>
</g>
<mask id="mask19_1_2071" style="mask-type:alpha" maskUnits="userSpaceOnUse" x="294" y="70" width="17" height="10">
<path d="M308.112 79.2589L294.51 71.4069L296.576 70.2143L310.178 78.0663L308.112 79.2589Z" fill="url(#paint79_linear_1_2071)"/>
</mask>
<g mask="url(#mask19_1_2071)">
<path d="M308.112 79.2597L294.51 71.4077L296.576 70.2151L310.179 78.0671L308.112 79.2597Z" fill="url(#paint80_linear_1_2071)"/>
</g>
<mask id="mask20_1_2071" style="mask-type:alpha" maskUnits="userSpaceOnUse" x="300" y="65" width="18" height="11">
<path d="M313.024 70.3455L315.858 69.6843C317.039 70.7115 317.629 71.6561 317.641 72.4827C317.653 73.3092 317.11 74.0413 316.011 74.6671C314.654 75.4464 312.93 75.7297 310.828 75.529C308.714 75.3165 306.601 74.5962 304.452 73.3564C302.185 72.0458 300.862 70.7824 300.485 69.5544C300.107 68.3264 300.638 67.2992 302.067 66.4726C303.318 65.7524 304.818 65.4572 306.577 65.5634C307.628 65.6343 308.809 65.9177 310.12 66.4018L308.738 67.9604C307.912 67.618 307.097 67.4408 306.306 67.429C305.515 67.4172 304.842 67.5707 304.298 67.8777C303.543 68.3146 303.295 68.8814 303.543 69.5662C303.803 70.251 304.735 71.0658 306.353 72.0104C308.077 73.0022 309.529 73.5808 310.722 73.7343C311.914 73.8878 312.883 73.7461 313.626 73.321C314.17 73.0022 314.417 72.6007 314.347 72.1048C314.299 71.5971 313.851 71.0185 313.024 70.3455Z" fill="url(#paint81_linear_1_2071)"/>
</mask>
<g mask="url(#mask20_1_2071)">
<path d="M313.024 70.3442L315.858 69.683C317.039 70.7102 317.629 71.6548 317.641 72.4814C317.653 73.3079 317.11 74.04 316.011 74.6658C314.654 75.4451 312.93 75.7284 310.828 75.5277C308.714 75.3152 306.601 74.5949 304.452 73.3551C302.185 72.0445 300.862 70.7811 300.485 69.5531C300.107 68.3251 300.638 67.2979 302.067 66.4713C303.318 65.7511 304.818 65.4559 306.577 65.5621C307.628 65.633 308.809 65.9164 310.119 66.4005L308.738 67.9591C307.911 67.6167 307.097 67.4395 306.306 67.4277C305.515 67.4159 304.842 67.5694 304.298 67.8764C303.543 68.3133 303.295 68.8801 303.543 69.5649C303.802 70.2497 304.735 71.0645 306.353 72.0091C308.077 73.0009 309.529 73.5795 310.722 73.733C311.914 73.8865 312.882 73.7448 313.626 73.3197C314.169 73.0009 314.417 72.5994 314.347 72.1035C314.299 71.5958 313.851 71.0172 313.024 70.3442Z" fill="url(#paint82_linear_1_2071)"/>
</g>
<mask id="mask21_1_2071" style="mask-type:alpha" maskUnits="userSpaceOnUse" x="310" y="59" width="19" height="11">
<path d="M314.701 67.6869C313.319 66.884 312.304 66.1283 311.678 65.4081C311.218 64.8767 310.911 64.3336 310.757 63.7786C310.615 63.2237 310.639 62.7395 310.852 62.3027C311.135 61.7359 311.678 61.2046 312.516 60.7205C314.016 59.8467 315.846 59.5161 317.983 59.7168C320.132 59.9175 322.305 60.6496 324.525 61.9248C326.721 63.2 327.984 64.4398 328.339 65.6796C328.681 66.9076 328.102 67.9585 326.603 68.8204C325.091 69.6942 323.261 70.0366 321.136 69.8359C319.011 69.6588 316.862 68.9385 314.701 67.6869ZM316.72 66.4117C318.267 67.2972 319.695 67.8168 321.03 67.9703C322.352 68.1238 323.427 67.9585 324.253 67.4862C325.08 67.0139 325.351 66.3999 325.091 65.6324C324.832 64.8767 323.911 64.0384 322.329 63.1292C320.77 62.2318 319.353 61.7005 318.066 61.5588C316.791 61.4053 315.716 61.5824 314.878 62.0665C314.028 62.5624 313.733 63.1764 313.992 63.9203C314.252 64.676 315.161 65.5025 316.72 66.4117Z" fill="url(#paint83_linear_1_2071)"/>
</mask>
<g mask="url(#mask21_1_2071)">
<path d="M314.701 67.6877C313.319 66.8848 312.304 66.1291 311.678 65.4088C311.218 64.8775 310.911 64.3344 310.757 63.7794C310.615 63.2244 310.639 62.7403 310.852 62.3035C311.135 61.7367 311.678 61.2054 312.516 60.7213C314.016 59.8475 315.846 59.5169 317.983 59.7176C320.132 59.9183 322.305 60.6504 324.525 61.9256C326.721 63.2008 327.984 64.4406 328.338 65.6804C328.681 66.9084 328.102 67.9593 326.603 68.8212C325.091 69.695 323.261 70.0374 321.136 69.8367C319.011 69.6596 316.862 68.9393 314.701 67.6877ZM316.72 66.4125C318.267 67.298 319.695 67.8176 321.03 67.9711C322.352 68.1246 323.427 67.9593 324.253 67.487C325.08 67.0147 325.351 66.4007 325.091 65.6332C324.832 64.8775 323.911 64.0392 322.328 63.13C320.77 62.2326 319.353 61.7013 318.066 61.5596C316.791 61.4061 315.716 61.5832 314.878 62.0673C314.028 62.5632 313.733 63.1772 313.992 63.9211C314.252 64.6768 315.161 65.5033 316.72 66.4125Z" fill="url(#paint84_linear_1_2071)"/>
</g>
<defs>
<filter id="filter0_d_1_2071" x="-28.2816" y="154.559" width="610.622" height="421.293" filterUnits="userSpaceOnUse" color-interpolation-filters="sRGB">
<feFlood flood-opacity="0" result="BackgroundImageFix"/>
<feColorMatrix in="SourceAlpha" type="matrix" values="0 0 0 0 0 0 0 0 0 0 0 0 0 0 0 0 0 0 127 0" result="hardAlpha"/>
<feOffset dy="24"/>
<feGaussianBlur stdDeviation="25.5"/>
<feComposite in2="hardAlpha" operator="out"/>
<feColorMatrix type="matrix" values="0 0 0 0 0 0 0 0 0 0 0 0 0 0 0 0 0 0 0.25 0"/>
<feBlend mode="normal" in2="BackgroundImageFix" result="effect1_dropShadow_1_2071"/>
<feBlend mode="normal" in="SourceGraphic" in2="effect1_dropShadow_1_2071" result="shape"/>
</filter>
<linearGradient id="paint0_linear_1_2071" x1="301.997" y1="162.177" x2="301.997" y2="634.48" gradientUnits="userSpaceOnUse">
<stop/>
<stop offset="1" stop-color="white"/>
</linearGradient>
<linearGradient id="paint1_linear_1_2071" x1="338.928" y1="353.989" x2="222.681" y2="353.989" gradientUnits="userSpaceOnUse">
<stop stop-color="#BA83FF"/>
<stop offset="1" stop-color="#D8ABFF"/>
</linearGradient>
<linearGradient id="paint2_linear_1_2071" x1="1269.42" y1="907.105" x2="34.7288" y2="187.116" gradientUnits="userSpaceOnUse">
<stop stop-color="#9C74FF"/>
<stop offset="1" stop-color="#FFF6FF"/>
</linearGradient>
<linearGradient id="paint3_linear_1_2071" x1="141.823" y1="218.238" x2="135.543" y2="207.174" gradientUnits="userSpaceOnUse">
<stop stop-color="#886AFF"/>
<stop offset="1" stop-color="#D3C2FF"/>
</linearGradient>
<linearGradient id="paint4_linear_1_2071" x1="92.0534" y1="311.997" x2="99.6976" y2="237.083" gradientUnits="userSpaceOnUse">
<stop stop-color="#3124FF"/>
<stop offset="1" stop-color="#00FFE2"/>
</linearGradient>
<linearGradient id="paint5_linear_1_2071" x1="105.156" y1="287.395" x2="110.672" y2="295.764" gradientUnits="userSpaceOnUse">
<stop stop-color="#8942FF"/>
<stop offset="1" stop-color="#D3C2FF"/>
</linearGradient>
<linearGradient id="paint6_linear_1_2071" x1="83.0643" y1="317.271" x2="90.7086" y2="242.357" gradientUnits="userSpaceOnUse">
<stop stop-color="#3124FF"/>
<stop offset="1" stop-color="#00FFE2"/>
</linearGradient>
<linearGradient id="paint7_linear_1_2071" x1="92.0353" y1="312.14" x2="99.6795" y2="237.226" gradientUnits="userSpaceOnUse">
<stop stop-color="#3124FF"/>
<stop offset="1" stop-color="#00FFE2"/>
</linearGradient>
<linearGradient id="paint8_linear_1_2071" x1="124.124" y1="331.441" x2="133.693" y2="265.656" gradientUnits="userSpaceOnUse">
<stop stop-color="#4F47FF"/>
<stop offset="1" stop-color="#00FFFF"/>
</linearGradient>
<linearGradient id="paint9_linear_1_2071" x1="126.33" y1="332.959" x2="135.898" y2="267.175" gradientUnits="userSpaceOnUse">
<stop stop-color="#4F47FF"/>
<stop offset="1" stop-color="#00FFFF"/>
</linearGradient>
<linearGradient id="paint10_linear_1_2071" x1="315.037" y1="276.379" x2="279.357" y2="276.379" gradientUnits="userSpaceOnUse">
<stop stop-color="#867CE2"/>
<stop offset="1" stop-color="#B590FF"/>
</linearGradient>
<linearGradient id="paint11_linear_1_2071" x1="869.841" y1="548.882" x2="258.93" y2="105.112" gradientUnits="userSpaceOnUse">
<stop stop-color="#6318FF"/>
<stop offset="0.6085" stop-color="#C29FED"/>
<stop offset="1" stop-color="#FFF6FF"/>
</linearGradient>
<linearGradient id="paint12_linear_1_2071" x1="267.588" y1="347.652" x2="137.477" y2="254.431" gradientUnits="userSpaceOnUse">
<stop stop-color="#6322FF"/>
<stop offset="1" stop-color="#EAD6E2"/>
</linearGradient>
<linearGradient id="paint13_linear_1_2071" x1="514.306" y1="727.423" x2="123.309" y2="672.108" gradientUnits="userSpaceOnUse">
<stop stop-color="#6318FF"/>
<stop offset="1" stop-color="white"/>
</linearGradient>
<linearGradient id="paint14_linear_1_2071" x1="267.478" y1="314.149" x2="137.367" y2="220.927" gradientUnits="userSpaceOnUse">
<stop stop-color="#6322FF"/>
<stop offset="1" stop-color="#EAD6E2"/>
</linearGradient>
<linearGradient id="paint15_linear_1_2071" x1="518.796" y1="699.978" x2="127.798" y2="644.663" gradientUnits="userSpaceOnUse">
<stop stop-color="#6318FF"/>
<stop offset="1" stop-color="white"/>
</linearGradient>
<linearGradient id="paint16_linear_1_2071" x1="267.697" y1="280.737" x2="137.586" y2="187.516" gradientUnits="userSpaceOnUse">
<stop stop-color="#6322FF"/>
<stop offset="1" stop-color="#EAD6E2"/>
</linearGradient>
<linearGradient id="paint17_linear_1_2071" x1="510.104" y1="654.828" x2="119.104" y2="599.513" gradientUnits="userSpaceOnUse">
<stop stop-color="#6318FF"/>
<stop offset="1" stop-color="white"/>
</linearGradient>
<linearGradient id="paint18_linear_1_2071" x1="267.697" y1="247.329" x2="137.586" y2="154.107" gradientUnits="userSpaceOnUse">
<stop stop-color="#6322FF"/>
<stop offset="1" stop-color="#EAD6E2"/>
</linearGradient>
<linearGradient id="paint19_linear_1_2071" x1="508.672" y1="619.534" x2="117.673" y2="564.219" gradientUnits="userSpaceOnUse">
<stop stop-color="#6318FF"/>
<stop offset="1" stop-color="white"/>
</linearGradient>
<linearGradient id="paint20_linear_1_2071" x1="408.233" y1="181.912" x2="314.3" y2="234.097" gradientUnits="userSpaceOnUse">
<stop stop-color="#0024FF"/>
<stop offset="1" stop-color="#00FFE2"/>
</linearGradient>
<linearGradient id="paint21_linear_1_2071" x1="398.024" y1="207.997" x2="367.707" y2="225.392" gradientUnits="userSpaceOnUse">
<stop stop-color="#0024FF"/>
<stop offset="1" stop-color="#00FFE2"/>
</linearGradient>
<linearGradient id="paint22_linear_1_2071" x1="375.971" y1="220.476" x2="314.916" y2="256.055" gradientUnits="userSpaceOnUse">
<stop stop-color="#0024FF"/>
<stop offset="1" stop-color="#00FFE2"/>
</linearGradient>
<linearGradient id="paint23_linear_1_2071" x1="403.168" y1="225.43" x2="339.551" y2="262.208" gradientUnits="userSpaceOnUse">
<stop stop-color="#0024FF"/>
<stop offset="1" stop-color="#00FFE2"/>
</linearGradient>
<linearGradient id="paint24_linear_1_2071" x1="339.355" y1="262.007" x2="316.99" y2="275.425" gradientUnits="userSpaceOnUse">
<stop stop-color="#0024FF"/>
<stop offset="1" stop-color="#00FFE2"/>
</linearGradient>
<linearGradient id="paint25_linear_1_2071" x1="403.816" y1="244.733" x2="317.834" y2="297.416" gradientUnits="userSpaceOnUse">
<stop stop-color="#0024FF"/>
<stop offset="1" stop-color="#00FFE2"/>
</linearGradient>
<linearGradient id="paint26_linear_1_2071" x1="398.295" y1="270.483" x2="367.89" y2="288.868" gradientUnits="userSpaceOnUse">
<stop stop-color="#0024FF"/>
<stop offset="1" stop-color="#00FFE2"/>
</linearGradient>
<linearGradient id="paint27_linear_1_2071" x1="377.415" y1="283.891" x2="317.278" y2="317.19" gradientUnits="userSpaceOnUse">
<stop stop-color="#0024FF"/>
<stop offset="1" stop-color="#00FFE2"/>
</linearGradient>
<linearGradient id="paint28_linear_1_2071" x1="403.99" y1="287.833" x2="337.888" y2="326.599" gradientUnits="userSpaceOnUse">
<stop stop-color="#0024FF"/>
<stop offset="1" stop-color="#00FFE2"/>
</linearGradient>
<linearGradient id="paint29_linear_1_2071" x1="337.859" y1="324.917" x2="314.5" y2="341.318" gradientUnits="userSpaceOnUse">
<stop stop-color="#0024FF"/>
<stop offset="1" stop-color="#00FFE2"/>
</linearGradient>
<linearGradient id="paint30_linear_1_2071" x1="351.106" y1="333.236" x2="385.543" y2="391.489" gradientUnits="userSpaceOnUse">
<stop stop-color="#6322E3"/>
<stop offset="1" stop-color="#EAD6E2"/>
</linearGradient>
<linearGradient id="paint31_linear_1_2071" x1="380.477" y1="315.141" x2="434.402" y2="342.227" gradientUnits="userSpaceOnUse">
<stop stop-color="#3E00D1"/>
<stop offset="1" stop-color="#EAD6E2"/>
</linearGradient>
<linearGradient id="paint32_linear_1_2071" x1="208.501" y1="410.57" x2="162.631" y2="437.987" gradientUnits="userSpaceOnUse">
<stop/>
<stop offset="1" stop-color="white"/>
</linearGradient>
<linearGradient id="paint33_linear_1_2071" x1="208.501" y1="410.57" x2="162.631" y2="437.988" gradientUnits="userSpaceOnUse">
<stop stop-color="#FFD9EA"/>
<stop offset="1" stop-color="white"/>
</linearGradient>
<linearGradient id="paint34_linear_1_2071" x1="195.009" y1="406.01" x2="149.139" y2="433.427" gradientUnits="userSpaceOnUse">
<stop/>
<stop offset="1" stop-color="white"/>
</linearGradient>
<linearGradient id="paint35_linear_1_2071" x1="195.009" y1="406.01" x2="149.139" y2="433.427" gradientUnits="userSpaceOnUse">
<stop stop-color="#FFD9EA"/>
<stop offset="1" stop-color="white"/>
</linearGradient>
<linearGradient id="paint36_linear_1_2071" x1="251.927" y1="428.541" x2="247.035" y2="428.541" gradientUnits="userSpaceOnUse">
<stop stop-color="#867CE2"/>
<stop offset="1" stop-color="#B49DFF"/>
</linearGradient>
<linearGradient id="paint37_linear_1_2071" x1="357.056" y1="486.371" x2="239.369" y2="400.882" gradientUnits="userSpaceOnUse">
<stop stop-color="#6318FF"/>
<stop offset="1" stop-color="white"/>
</linearGradient>
<linearGradient id="paint38_linear_1_2071" x1="279.428" y1="429.119" x2="274.536" y2="429.119" gradientUnits="userSpaceOnUse">
<stop stop-color="#867CE2"/>
<stop offset="1" stop-color="#B49DFF"/>
</linearGradient>
<linearGradient id="paint39_linear_1_2071" x1="384.557" y1="471.486" x2="266.87" y2="385.997" gradientUnits="userSpaceOnUse">
<stop stop-color="#6318FF"/>
<stop offset="1" stop-color="white"/>
</linearGradient>
<linearGradient id="paint40_linear_1_2071" x1="454.582" y1="294.96" x2="449.168" y2="294.96" gradientUnits="userSpaceOnUse">
<stop stop-color="#867CE2"/>
<stop offset="1" stop-color="#B49DFF"/>
</linearGradient>
<linearGradient id="paint41_linear_1_2071" x1="570.943" y1="341.852" x2="440.682" y2="247.229" gradientUnits="userSpaceOnUse">
<stop stop-color="#6318FF"/>
<stop offset="1" stop-color="white"/>
</linearGradient>
<linearGradient id="paint42_linear_1_2071" x1="119.256" y1="370.691" x2="114.88" y2="370.691" gradientUnits="userSpaceOnUse">
<stop stop-color="#867CE2"/>
<stop offset="1" stop-color="#B49DFF"/>
</linearGradient>
<linearGradient id="paint43_linear_1_2071" x1="213.313" y1="422.43" x2="108.021" y2="345.945" gradientUnits="userSpaceOnUse">
<stop stop-color="#6318FF"/>
<stop offset="1" stop-color="white"/>
</linearGradient>
<linearGradient id="paint44_linear_1_2071" x1="312.256" y1="129.784" x2="279.354" y2="129.784" gradientUnits="userSpaceOnUse">
<stop stop-color="#8161E2"/>
<stop offset="1" stop-color="#CACCFF"/>
</linearGradient>
<linearGradient id="paint45_linear_1_2071" x1="312.256" y1="129.784" x2="279.354" y2="129.784" gradientUnits="userSpaceOnUse">
<stop stop-color="#8161E2"/>
<stop offset="1" stop-color="#9554FF"/>
</linearGradient>
<linearGradient id="paint46_linear_1_2071" x1="346.73" y1="305.342" x2="466.953" y2="479.236" gradientUnits="userSpaceOnUse">
<stop stop-color="#3124FF"/>
<stop offset="1" stop-color="#00FFE2"/>
</linearGradient>
<linearGradient id="paint47_linear_1_2071" x1="257.914" y1="379.922" x2="410.45" y2="389.395" gradientUnits="userSpaceOnUse">
<stop/>
<stop offset="1" stop-color="white"/>
</linearGradient>
<linearGradient id="paint48_linear_1_2071" x1="257.914" y1="379.921" x2="410.45" y2="389.394" gradientUnits="userSpaceOnUse">
<stop stop-color="#D10B57"/>
<stop offset="1" stop-color="white"/>
</linearGradient>
<linearGradient id="paint49_linear_1_2071" x1="244.201" y1="440.964" x2="386.434" y2="351.206" gradientUnits="userSpaceOnUse">
<stop/>
<stop offset="1" stop-color="white"/>
</linearGradient>
<linearGradient id="paint50_linear_1_2071" x1="244.201" y1="440.963" x2="386.434" y2="351.205" gradientUnits="userSpaceOnUse">
<stop stop-color="#D10B57"/>
<stop offset="1" stop-color="white"/>
</linearGradient>
<linearGradient id="paint51_linear_1_2071" x1="322.785" y1="447.154" x2="400.116" y2="379.49" gradientUnits="userSpaceOnUse">
<stop/>
<stop offset="1" stop-color="white"/>
</linearGradient>
<linearGradient id="paint52_linear_1_2071" x1="322.785" y1="447.156" x2="400.116" y2="379.492" gradientUnits="userSpaceOnUse">
<stop stop-color="#D10B57"/>
<stop offset="1" stop-color="white"/>
</linearGradient>
<linearGradient id="paint53_linear_1_2071" x1="284.202" y1="428.444" x2="408.344" y2="350.103" gradientUnits="userSpaceOnUse">
<stop/>
<stop offset="1" stop-color="white"/>
</linearGradient>
<linearGradient id="paint54_linear_1_2071" x1="284.202" y1="428.444" x2="408.344" y2="350.103" gradientUnits="userSpaceOnUse">
<stop stop-color="#D10B57"/>
<stop offset="1" stop-color="white"/>
</linearGradient>
<linearGradient id="paint55_linear_1_2071" x1="353.576" y1="375.124" x2="411.315" y2="338.687" gradientUnits="userSpaceOnUse">
<stop/>
<stop offset="1" stop-color="white"/>
</linearGradient>
<linearGradient id="paint56_linear_1_2071" x1="353.576" y1="375.124" x2="411.315" y2="338.687" gradientUnits="userSpaceOnUse">
<stop stop-color="#D10B57"/>
<stop offset="1" stop-color="white"/>
</linearGradient>
<linearGradient id="paint57_linear_1_2071" x1="350.54" y1="404.672" x2="383.221" y2="367.157" gradientUnits="userSpaceOnUse">
<stop/>
<stop offset="1" stop-color="white"/>
</linearGradient>
<linearGradient id="paint58_linear_1_2071" x1="350.54" y1="404.67" x2="383.221" y2="367.156" gradientUnits="userSpaceOnUse">
<stop stop-color="#D10B57"/>
<stop offset="1" stop-color="white"/>
</linearGradient>
<linearGradient id="paint59_linear_1_2071" x1="147.686" y1="79.8167" x2="322.553" y2="90.6763" gradientUnits="userSpaceOnUse">
<stop/>
<stop offset="1" stop-color="white"/>
</linearGradient>
<linearGradient id="paint60_linear_1_2071" x1="147.686" y1="79.8168" x2="322.553" y2="90.6763" gradientUnits="userSpaceOnUse">
<stop stop-color="#D10B57"/>
<stop offset="1" stop-color="white"/>
</linearGradient>
<linearGradient id="paint61_linear_1_2071" x1="131.966" y1="149.794" x2="295.021" y2="46.895" gradientUnits="userSpaceOnUse">
<stop/>
<stop offset="1" stop-color="white"/>
</linearGradient>
<linearGradient id="paint62_linear_1_2071" x1="131.966" y1="149.795" x2="295.021" y2="46.896" gradientUnits="userSpaceOnUse">
<stop stop-color="#D10B57"/>
<stop offset="1" stop-color="white"/>
</linearGradient>
<linearGradient id="paint63_linear_1_2071" x1="222.054" y1="156.894" x2="310.706" y2="79.324" gradientUnits="userSpaceOnUse">
<stop/>
<stop offset="1" stop-color="white"/>
</linearGradient>
<linearGradient id="paint64_linear_1_2071" x1="222.054" y1="156.894" x2="310.706" y2="79.324" gradientUnits="userSpaceOnUse">
<stop stop-color="#D10B57"/>
<stop offset="1" stop-color="white"/>
</linearGradient>
<linearGradient id="paint65_linear_1_2071" x1="177.823" y1="135.444" x2="320.138" y2="45.6329" gradientUnits="userSpaceOnUse">
<stop/>
<stop offset="1" stop-color="white"/>
</linearGradient>
<linearGradient id="paint66_linear_1_2071" x1="177.823" y1="135.442" x2="320.138" y2="45.6314" gradientUnits="userSpaceOnUse">
<stop stop-color="#D10B57"/>
<stop offset="1" stop-color="white"/>
</linearGradient>
<linearGradient id="paint67_linear_1_2071" x1="257.353" y1="74.3165" x2="323.544" y2="32.5454" gradientUnits="userSpaceOnUse">
<stop/>
<stop offset="1" stop-color="white"/>
</linearGradient>
<linearGradient id="paint68_linear_1_2071" x1="257.353" y1="74.3181" x2="323.544" y2="32.547" gradientUnits="userSpaceOnUse">
<stop stop-color="#D10B57"/>
<stop offset="1" stop-color="white"/>
</linearGradient>
<linearGradient id="paint69_linear_1_2071" x1="241.905" y1="113.183" x2="269.515" y2="68.369" gradientUnits="userSpaceOnUse">
<stop/>
<stop offset="1" stop-color="white"/>
</linearGradient>
<linearGradient id="paint70_linear_1_2071" x1="241.905" y1="113.182" x2="269.515" y2="68.368" gradientUnits="userSpaceOnUse">
<stop stop-color="#D10B57"/>
<stop offset="1" stop-color="white"/>
</linearGradient>
<linearGradient id="paint71_linear_1_2071" x1="247.11" y1="116.389" x2="274.721" y2="71.5752" gradientUnits="userSpaceOnUse">
<stop/>
<stop offset="1" stop-color="white"/>
</linearGradient>
<linearGradient id="paint72_linear_1_2071" x1="247.11" y1="116.389" x2="274.721" y2="71.5752" gradientUnits="userSpaceOnUse">
<stop stop-color="#D10B57"/>
<stop offset="1" stop-color="white"/>
</linearGradient>
<linearGradient id="paint73_linear_1_2071" x1="252.341" y1="119.611" x2="279.952" y2="74.7972" gradientUnits="userSpaceOnUse">
<stop/>
<stop offset="1" stop-color="white"/>
</linearGradient>
<linearGradient id="paint74_linear_1_2071" x1="252.341" y1="119.612" x2="279.952" y2="74.7989" gradientUnits="userSpaceOnUse">
<stop stop-color="#D10B57"/>
<stop offset="1" stop-color="white"/>
</linearGradient>
<linearGradient id="paint75_linear_1_2071" x1="256.798" y1="122.358" x2="284.408" y2="77.544" gradientUnits="userSpaceOnUse">
<stop/>
<stop offset="1" stop-color="white"/>
</linearGradient>
<linearGradient id="paint76_linear_1_2071" x1="256.798" y1="122.358" x2="284.408" y2="77.5438" gradientUnits="userSpaceOnUse">
<stop stop-color="#D10B57"/>
<stop offset="1" stop-color="white"/>
</linearGradient>
<linearGradient id="paint77_linear_1_2071" x1="261.326" y1="125.147" x2="288.936" y2="80.3339" gradientUnits="userSpaceOnUse">
<stop/>
<stop offset="1" stop-color="white"/>
</linearGradient>
<linearGradient id="paint78_linear_1_2071" x1="261.326" y1="125.146" x2="288.936" y2="80.3331" gradientUnits="userSpaceOnUse">
<stop stop-color="#D10B57"/>
<stop offset="1" stop-color="white"/>
</linearGradient>
<linearGradient id="paint79_linear_1_2071" x1="268.544" y1="129.596" x2="296.155" y2="84.781" gradientUnits="userSpaceOnUse">
<stop/>
<stop offset="1" stop-color="white"/>
</linearGradient>
<linearGradient id="paint80_linear_1_2071" x1="268.544" y1="129.596" x2="296.155" y2="84.7818" gradientUnits="userSpaceOnUse">
<stop stop-color="#D10B57"/>
<stop offset="1" stop-color="white"/>
</linearGradient>
<linearGradient id="paint81_linear_1_2071" x1="271.536" y1="131.439" x2="299.147" y2="86.6253" gradientUnits="userSpaceOnUse">
<stop/>
<stop offset="1" stop-color="white"/>
</linearGradient>
<linearGradient id="paint82_linear_1_2071" x1="271.536" y1="131.438" x2="299.146" y2="86.624" gradientUnits="userSpaceOnUse">
<stop stop-color="#D10B57"/>
<stop offset="1" stop-color="white"/>
</linearGradient>
<linearGradient id="paint83_linear_1_2071" x1="276.573" y1="134.541" x2="304.183" y2="89.7266" gradientUnits="userSpaceOnUse">
<stop/>
<stop offset="1" stop-color="white"/>
</linearGradient>
<linearGradient id="paint84_linear_1_2071" x1="276.573" y1="134.541" x2="304.183" y2="89.7274" gradientUnits="userSpaceOnUse">
<stop stop-color="#D10B57"/>
<stop offset="1" stop-color="white"/>
</linearGradient>
</defs>
</svg>
