<svg width="239" height="121" viewBox="0 0 239 121" fill="none" xmlns="http://www.w3.org/2000/svg">
<g opacity="0.15">
<path opacity="0.0323" d="M151.314 120.414C198.439 120.414 236.642 106.277 236.642 88.8388C236.642 71.4005 198.439 57.2639 151.314 57.2639C104.189 57.2639 65.986 71.4005 65.986 88.8388C65.986 106.277 104.189 120.414 151.314 120.414Z" fill="#231F20"/>
<path opacity="0.0645" d="M149.113 120.147C196.238 120.147 234.44 106.011 234.44 88.5724C234.44 71.1341 196.238 56.9976 149.113 56.9976C101.987 56.9976 63.7849 71.1341 63.7849 88.5724C63.7849 106.011 101.987 120.147 149.113 120.147Z" fill="#231F20"/>
<path opacity="0.0968" d="M146.916 119.878C194.041 119.878 232.243 105.742 232.243 88.3034C232.243 70.8651 194.041 56.7285 146.916 56.7285C99.7904 56.7285 61.5879 70.8651 61.5879 88.3034C61.5879 105.742 99.7904 119.878 146.916 119.878Z" fill="#231F20"/>
<path opacity="0.129" d="M144.714 119.613C191.84 119.613 230.042 105.476 230.042 88.0379C230.042 70.5996 191.84 56.4631 144.714 56.4631C97.5892 56.4631 59.3866 70.5996 59.3866 88.0379C59.3866 105.476 97.5892 119.613 144.714 119.613Z" fill="#231F20"/>
<path opacity="0.1613" d="M142.517 119.347C189.643 119.347 227.845 105.211 227.845 87.7723C227.845 70.334 189.643 56.1975 142.517 56.1975C95.3922 56.1975 57.1897 70.334 57.1897 87.7723C57.1897 105.211 95.3922 119.347 142.517 119.347Z" fill="#231F20"/>
<path opacity="0.1935" d="M140.316 119.082C187.441 119.082 225.644 104.946 225.644 87.5075C225.644 70.0692 187.441 55.9326 140.316 55.9326C93.1909 55.9326 54.9885 70.0692 54.9885 87.5075C54.9885 104.946 93.1909 119.082 140.316 119.082Z" fill="#231F20"/>
<path opacity="0.2258" d="M138.115 118.813C185.24 118.813 223.443 104.676 223.443 87.2379C223.443 69.7996 185.24 55.6631 138.115 55.6631C90.9896 55.6631 52.7872 69.7996 52.7872 87.2379C52.7872 104.676 90.9896 118.813 138.115 118.813Z" fill="#231F20"/>
<path opacity="0.2581" d="M135.918 118.547C183.043 118.547 221.246 104.41 221.246 86.9721C221.246 69.5338 183.043 55.3972 135.918 55.3972C88.7927 55.3972 50.5902 69.5338 50.5902 86.9721C50.5902 104.41 88.7927 118.547 135.918 118.547Z" fill="#231F20"/>
<path opacity="0.2903" d="M133.717 118.281C180.842 118.281 219.044 104.145 219.044 86.7066C219.044 69.2683 180.842 55.1318 133.717 55.1318C86.5915 55.1318 48.3889 69.2683 48.3889 86.7066C48.3889 104.145 86.5915 118.281 133.717 118.281Z" fill="#231F20"/>
<path opacity="0.3226" d="M131.52 118.012C178.645 118.012 216.847 103.875 216.847 86.4369C216.847 68.9986 178.645 54.8621 131.52 54.8621C84.3945 54.8621 46.192 68.9986 46.192 86.4369C46.192 103.875 84.3945 118.012 131.52 118.012Z" fill="#231F20"/>
<path opacity="0.3548" d="M129.318 117.746C176.444 117.746 214.646 103.61 214.646 86.1715C214.646 68.7332 176.444 54.5967 129.318 54.5967C82.1932 54.5967 43.9908 68.7332 43.9908 86.1715C43.9908 103.61 82.1932 117.746 129.318 117.746Z" fill="#231F20"/>
<path opacity="0.3871" d="M127.117 117.481C174.242 117.481 212.445 103.345 212.445 85.9066C212.445 68.4683 174.242 54.3318 127.117 54.3318C79.9919 54.3318 41.7895 68.4683 41.7895 85.9066C41.7895 103.345 79.9919 117.481 127.117 117.481Z" fill="#231F20"/>
<path opacity="0.4194" d="M124.92 117.216C172.046 117.216 210.248 103.079 210.248 85.6408C210.248 68.2025 172.046 54.0659 124.92 54.0659C77.7951 54.0659 39.5925 68.2025 39.5925 85.6408C39.5925 103.079 77.7951 117.216 124.92 117.216Z" fill="#231F20"/>
<path opacity="0.4516" d="M122.719 116.946C169.844 116.946 208.047 102.81 208.047 85.3715C208.047 67.9332 169.844 53.7966 122.719 53.7966C75.5938 53.7966 37.3912 67.9332 37.3912 85.3715C37.3912 102.81 75.5938 116.946 122.719 116.946Z" fill="#231F20"/>
<path opacity="0.4839" d="M120.522 116.68C167.647 116.68 205.85 102.544 205.85 85.1056C205.85 67.6673 167.647 53.5308 120.522 53.5308C73.3969 53.5308 35.1944 67.6673 35.1944 85.1056C35.1944 102.544 73.3969 116.68 120.522 116.68Z" fill="#231F20"/>
<path opacity="0.5161" d="M118.321 116.416C165.446 116.416 203.649 102.279 203.649 84.8407C203.649 67.4024 165.446 53.2659 118.321 53.2659C71.1955 53.2659 32.9931 67.4024 32.9931 84.8407C32.9931 102.279 71.1955 116.416 118.321 116.416Z" fill="#231F20"/>
<path opacity="0.5484" d="M116.12 116.145C163.245 116.145 201.447 102.009 201.447 84.5707C201.447 67.1324 163.245 52.9958 116.12 52.9958C68.9944 52.9958 30.7918 67.1324 30.7918 84.5707C30.7918 102.009 68.9944 116.145 116.12 116.145Z" fill="#231F20"/>
<path opacity="0.5806" d="M113.923 115.88C161.048 115.88 199.25 101.744 199.25 84.3055C199.25 66.8673 161.048 52.7307 113.923 52.7307C66.7974 52.7307 28.5948 66.8673 28.5948 84.3055C28.5948 101.744 66.7974 115.88 113.923 115.88Z" fill="#231F20"/>
<path opacity="0.6129" d="M111.721 115.615C158.847 115.615 197.049 101.478 197.049 84.0402C197.049 66.6019 158.847 52.4653 111.721 52.4653C64.5961 52.4653 26.3936 66.6019 26.3936 84.0402C26.3936 101.478 64.5961 115.615 111.721 115.615Z" fill="#231F20"/>
<path opacity="0.6452" d="M109.524 115.349C156.65 115.349 194.852 101.213 194.852 83.7743C194.852 66.336 156.65 52.1995 109.524 52.1995C62.3992 52.1995 24.1967 66.336 24.1967 83.7743C24.1967 101.213 62.3992 115.349 109.524 115.349Z" fill="#231F20"/>
<path opacity="0.6774" d="M107.323 115.079C154.448 115.079 192.651 100.943 192.651 83.5043C192.651 66.066 154.448 51.9294 107.323 51.9294C60.1979 51.9294 21.9954 66.066 21.9954 83.5043C21.9954 100.943 60.1979 115.079 107.323 115.079Z" fill="#231F20"/>
<path opacity="0.7097" d="M105.122 114.814C152.247 114.814 190.45 100.678 190.45 83.2394C190.45 65.8011 152.247 51.6646 105.122 51.6646C57.9967 51.6646 19.7941 65.8011 19.7941 83.2394C19.7941 100.678 57.9967 114.814 105.122 114.814Z" fill="#231F20"/>
<path opacity="0.7419" d="M102.925 114.549C150.05 114.549 188.253 100.412 188.253 82.974C188.253 65.5357 150.05 51.3992 102.925 51.3992C55.7997 51.3992 17.5971 65.5357 17.5971 82.974C17.5971 100.412 55.7997 114.549 102.925 114.549Z" fill="#231F20"/>
<path opacity="0.7742" d="M100.724 114.279C147.849 114.279 186.051 100.143 186.051 82.7042C186.051 65.2659 147.849 51.1294 100.724 51.1294C53.5984 51.1294 15.3959 65.2659 15.3959 82.7042C15.3959 100.143 53.5984 114.279 100.724 114.279Z" fill="#231F20"/>
<path opacity="0.8065" d="M98.5223 114.014C145.648 114.014 183.85 99.8776 183.85 82.4393C183.85 65.001 145.648 50.8645 98.5223 50.8645C51.3971 50.8645 13.1946 65.001 13.1946 82.4393C13.1946 99.8776 51.3971 114.014 98.5223 114.014Z" fill="#231F20"/>
<path opacity="0.8387" d="M96.3255 113.748C143.451 113.748 181.653 99.6118 181.653 82.1735C181.653 64.7352 143.451 50.5986 96.3255 50.5986C49.2003 50.5986 10.9977 64.7352 10.9977 82.1735C10.9977 99.6118 49.2003 113.748 96.3255 113.748Z" fill="#231F20"/>
<path opacity="0.871" d="M94.1242 113.483C141.249 113.483 179.452 99.3469 179.452 81.9086C179.452 64.4703 141.249 50.3337 94.1242 50.3337C46.999 50.3337 8.79639 64.4703 8.79639 81.9086C8.79639 99.3469 46.999 113.483 94.1242 113.483Z" fill="#231F20"/>
<path opacity="0.9032" d="M91.9272 113.213C139.052 113.213 177.255 99.0766 177.255 81.6383C177.255 64.2 139.052 50.0635 91.9272 50.0635C44.802 50.0635 6.59954 64.2 6.59954 81.6383C6.59954 99.0766 44.802 113.213 91.9272 113.213Z" fill="#231F20"/>
<path opacity="0.9355" d="M89.7259 112.948C136.851 112.948 175.054 98.8112 175.054 81.3729C175.054 63.9346 136.851 49.7981 89.7259 49.7981C42.6007 49.7981 4.39824 63.9346 4.39824 81.3729C4.39824 98.8112 42.6007 112.948 89.7259 112.948Z" fill="#231F20"/>
<path opacity="0.9677" d="M87.5246 112.683C134.65 112.683 172.852 98.5463 172.852 81.108C172.852 63.6697 134.65 49.5332 87.5246 49.5332C40.3994 49.5332 2.19694 63.6697 2.19694 81.108C2.19694 98.5463 40.3994 112.683 87.5246 112.683Z" fill="#231F20"/>
<path d="M85.3278 112.413C132.453 112.413 170.655 98.2765 170.655 80.8382C170.655 63.3999 132.453 49.2634 85.3278 49.2634C38.2026 49.2634 0 63.3999 0 80.8382C0 98.2765 38.2026 112.413 85.3278 112.413Z" fill="#231F20"/>
</g>
<path d="M0 31.9575V82.7435H0.161014C2.82343 99.2922 39.9319 112.413 85.3278 112.413C130.724 112.413 167.832 99.2922 170.495 82.7435H170.655V31.9575H0Z" fill="url(#paint0_linear_1_394)"/>
<path opacity="0.5" d="M0 31.9575V82.7435H0.161014C2.82343 99.2922 39.9319 112.413 85.3278 112.413C130.724 112.413 167.832 99.2922 170.495 82.7435H170.655V31.9575H0Z" fill="url(#paint1_linear_1_394)"/>
<path d="M85.3278 65.3333C132.453 65.3333 170.655 51.1967 170.655 33.7584C170.655 16.3201 132.453 2.18359 85.3278 2.18359C38.2026 2.18359 0 16.3201 0 33.7584C0 51.1967 38.2026 65.3333 85.3278 65.3333Z" fill="#638BD0"/>
<path d="M85.3278 63.9456C132.453 63.9456 170.655 49.809 170.655 32.3707C170.655 14.9324 132.453 0.795898 85.3278 0.795898C38.2026 0.795898 0 14.9324 0 32.3707C0 49.809 38.2026 63.9456 85.3278 63.9456Z" fill="url(#paint2_linear_1_394)"/>
<mask id="mask0_1_394" style="mask-type:alpha" maskUnits="userSpaceOnUse" x="3" y="2" width="164" height="61">
<path d="M85.3278 62.5577C130.384 62.5577 166.91 49.0425 166.91 32.3707C166.91 15.6988 130.384 2.18359 85.3278 2.18359C40.2712 2.18359 3.7457 15.6988 3.7457 32.3707C3.7457 49.0425 40.2712 62.5577 85.3278 62.5577Z" fill="url(#paint3_linear_1_394)"/>
</mask>
<g mask="url(#mask0_1_394)">
<path d="M85.3278 62.5577C130.384 62.5577 166.91 49.0425 166.91 32.3707C166.91 15.6988 130.384 2.18359 85.3278 2.18359C40.2712 2.18359 3.7457 15.6988 3.7457 32.3707C3.7457 49.0425 40.2712 62.5577 85.3278 62.5577Z" fill="url(#paint4_linear_1_394)"/>
</g>
<defs>
<linearGradient id="paint0_linear_1_394" x1="0.00147912" y1="72.1846" x2="170.653" y2="72.1846" gradientUnits="userSpaceOnUse">
<stop stop-color="#4A76B7"/>
<stop offset="1" stop-color="#4A76B7"/>
</linearGradient>
<linearGradient id="paint1_linear_1_394" x1="146.549" y1="72.1846" x2="18.3201" y2="72.1846" gradientUnits="userSpaceOnUse">
<stop stop-color="#231F20"/>
<stop offset="1" stop-color="white"/>
</linearGradient>
<linearGradient id="paint2_linear_1_394" x1="169.21" y1="32.3719" x2="1.37506" y2="32.3719" gradientUnits="userSpaceOnUse">
<stop stop-color="#4A76B7"/>
<stop offset="1" stop-color="#4A76B7"/>
</linearGradient>
<linearGradient id="paint3_linear_1_394" x1="-46.5014" y1="-52.5348" x2="75.0193" y2="25.7329" gradientUnits="userSpaceOnUse">
<stop stop-color="white"/>
<stop offset="1"/>
</linearGradient>
<linearGradient id="paint4_linear_1_394" x1="-46.5014" y1="-52.5348" x2="75.0193" y2="25.7329" gradientUnits="userSpaceOnUse">
<stop stop-color="white"/>
<stop offset="1" stop-color="white"/>
</linearGradient>
</defs>
</svg>
