<svg width="178" height="170" viewBox="0 0 178 170" fill="none" xmlns="http://www.w3.org/2000/svg">
<g filter="url(#filter0_f_1_90)">
<path d="M50.7345 73.728C50.6545 73.928 50.5845 74.128 50.5045 74.338C50.2445 74.998 49.9845 75.658 49.7645 76.318C49.6645 76.618 49.5744 76.928 49.4744 77.228C49.2944 77.798 49.1345 78.358 48.9945 78.928C48.9145 79.248 48.8345 79.578 48.7545 79.898C48.6245 80.458 48.5145 81.018 48.4145 81.578C48.3645 81.888 48.3045 82.188 48.2545 82.498C48.1645 83.128 48.0945 83.748 48.0445 84.378C48.0245 84.608 47.9944 84.838 47.9744 85.058C47.9244 85.868 47.8944 86.678 47.9044 87.478C47.9044 87.508 47.9044 87.548 47.9044 87.578C47.9044 87.708 47.9245 87.848 47.9245 87.978C47.9445 88.658 47.9845 89.328 48.0545 89.988C48.0845 90.238 48.1144 90.488 48.1444 90.738C48.1744 90.998 48.1945 91.268 48.2345 91.528C48.2945 91.928 48.3744 92.328 48.4644 92.728C48.4844 92.808 48.4945 92.888 48.5045 92.958C48.6245 93.508 48.7544 94.048 48.9044 94.578C48.9444 94.708 48.9944 94.838 49.0344 94.968C49.1744 95.438 49.3445 95.898 49.5045 96.358C49.6045 96.628 49.6744 96.898 49.7744 97.168C49.8144 97.278 49.8745 97.388 49.9245 97.498C50.0845 97.868 50.2545 98.228 50.4345 98.588C50.5745 98.868 50.6844 99.168 50.8344 99.448C50.8944 99.568 50.9745 99.678 51.0445 99.798C51.2245 100.118 51.4145 100.428 51.6045 100.738C51.7645 100.998 51.8945 101.258 52.0645 101.518C52.2445 101.788 52.4245 102.048 52.6145 102.308L60.5844 113.338C60.2144 112.828 59.9045 112.298 59.5745 111.768C59.3845 111.458 59.1945 111.148 59.0145 110.828C58.7945 110.438 58.6045 110.028 58.4145 109.618C58.2445 109.258 58.0644 108.898 57.9044 108.528C57.7444 108.158 57.6145 107.778 57.4745 107.398C57.3045 106.938 57.1445 106.478 57.0045 106.008C56.8045 105.348 56.6245 104.678 56.4745 103.998C56.4545 103.918 56.4445 103.838 56.4345 103.768C56.3045 103.118 56.2045 102.448 56.1145 101.778C56.0845 101.528 56.0444 101.278 56.0244 101.028C55.9544 100.368 55.9144 99.698 55.8944 99.018C55.8944 98.878 55.8745 98.748 55.8745 98.608C55.8645 97.778 55.8845 96.938 55.9445 96.088C55.9545 95.858 55.9945 95.628 56.0145 95.408C56.0645 94.788 56.1345 94.158 56.2245 93.528C56.2745 93.218 56.3245 92.908 56.3845 92.608C56.4845 92.048 56.5945 91.488 56.7245 90.928C56.7945 90.608 56.8744 90.278 56.9644 89.958C57.1144 89.398 57.2745 88.828 57.4445 88.268C57.5345 87.958 57.6245 87.658 57.7345 87.348C57.9545 86.688 58.2045 86.028 58.4745 85.378C58.5545 85.178 58.6244 84.968 58.7144 84.768C59.0744 83.908 59.4744 83.058 59.8944 82.208C60.0044 81.998 60.1245 81.788 60.2345 81.578C60.5745 80.928 60.9245 80.288 61.3145 79.648C61.4545 79.418 61.6045 79.178 61.7445 78.948C62.1245 78.338 62.5245 77.728 62.9445 77.128C63.0945 76.908 63.2444 76.688 63.4044 76.468C63.6744 76.098 63.9645 75.728 64.2445 75.358C64.7045 74.758 65.1745 74.158 65.6645 73.568C66.2445 72.878 66.8344 72.198 67.4644 71.518C67.8144 71.148 68.1744 70.788 68.5344 70.418C69.1944 69.758 69.8745 69.108 70.5745 68.498C70.7045 68.378 70.8444 68.268 70.9744 68.148C71.5844 67.618 72.2044 67.098 72.8344 66.608C72.9544 66.518 73.0745 66.418 73.1945 66.318C73.8945 65.778 74.6044 65.248 75.3344 64.748C75.4944 64.638 75.6645 64.528 75.8245 64.418C76.5345 63.938 77.2544 63.468 77.9744 63.028C78.0344 62.998 78.0844 62.958 78.1444 62.928C78.9544 62.438 79.7745 61.988 80.6045 61.548C80.7645 61.468 80.9244 61.378 81.0844 61.298C81.9644 60.848 82.8545 60.428 83.7445 60.038C83.8845 59.978 84.0345 59.918 84.1745 59.858C85.2045 59.418 86.2444 59.018 87.2844 58.658C87.4744 58.588 87.6645 58.528 87.8545 58.468C88.3445 58.308 88.8345 58.158 89.3245 58.008C89.5345 57.948 89.7345 57.888 89.9445 57.828C90.6245 57.638 91.3145 57.458 92.0045 57.298C92.0845 57.278 92.1545 57.268 92.2345 57.248C92.7645 57.128 93.2945 57.018 93.8245 56.918C94.0345 56.878 94.2445 56.848 94.4545 56.818C94.8545 56.748 95.2444 56.688 95.6444 56.628C95.8844 56.598 96.1345 56.568 96.3745 56.538C96.7345 56.498 97.0945 56.448 97.4545 56.418C97.7145 56.398 97.9644 56.378 98.2244 56.358C98.5644 56.328 98.9145 56.308 99.2545 56.288C99.5145 56.278 99.7744 56.268 100.034 56.258C100.364 56.248 100.704 56.238 101.034 56.238C101.294 56.238 101.564 56.248 101.824 56.248C102.154 56.258 102.474 56.258 102.804 56.278C103.064 56.288 103.334 56.308 103.594 56.328C103.914 56.348 104.234 56.378 104.554 56.408C104.814 56.438 105.084 56.458 105.344 56.498C105.654 56.538 105.974 56.578 106.284 56.618C106.544 56.658 106.804 56.698 107.064 56.738C107.374 56.788 107.684 56.848 107.984 56.908C108.234 56.958 108.494 57.008 108.744 57.068C109.044 57.138 109.354 57.208 109.654 57.288C109.904 57.348 110.154 57.418 110.394 57.488C110.694 57.578 110.994 57.668 111.284 57.758C111.524 57.838 111.764 57.908 112.004 57.988C112.304 58.088 112.594 58.208 112.884 58.318C113.114 58.408 113.344 58.488 113.574 58.588C113.874 58.708 114.164 58.848 114.454 58.978C114.664 59.078 114.884 59.168 115.094 59.268C115.394 59.418 115.684 59.568 115.984 59.728C116.184 59.828 116.384 59.928 116.574 60.038C116.894 60.218 117.214 60.418 117.524 60.618C117.684 60.718 117.844 60.808 117.994 60.908C118.464 61.208 118.924 61.528 119.364 61.868C121.434 63.408 123.174 65.188 124.594 67.158L116.624 56.128C115.204 54.168 113.464 52.388 111.394 50.838C110.944 50.508 110.484 50.188 110.024 49.888C109.864 49.788 109.704 49.698 109.544 49.598C109.234 49.398 108.914 49.208 108.594 49.028C108.404 48.918 108.204 48.818 108.004 48.718C107.704 48.558 107.414 48.398 107.114 48.258C106.904 48.158 106.684 48.058 106.464 47.958C106.174 47.828 105.884 47.688 105.584 47.568C105.354 47.478 105.124 47.388 104.894 47.298C104.604 47.188 104.304 47.078 104.014 46.968C103.774 46.888 103.534 46.808 103.294 46.738C102.994 46.648 102.704 46.548 102.404 46.468C102.154 46.398 101.904 46.328 101.654 46.268C101.354 46.188 101.054 46.118 100.754 46.048C100.504 45.988 100.244 45.938 99.9945 45.888C99.6845 45.828 99.3845 45.768 99.0745 45.718C98.8145 45.678 98.5545 45.638 98.3045 45.598C97.9945 45.548 97.6845 45.508 97.3645 45.478C97.1045 45.448 96.8345 45.418 96.5745 45.388C96.2545 45.358 95.9445 45.338 95.6245 45.308C95.3645 45.288 95.0945 45.268 94.8245 45.258C94.5045 45.248 94.1745 45.238 93.8545 45.228C93.5945 45.218 93.3245 45.218 93.0645 45.218C92.7345 45.218 92.4045 45.228 92.0745 45.238C91.8145 45.248 91.5444 45.248 91.2844 45.268C90.9444 45.288 90.6045 45.308 90.2545 45.338C89.9945 45.358 89.7445 45.378 89.4845 45.398C89.1245 45.428 88.7645 45.478 88.4145 45.518C88.1645 45.548 87.9245 45.568 87.6745 45.608C87.2845 45.658 86.8945 45.728 86.4945 45.798C86.2845 45.838 86.0745 45.868 85.8645 45.898C85.3345 45.998 84.8044 46.108 84.2744 46.228C84.2044 46.248 84.1245 46.258 84.0545 46.278H84.0445C83.3545 46.438 82.6745 46.618 81.9845 46.808C81.7745 46.868 81.5745 46.928 81.3645 46.988C80.8745 47.128 80.3844 47.288 79.8944 47.448C79.7644 47.488 79.6445 47.518 79.5145 47.568C79.4445 47.588 79.3845 47.618 79.3145 47.648C78.2745 48.008 77.2345 48.408 76.2045 48.848C76.1245 48.878 76.0544 48.908 75.9744 48.938C75.9044 48.968 75.8444 49.008 75.7744 49.038C74.8844 49.428 73.9945 49.848 73.1145 50.298C73.0445 50.328 72.9744 50.358 72.9044 50.398C72.8144 50.448 72.7245 50.498 72.6345 50.548C71.8045 50.988 70.9845 51.438 70.1745 51.918C70.1645 51.928 70.1445 51.928 70.1345 51.938C70.0945 51.968 70.0445 51.998 70.0045 52.018C69.2745 52.458 68.5645 52.918 67.8545 53.408C67.7545 53.478 67.6545 53.528 67.5645 53.598C67.4945 53.648 67.4345 53.698 67.3645 53.748C66.6445 54.248 65.9345 54.768 65.2345 55.318C65.1945 55.348 65.1545 55.368 65.1245 55.398C65.0445 55.468 64.9645 55.538 64.8745 55.608C64.2445 56.098 63.6344 56.618 63.0244 57.148C62.9344 57.228 62.8345 57.298 62.7445 57.378C62.7045 57.418 62.6545 57.458 62.6145 57.498C61.9245 58.118 61.2444 58.758 60.5844 59.418C60.5244 59.478 60.4644 59.528 60.4044 59.588C60.1044 59.888 59.8045 60.198 59.5045 60.518C59.0045 61.048 58.5145 61.588 58.0445 62.138C57.9245 62.278 57.8245 62.428 57.7045 62.568C57.2045 63.158 56.7444 63.758 56.2844 64.358C56.0944 64.608 55.8645 64.858 55.6845 65.118C55.6045 65.238 55.5245 65.348 55.4445 65.468C55.2845 65.688 55.1445 65.908 54.9845 66.128C54.5645 66.738 54.1644 67.348 53.7844 67.958C53.6444 68.188 53.4945 68.418 53.3545 68.648C53.2745 68.788 53.1844 68.928 53.0944 69.058C52.8044 69.568 52.5345 70.078 52.2645 70.588C52.1545 70.798 52.0345 71.008 51.9245 71.218C51.4845 72.008 51.0945 72.868 50.7345 73.728Z" fill="url(#paint0_linear_1_90)"/>
<path d="M153.454 114.518C154.174 113.408 154.864 112.288 155.524 111.158C155.614 111.008 155.724 110.848 155.804 110.698C155.964 110.428 156.104 110.158 156.264 109.878C156.444 109.568 156.614 109.248 156.794 108.938C157.114 108.358 157.414 107.778 157.714 107.198C157.854 106.918 158.004 106.648 158.144 106.368C158.554 105.558 158.944 104.748 159.324 103.938C159.344 103.898 159.364 103.848 159.384 103.808C159.784 102.948 160.154 102.088 160.514 101.228C160.624 100.958 160.734 100.688 160.844 100.418C161.084 99.8179 161.324 99.2279 161.554 98.6279C161.674 98.3079 161.794 97.9879 161.904 97.6679C162.104 97.1079 162.304 96.5479 162.494 95.9879C162.604 95.6679 162.714 95.3379 162.814 95.0179C163.004 94.4379 163.174 93.8579 163.354 93.2679C163.444 92.9779 163.524 92.6979 163.614 92.4079C163.834 91.6379 164.034 90.8679 164.224 90.0979C164.244 89.9979 164.274 89.9079 164.294 89.8079C164.504 88.9479 164.694 88.0779 164.864 87.2179C164.914 86.9579 164.964 86.6979 165.014 86.4379C165.124 85.8379 165.234 85.2279 165.334 84.6279C165.384 84.3179 165.434 83.9979 165.474 83.6879C165.554 83.1279 165.634 82.5779 165.704 82.0179C165.744 81.6979 165.784 81.3779 165.814 81.0679C165.874 80.4979 165.924 79.9279 165.974 79.3579C165.994 79.0679 166.024 78.7879 166.044 78.4979C166.094 77.7779 166.124 77.0479 166.144 76.3279C166.144 76.2079 166.154 76.0779 166.164 75.9579C166.184 75.1779 166.194 74.4079 166.184 73.6379C166.184 73.5979 166.174 73.5479 166.174 73.5079C166.154 72.2979 166.094 71.1079 166.004 69.9179C165.984 69.6379 165.954 69.3479 165.924 69.0679C165.824 67.9579 165.694 66.8579 165.524 65.7679C165.514 65.6879 165.504 65.5979 165.494 65.5179C165.494 65.4879 165.484 65.4679 165.484 65.4379C165.334 64.4779 165.154 63.5179 164.944 62.5679C164.884 62.3079 164.824 62.0479 164.764 61.7879C164.604 61.0979 164.434 60.4179 164.254 59.7379C164.224 59.6179 164.194 59.4879 164.164 59.3679C164.094 59.1079 164.004 58.8679 163.924 58.6079C163.784 58.1379 163.644 57.6679 163.484 57.2079C163.354 56.8279 163.224 56.4379 163.084 56.0579C162.924 55.5979 162.754 55.1479 162.574 54.6979C162.504 54.5279 162.454 54.3479 162.384 54.1779C162.294 53.9579 162.194 53.7379 162.094 53.5079C161.934 53.1279 161.774 52.7579 161.604 52.3779C161.424 51.9779 161.234 51.5779 161.044 51.1779C160.864 50.8079 160.684 50.4379 160.504 50.0779C160.424 49.9179 160.354 49.7579 160.274 49.6079C160.144 49.3579 159.994 49.1179 159.864 48.8779C159.684 48.5579 159.504 48.2279 159.324 47.9079C159.084 47.4979 158.844 47.0979 158.594 46.6979C158.404 46.3879 158.214 46.0779 158.014 45.7779C157.954 45.6779 157.894 45.5779 157.824 45.4779C157.474 44.9479 157.104 44.4179 156.724 43.8979L148.754 32.8679C149.204 33.4879 149.624 34.1179 150.034 34.7479C150.234 35.0479 150.424 35.3579 150.614 35.6679C150.864 36.0679 151.114 36.4779 151.354 36.8879C151.534 37.2079 151.714 37.5279 151.894 37.8479C152.114 38.2479 152.334 38.6579 152.544 39.0579C152.734 39.4179 152.914 39.7879 153.084 40.1579C153.274 40.5579 153.464 40.9579 153.644 41.3579C153.814 41.7279 153.974 42.1079 154.134 42.4879C154.304 42.8779 154.464 43.2779 154.614 43.6779C154.794 44.1279 154.954 44.5779 155.124 45.0379C155.264 45.4179 155.394 45.7979 155.524 46.1879C155.674 46.6479 155.814 47.1179 155.954 47.5879C156.064 47.9679 156.174 48.3379 156.284 48.7179C156.464 49.3979 156.634 50.0779 156.794 50.7679C156.854 51.0279 156.924 51.2879 156.974 51.5479C157.174 52.4979 157.354 53.4479 157.514 54.4179C157.534 54.5279 157.544 54.6379 157.554 54.7479C157.724 55.8379 157.844 56.9379 157.954 58.0479C157.984 58.3279 158.004 58.6079 158.034 58.8979C158.124 60.0879 158.184 61.2879 158.204 62.4979C158.214 63.3079 158.214 64.1279 158.194 64.9479C158.194 65.0779 158.184 65.2079 158.174 65.3379C158.154 66.0479 158.114 66.7679 158.074 67.4879C158.054 67.7779 158.024 68.0679 158.004 68.3579C157.954 68.9279 157.904 69.4879 157.844 70.0579C157.814 70.3779 157.774 70.6979 157.734 71.0179C157.664 71.5679 157.594 72.1179 157.514 72.6779C157.464 72.9979 157.424 73.3079 157.374 73.6279C157.274 74.2279 157.164 74.8279 157.054 75.4279C157.004 75.6879 156.964 75.9579 156.904 76.2179C156.734 77.0779 156.544 77.9379 156.334 78.8079C156.314 78.8979 156.284 78.9879 156.264 79.0779C156.074 79.8579 155.864 80.6279 155.654 81.4079C155.574 81.6979 155.484 81.9779 155.404 82.2679C155.234 82.8479 155.054 83.4379 154.864 84.0179C154.764 84.3379 154.654 84.6679 154.544 84.9879C154.354 85.5479 154.164 86.1079 153.954 86.6579C153.834 86.9779 153.724 87.2979 153.604 87.6179C153.374 88.2179 153.144 88.8079 152.904 89.3979C152.794 89.6679 152.684 89.9479 152.574 90.2179C152.214 91.0779 151.834 91.9379 151.444 92.7979C151.424 92.8479 151.394 92.8979 151.374 92.9379C150.994 93.7479 150.604 94.5579 150.194 95.3579C150.054 95.6379 149.904 95.9079 149.764 96.1879C149.464 96.7679 149.154 97.3479 148.844 97.9179C148.674 98.2379 148.494 98.5479 148.314 98.8679C148.074 99.2979 147.824 99.7179 147.574 100.138C146.914 101.268 146.224 102.388 145.504 103.498C145.464 103.568 145.424 103.638 145.374 103.698C144.614 104.868 143.804 106.028 142.964 107.178C142.714 107.528 142.454 107.878 142.194 108.228C141.764 108.808 141.324 109.378 140.884 109.948C140.584 110.328 140.294 110.708 139.984 111.078C139.514 111.658 139.034 112.238 138.554 112.808C138.264 113.158 137.974 113.498 137.674 113.848C136.814 114.838 135.924 115.828 135.014 116.798C134.224 117.638 133.414 118.448 132.604 119.248C132.294 119.558 131.984 119.858 131.674 120.158C131.074 120.738 130.464 121.308 129.854 121.868C129.554 122.148 129.254 122.418 128.954 122.688C128.144 123.418 127.324 124.128 126.494 124.818C126.404 124.898 126.314 124.968 126.224 125.048C125.304 125.818 124.364 126.558 123.424 127.288C123.154 127.498 122.874 127.708 122.594 127.918C121.904 128.438 121.214 128.958 120.514 129.458C120.194 129.688 119.884 129.908 119.564 130.138C118.844 130.638 118.124 131.138 117.394 131.618C117.124 131.798 116.854 131.978 116.584 132.158C115.594 132.798 114.604 133.418 113.604 134.018C113.384 134.148 113.164 134.268 112.954 134.398C112.144 134.878 111.334 135.348 110.514 135.798C110.154 135.998 109.794 136.188 109.434 136.378C108.764 136.738 108.084 137.088 107.404 137.438C106.944 137.668 106.494 137.898 106.034 138.118C105.404 138.428 104.764 138.728 104.124 139.018C103.664 139.228 103.204 139.438 102.734 139.648C102.144 139.908 101.554 140.158 100.964 140.398C100.364 140.648 99.7644 140.898 99.1644 141.138C98.5944 141.358 98.0245 141.578 97.4545 141.788C96.8445 142.018 96.2445 142.238 95.6345 142.448C95.1445 142.618 94.6444 142.788 94.1444 142.948C93.1644 143.278 92.1745 143.578 91.1945 143.868C90.7745 143.988 90.3645 144.118 89.9445 144.238C88.5745 144.618 87.1945 144.978 85.8145 145.298C85.6745 145.328 85.5345 145.358 85.3845 145.388C84.3145 145.628 83.2344 145.848 82.1644 146.048C81.7444 146.128 81.3244 146.188 80.9044 146.258C80.1144 146.388 79.3144 146.528 78.5244 146.638C78.0344 146.708 77.5545 146.758 77.0645 146.818C76.3445 146.908 75.6244 146.998 74.9044 147.068C74.3844 147.118 73.8744 147.148 73.3544 147.188C72.6644 147.238 71.9744 147.288 71.2944 147.328C70.7644 147.358 70.2444 147.368 69.7144 147.378C69.0444 147.398 68.3744 147.418 67.7144 147.418C67.1844 147.418 66.6545 147.408 66.1245 147.398C65.4745 147.388 64.8244 147.368 64.1744 147.338C63.6444 147.318 63.1144 147.278 62.5844 147.238C61.9444 147.198 61.3044 147.148 60.6744 147.088C60.1444 147.038 59.6244 146.978 59.0944 146.918C58.4644 146.848 57.8344 146.758 57.2144 146.668C56.6944 146.588 56.1744 146.508 55.6544 146.418C55.0344 146.308 54.4244 146.198 53.8044 146.068C53.2944 145.968 52.7844 145.858 52.2744 145.748C51.6644 145.608 51.0645 145.458 50.4545 145.308C49.9545 145.178 49.4544 145.048 48.9644 144.908C48.3644 144.738 47.7744 144.548 47.1744 144.358C46.6944 144.208 46.2044 144.048 45.7344 143.888C45.1444 143.678 44.5544 143.458 43.9644 143.228C43.5044 143.048 43.0344 142.878 42.5844 142.688C41.9944 142.438 41.4145 142.178 40.8245 141.908C40.3845 141.708 39.9544 141.518 39.5244 141.308C38.9244 141.018 38.3344 140.698 37.7444 140.388C37.3544 140.178 36.9545 139.978 36.5645 139.758C35.9145 139.388 35.2844 138.998 34.6544 138.608C34.3444 138.418 34.0145 138.228 33.7045 138.028C32.7645 137.418 31.8545 136.788 30.9545 136.118C26.8145 133.028 23.3144 129.458 20.4644 125.518L28.4344 136.548C31.2844 140.488 34.7744 144.058 38.9244 147.148C39.8244 147.818 40.7444 148.458 41.6744 149.058C41.9844 149.258 42.3045 149.438 42.6245 149.638C43.2545 150.028 43.8844 150.428 44.5344 150.788C44.9244 151.008 45.3244 151.208 45.7144 151.418C46.3044 151.728 46.8944 152.048 47.4944 152.338C47.9244 152.548 48.3644 152.738 48.7944 152.938C49.3744 153.198 49.9544 153.468 50.5544 153.718C51.0144 153.908 51.4744 154.078 51.9344 154.258C52.5244 154.478 53.1045 154.708 53.7045 154.918C54.1845 155.088 54.6644 155.238 55.1444 155.388C55.7344 155.578 56.3344 155.768 56.9344 155.938C57.4244 156.078 57.9244 156.208 58.4244 156.338C59.0244 156.498 59.6344 156.648 60.2444 156.778C60.7544 156.888 61.2644 156.998 61.7744 157.098C62.3844 157.218 63.0045 157.338 63.6245 157.448C64.1345 157.538 64.6544 157.618 65.1744 157.698C65.8044 157.788 66.4345 157.868 67.0645 157.948C67.5845 158.008 68.1145 158.068 68.6345 158.118C69.2745 158.178 69.9144 158.228 70.5544 158.268C71.0844 158.308 71.6144 158.338 72.1444 158.358C72.7944 158.388 73.4444 158.398 74.1044 158.418C74.6344 158.428 75.1645 158.438 75.6945 158.438C76.3645 158.438 77.0345 158.418 77.7045 158.398C78.2245 158.378 78.7544 158.368 79.2744 158.348C79.9644 158.318 80.6544 158.258 81.3444 158.208C81.8544 158.168 82.3645 158.138 82.8845 158.088C83.6045 158.018 84.3344 157.928 85.0544 157.838C85.5444 157.778 86.0245 157.728 86.5145 157.658C87.3045 157.548 88.1044 157.408 88.8944 157.278C89.3144 157.208 89.7344 157.148 90.1544 157.068C91.2444 156.868 92.3344 156.638 93.4244 156.398C93.5444 156.368 93.6644 156.348 93.7844 156.328H93.7944C95.1744 156.018 96.5444 155.658 97.9244 155.268C98.3444 155.148 98.7544 155.028 99.1744 154.898C100.164 154.608 101.144 154.298 102.124 153.978C102.374 153.898 102.624 153.828 102.874 153.748C103.124 153.668 103.364 153.568 103.614 153.478C104.224 153.268 104.824 153.048 105.424 152.818C105.994 152.608 106.564 152.388 107.134 152.168C107.734 151.928 108.334 151.678 108.934 151.428C109.274 151.288 109.624 151.158 109.974 151.008C110.214 150.898 110.464 150.788 110.704 150.678C111.164 150.478 111.624 150.258 112.094 150.048C112.734 149.758 113.364 149.458 114.004 149.148C114.464 148.928 114.924 148.698 115.374 148.468C115.624 148.338 115.884 148.218 116.134 148.088C116.554 147.868 116.974 147.628 117.404 147.408C117.764 147.218 118.124 147.028 118.484 146.828C119.304 146.378 120.124 145.908 120.934 145.428C121.144 145.298 121.364 145.188 121.574 145.058C121.614 145.038 121.654 145.018 121.694 144.988C122.654 144.408 123.614 143.808 124.564 143.188C124.834 143.008 125.104 142.828 125.374 142.648C125.864 142.318 126.364 141.998 126.854 141.658C127.084 141.498 127.314 141.328 127.534 141.168C127.854 140.948 128.174 140.718 128.494 140.488C129.194 139.988 129.884 139.478 130.564 138.958C130.844 138.748 131.114 138.538 131.394 138.328C131.514 138.238 131.634 138.148 131.744 138.058C132.564 137.418 133.384 136.758 134.194 136.078C134.284 135.998 134.374 135.928 134.464 135.848C135.144 135.278 135.824 134.698 136.494 134.098C136.634 133.968 136.774 133.838 136.914 133.708C137.214 133.438 137.514 133.158 137.814 132.888C138.424 132.328 139.034 131.758 139.644 131.168C139.954 130.868 140.264 130.568 140.574 130.258C140.774 130.058 140.984 129.858 141.194 129.658C141.794 129.048 142.394 128.428 142.984 127.808C143.904 126.838 144.784 125.848 145.644 124.858C145.734 124.758 145.824 124.658 145.914 124.568C146.124 124.318 146.324 124.068 146.534 123.818C147.014 123.248 147.504 122.668 147.964 122.088C148.264 121.708 148.564 121.328 148.864 120.948C149.314 120.378 149.744 119.808 150.174 119.228C150.334 119.018 150.504 118.808 150.654 118.588C150.754 118.448 150.844 118.308 150.944 118.178C151.774 117.028 152.584 115.868 153.354 114.698C153.374 114.658 153.414 114.588 153.454 114.518Z" fill="url(#paint1_linear_1_90)"/>
<path d="M50.7345 73.728C50.6545 73.928 50.5845 74.128 50.5045 74.338C50.2445 74.998 49.9845 75.658 49.7645 76.318C49.6645 76.618 49.5744 76.928 49.4744 77.228C49.2944 77.798 49.1345 78.358 48.9945 78.928C48.9145 79.248 48.8345 79.578 48.7545 79.898C48.6245 80.458 48.5145 81.018 48.4145 81.578C48.3645 81.888 48.3045 82.188 48.2545 82.498C48.1645 83.128 48.0945 83.748 48.0445 84.378C48.0245 84.608 47.9944 84.838 47.9744 85.058C47.9244 85.868 47.8944 86.678 47.9044 87.478C47.9044 87.508 47.9044 87.548 47.9044 87.578C47.9044 87.708 47.9245 87.848 47.9245 87.978C47.9445 88.658 47.9845 89.328 48.0545 89.988C48.0845 90.238 48.1144 90.488 48.1444 90.738C48.1744 90.998 48.1945 91.268 48.2345 91.528C48.2945 91.928 48.3744 92.328 48.4644 92.728C48.4844 92.808 48.4945 92.888 48.5045 92.958C48.6245 93.508 48.7544 94.048 48.9044 94.578C48.9444 94.708 48.9944 94.838 49.0344 94.968C49.1744 95.438 49.3445 95.898 49.5045 96.358C49.6045 96.628 49.6744 96.898 49.7744 97.168C49.8144 97.278 49.8745 97.388 49.9245 97.498C50.0845 97.868 50.2545 98.228 50.4345 98.588C50.5745 98.868 50.6844 99.168 50.8344 99.448C50.8944 99.568 50.9745 99.678 51.0445 99.798C51.2245 100.118 51.4145 100.428 51.6045 100.738C51.7645 100.998 51.8945 101.258 52.0645 101.518C52.2445 101.788 52.4245 102.048 52.6145 102.308L60.5844 113.338C60.2144 112.828 59.9045 112.298 59.5745 111.768C59.3845 111.458 59.1945 111.148 59.0145 110.828C58.7945 110.438 58.6045 110.028 58.4145 109.618C58.2445 109.258 58.0644 108.898 57.9044 108.528C57.7444 108.158 57.6145 107.778 57.4745 107.398C57.3045 106.938 57.1445 106.478 57.0045 106.008C56.8045 105.348 56.6245 104.678 56.4745 103.998C56.4545 103.918 56.4445 103.838 56.4345 103.768C56.3045 103.118 56.2045 102.448 56.1145 101.778C56.0845 101.528 56.0444 101.278 56.0244 101.028C55.9544 100.368 55.9144 99.698 55.8944 99.018C55.8944 98.878 55.8745 98.748 55.8745 98.608C55.8645 97.778 55.8845 96.938 55.9445 96.088C55.9545 95.858 55.9945 95.628 56.0145 95.408C56.0645 94.788 56.1345 94.158 56.2245 93.528C56.2745 93.218 56.3245 92.908 56.3845 92.608C56.4845 92.048 56.5945 91.488 56.7245 90.928C56.7945 90.608 56.8744 90.278 56.9644 89.958C57.1144 89.398 57.2745 88.828 57.4445 88.268C57.5345 87.958 57.6245 87.658 57.7345 87.348C57.9545 86.688 58.2045 86.028 58.4745 85.378C58.5545 85.178 58.6244 84.968 58.7144 84.768C59.0744 83.908 59.4744 83.058 59.8944 82.208C60.0044 81.998 60.1245 81.788 60.2345 81.578C60.5745 80.928 60.9245 80.288 61.3145 79.648C61.4545 79.418 61.6045 79.178 61.7445 78.948C62.1245 78.338 62.5245 77.728 62.9445 77.128C63.0945 76.908 63.2444 76.688 63.4044 76.468C63.6744 76.098 63.9645 75.728 64.2445 75.358C64.7045 74.758 65.1745 74.158 65.6645 73.568C66.2445 72.878 66.8344 72.198 67.4644 71.518C67.8144 71.148 68.1744 70.788 68.5344 70.418C69.1944 69.758 69.8745 69.108 70.5745 68.498C70.7045 68.378 70.8444 68.268 70.9744 68.148C71.5844 67.618 72.2044 67.098 72.8344 66.608C72.9544 66.518 73.0745 66.418 73.1945 66.318C73.8945 65.778 74.6044 65.248 75.3344 64.748C75.4944 64.638 75.6645 64.528 75.8245 64.418C76.5345 63.938 77.2544 63.468 77.9744 63.028C78.0344 62.998 78.0844 62.958 78.1444 62.928C78.9544 62.438 79.7745 61.988 80.6045 61.548C80.7645 61.468 80.9244 61.378 81.0844 61.298C81.9644 60.848 82.8545 60.428 83.7445 60.038C83.8845 59.978 84.0345 59.918 84.1745 59.858C85.2045 59.418 86.2444 59.018 87.2844 58.658C87.4744 58.588 87.6645 58.528 87.8545 58.468C88.3445 58.308 88.8345 58.158 89.3245 58.008C89.5345 57.948 89.7345 57.888 89.9445 57.828C90.6245 57.638 91.3145 57.458 92.0045 57.298C92.0845 57.278 92.1545 57.268 92.2345 57.248C92.7645 57.128 93.2945 57.018 93.8245 56.918C94.0345 56.878 94.2445 56.848 94.4545 56.818C94.8545 56.748 95.2444 56.688 95.6444 56.628C95.8844 56.598 96.1345 56.568 96.3745 56.538C96.7345 56.498 97.0945 56.448 97.4545 56.418C97.7145 56.398 97.9644 56.378 98.2244 56.358C98.5644 56.328 98.9145 56.308 99.2545 56.288C99.5145 56.278 99.7744 56.268 100.034 56.258C100.364 56.248 100.704 56.238 101.034 56.238C101.294 56.238 101.564 56.248 101.824 56.248C102.154 56.258 102.474 56.258 102.804 56.278C103.064 56.288 103.334 56.308 103.594 56.328C103.914 56.348 104.234 56.378 104.554 56.408C104.814 56.438 105.084 56.458 105.344 56.498C105.654 56.538 105.974 56.578 106.284 56.618C106.544 56.658 106.804 56.698 107.064 56.738C107.374 56.788 107.684 56.848 107.984 56.908C108.234 56.958 108.494 57.008 108.744 57.068C109.044 57.138 109.354 57.208 109.654 57.288C109.904 57.348 110.154 57.418 110.394 57.488C110.694 57.578 110.994 57.668 111.284 57.758C111.524 57.838 111.764 57.908 112.004 57.988C112.304 58.088 112.594 58.208 112.884 58.318C113.114 58.408 113.344 58.488 113.574 58.588C113.874 58.708 114.164 58.848 114.454 58.978C114.664 59.078 114.884 59.168 115.094 59.268C115.394 59.418 115.684 59.568 115.984 59.728C116.184 59.828 116.384 59.928 116.574 60.038C116.894 60.218 117.214 60.418 117.524 60.618C117.684 60.718 117.844 60.808 117.994 60.908C118.464 61.208 118.924 61.528 119.364 61.868C121.434 63.408 123.174 65.188 124.594 67.158L116.624 56.128C115.204 54.168 113.464 52.388 111.394 50.838C110.944 50.508 110.484 50.188 110.024 49.888C109.864 49.788 109.704 49.698 109.544 49.598C109.234 49.398 108.914 49.208 108.594 49.028C108.404 48.918 108.204 48.818 108.004 48.718C107.704 48.558 107.414 48.398 107.114 48.258C106.904 48.158 106.684 48.058 106.464 47.958C106.174 47.828 105.884 47.688 105.584 47.568C105.354 47.478 105.124 47.388 104.894 47.298C104.604 47.188 104.304 47.078 104.014 46.968C103.774 46.888 103.534 46.808 103.294 46.738C102.994 46.648 102.704 46.548 102.404 46.468C102.154 46.398 101.904 46.328 101.654 46.268C101.354 46.188 101.054 46.118 100.754 46.048C100.504 45.988 100.244 45.938 99.9945 45.888C99.6845 45.828 99.3845 45.768 99.0745 45.718C98.8145 45.678 98.5545 45.638 98.3045 45.598C97.9945 45.548 97.6845 45.508 97.3645 45.478C97.1045 45.448 96.8345 45.418 96.5745 45.388C96.2545 45.358 95.9445 45.338 95.6245 45.308C95.3645 45.288 95.0945 45.268 94.8245 45.258C94.5045 45.248 94.1745 45.238 93.8545 45.228C93.5945 45.218 93.3245 45.218 93.0645 45.218C92.7345 45.218 92.4045 45.228 92.0745 45.238C91.8145 45.248 91.5444 45.248 91.2844 45.268C90.9444 45.288 90.6045 45.308 90.2545 45.338C89.9945 45.358 89.7445 45.378 89.4845 45.398C89.1245 45.428 88.7645 45.478 88.4145 45.518C88.1645 45.548 87.9245 45.568 87.6745 45.608C87.2845 45.658 86.8945 45.728 86.4945 45.798C86.2845 45.838 86.0745 45.868 85.8645 45.898C85.3345 45.998 84.8044 46.108 84.2744 46.228C84.2044 46.248 84.1245 46.258 84.0545 46.278H84.0445C83.3545 46.438 82.6745 46.618 81.9845 46.808C81.7745 46.868 81.5745 46.928 81.3645 46.988C80.8745 47.128 80.3844 47.288 79.8944 47.448C79.7644 47.488 79.6445 47.518 79.5145 47.568C79.4445 47.588 79.3845 47.618 79.3145 47.648C78.2745 48.008 77.2345 48.408 76.2045 48.848C76.1245 48.878 76.0544 48.908 75.9744 48.938C75.9044 48.968 75.8444 49.008 75.7744 49.038C74.8844 49.428 73.9945 49.848 73.1145 50.298C73.0445 50.328 72.9744 50.358 72.9044 50.398C72.8144 50.448 72.7245 50.498 72.6345 50.548C71.8045 50.988 70.9845 51.438 70.1745 51.918C70.1645 51.928 70.1445 51.928 70.1345 51.938C70.0945 51.968 70.0445 51.998 70.0045 52.018C69.2745 52.458 68.5645 52.918 67.8545 53.408C67.7545 53.478 67.6545 53.528 67.5645 53.598C67.4945 53.648 67.4345 53.698 67.3645 53.748C66.6445 54.248 65.9345 54.768 65.2345 55.318C65.1945 55.348 65.1545 55.368 65.1245 55.398C65.0445 55.468 64.9645 55.538 64.8745 55.608C64.2445 56.098 63.6344 56.618 63.0244 57.148C62.9344 57.228 62.8345 57.298 62.7445 57.378C62.7045 57.418 62.6545 57.458 62.6145 57.498C61.9245 58.118 61.2444 58.758 60.5844 59.418C60.5244 59.478 60.4644 59.528 60.4044 59.588C60.1044 59.888 59.8045 60.198 59.5045 60.518C59.0045 61.048 58.5145 61.588 58.0445 62.138C57.9245 62.278 57.8245 62.428 57.7045 62.568C57.2045 63.158 56.7444 63.758 56.2844 64.358C56.0944 64.608 55.8645 64.858 55.6845 65.118C55.6045 65.238 55.5245 65.348 55.4445 65.468C55.2845 65.688 55.1445 65.908 54.9845 66.128C54.5645 66.738 54.1644 67.348 53.7844 67.958C53.6444 68.188 53.4945 68.418 53.3545 68.648C53.2745 68.788 53.1844 68.928 53.0944 69.058C52.8044 69.568 52.5345 70.078 52.2645 70.588C52.1545 70.798 52.0345 71.008 51.9245 71.218C51.4845 72.008 51.0945 72.868 50.7345 73.728Z" fill="url(#paint2_linear_1_90)"/>
<path d="M153.454 114.518C154.174 113.408 154.864 112.288 155.524 111.158C155.614 111.008 155.724 110.848 155.804 110.698C155.964 110.428 156.104 110.158 156.264 109.878C156.444 109.568 156.614 109.248 156.794 108.938C157.114 108.358 157.414 107.778 157.714 107.198C157.854 106.918 158.004 106.648 158.144 106.368C158.554 105.558 158.944 104.748 159.324 103.938C159.344 103.898 159.364 103.848 159.384 103.808C159.784 102.948 160.154 102.088 160.514 101.228C160.624 100.958 160.734 100.688 160.844 100.418C161.084 99.8179 161.324 99.2279 161.554 98.6279C161.674 98.3079 161.794 97.9879 161.904 97.6679C162.104 97.1079 162.304 96.5479 162.494 95.9879C162.604 95.6679 162.714 95.3379 162.814 95.0179C163.004 94.4379 163.174 93.8579 163.354 93.2679C163.444 92.9779 163.524 92.6979 163.614 92.4079C163.834 91.6379 164.034 90.8679 164.224 90.0979C164.244 89.9979 164.274 89.9079 164.294 89.8079C164.504 88.9479 164.694 88.0779 164.864 87.2179C164.914 86.9579 164.964 86.6979 165.014 86.4379C165.124 85.8379 165.234 85.2279 165.334 84.6279C165.384 84.3179 165.434 83.9979 165.474 83.6879C165.554 83.1279 165.634 82.5779 165.704 82.0179C165.744 81.6979 165.784 81.3779 165.814 81.0679C165.874 80.4979 165.924 79.9279 165.974 79.3579C165.994 79.0679 166.024 78.7879 166.044 78.4979C166.094 77.7779 166.124 77.0479 166.144 76.3279C166.144 76.2079 166.154 76.0779 166.164 75.9579C166.184 75.1779 166.194 74.4079 166.184 73.6379C166.184 73.5979 166.174 73.5479 166.174 73.5079C166.154 72.2979 166.094 71.1079 166.004 69.9179C165.984 69.6379 165.954 69.3479 165.924 69.0679C165.824 67.9579 165.694 66.8579 165.524 65.7679C165.514 65.6879 165.504 65.5979 165.494 65.5179C165.494 65.4879 165.484 65.4679 165.484 65.4379C165.334 64.4779 165.154 63.5179 164.944 62.5679C164.884 62.3079 164.824 62.0479 164.764 61.7879C164.604 61.0979 164.434 60.4179 164.254 59.7379C164.224 59.6179 164.194 59.4879 164.164 59.3679C164.094 59.1079 164.004 58.8679 163.924 58.6079C163.784 58.1379 163.644 57.6679 163.484 57.2079C163.354 56.8279 163.224 56.4379 163.084 56.0579C162.924 55.5979 162.754 55.1479 162.574 54.6979C162.504 54.5279 162.454 54.3479 162.384 54.1779C162.294 53.9579 162.194 53.7379 162.094 53.5079C161.934 53.1279 161.774 52.7579 161.604 52.3779C161.424 51.9779 161.234 51.5779 161.044 51.1779C160.864 50.8079 160.684 50.4379 160.504 50.0779C160.424 49.9179 160.354 49.7579 160.274 49.6079C160.144 49.3579 159.994 49.1179 159.864 48.8779C159.684 48.5579 159.504 48.2279 159.324 47.9079C159.084 47.4979 158.844 47.0979 158.594 46.6979C158.404 46.3879 158.214 46.0779 158.014 45.7779C157.954 45.6779 157.894 45.5779 157.824 45.4779C157.474 44.9479 157.104 44.4179 156.724 43.8979L148.754 32.8679C149.204 33.4879 149.624 34.1179 150.034 34.7479C150.234 35.0479 150.424 35.3579 150.614 35.6679C150.864 36.0679 151.114 36.4779 151.354 36.8879C151.534 37.2079 151.714 37.5279 151.894 37.8479C152.114 38.2479 152.334 38.6579 152.544 39.0579C152.734 39.4179 152.914 39.7879 153.084 40.1579C153.274 40.5579 153.464 40.9579 153.644 41.3579C153.814 41.7279 153.974 42.1079 154.134 42.4879C154.304 42.8779 154.464 43.2779 154.614 43.6779C154.794 44.1279 154.954 44.5779 155.124 45.0379C155.264 45.4179 155.394 45.7979 155.524 46.1879C155.674 46.6479 155.814 47.1179 155.954 47.5879C156.064 47.9679 156.174 48.3379 156.284 48.7179C156.464 49.3979 156.634 50.0779 156.794 50.7679C156.854 51.0279 156.924 51.2879 156.974 51.5479C157.174 52.4979 157.354 53.4479 157.514 54.4179C157.534 54.5279 157.544 54.6379 157.554 54.7479C157.724 55.8379 157.844 56.9379 157.954 58.0479C157.984 58.3279 158.004 58.6079 158.034 58.8979C158.124 60.0879 158.184 61.2879 158.204 62.4979C158.214 63.3079 158.214 64.1279 158.194 64.9479C158.194 65.0779 158.184 65.2079 158.174 65.3379C158.154 66.0479 158.114 66.7679 158.074 67.4879C158.054 67.7779 158.024 68.0679 158.004 68.3579C157.954 68.9279 157.904 69.4879 157.844 70.0579C157.814 70.3779 157.774 70.6979 157.734 71.0179C157.664 71.5679 157.594 72.1179 157.514 72.6779C157.464 72.9979 157.424 73.3079 157.374 73.6279C157.274 74.2279 157.164 74.8279 157.054 75.4279C157.004 75.6879 156.964 75.9579 156.904 76.2179C156.734 77.0779 156.544 77.9379 156.334 78.8079C156.314 78.8979 156.284 78.9879 156.264 79.0779C156.074 79.8579 155.864 80.6279 155.654 81.4079C155.574 81.6979 155.484 81.9779 155.404 82.2679C155.234 82.8479 155.054 83.4379 154.864 84.0179C154.764 84.3379 154.654 84.6679 154.544 84.9879C154.354 85.5479 154.164 86.1079 153.954 86.6579C153.834 86.9779 153.724 87.2979 153.604 87.6179C153.374 88.2179 153.144 88.8079 152.904 89.3979C152.794 89.6679 152.684 89.9479 152.574 90.2179C152.214 91.0779 151.834 91.9379 151.444 92.7979C151.424 92.8479 151.394 92.8979 151.374 92.9379C150.994 93.7479 150.604 94.5579 150.194 95.3579C150.054 95.6379 149.904 95.9079 149.764 96.1879C149.464 96.7679 149.154 97.3479 148.844 97.9179C148.674 98.2379 148.494 98.5479 148.314 98.8679C148.074 99.2979 147.824 99.7179 147.574 100.138C146.914 101.268 146.224 102.388 145.504 103.498C145.464 103.568 145.424 103.638 145.374 103.698C144.614 104.868 143.804 106.028 142.964 107.178C142.714 107.528 142.454 107.878 142.194 108.228C141.764 108.808 141.324 109.378 140.884 109.948C140.584 110.328 140.294 110.708 139.984 111.078C139.514 111.658 139.034 112.238 138.554 112.808C138.264 113.158 137.974 113.498 137.674 113.848C136.814 114.838 135.924 115.828 135.014 116.798C134.224 117.638 133.414 118.448 132.604 119.248C132.294 119.558 131.984 119.858 131.674 120.158C131.074 120.738 130.464 121.308 129.854 121.868C129.554 122.148 129.254 122.418 128.954 122.688C128.144 123.418 127.324 124.128 126.494 124.818C126.404 124.898 126.314 124.968 126.224 125.048C125.304 125.818 124.364 126.558 123.424 127.288C123.154 127.498 122.874 127.708 122.594 127.918C121.904 128.438 121.214 128.958 120.514 129.458C120.194 129.688 119.884 129.908 119.564 130.138C118.844 130.638 118.124 131.138 117.394 131.618C117.124 131.798 116.854 131.978 116.584 132.158C115.594 132.798 114.604 133.418 113.604 134.018C113.384 134.148 113.164 134.268 112.954 134.398C112.144 134.878 111.334 135.348 110.514 135.798C110.154 135.998 109.794 136.188 109.434 136.378C108.764 136.738 108.084 137.088 107.404 137.438C106.944 137.668 106.494 137.898 106.034 138.118C105.404 138.428 104.764 138.728 104.124 139.018C103.664 139.228 103.204 139.438 102.734 139.648C102.144 139.908 101.554 140.158 100.964 140.398C100.364 140.648 99.7644 140.898 99.1644 141.138C98.5944 141.358 98.0245 141.578 97.4545 141.788C96.8445 142.018 96.2445 142.238 95.6345 142.448C95.1445 142.618 94.6444 142.788 94.1444 142.948C93.1644 143.278 92.1745 143.578 91.1945 143.868C90.7745 143.988 90.3645 144.118 89.9445 144.238C88.5745 144.618 87.1945 144.978 85.8145 145.298C85.6745 145.328 85.5345 145.358 85.3845 145.388C84.3145 145.628 83.2344 145.848 82.1644 146.048C81.7444 146.128 81.3244 146.188 80.9044 146.258C80.1144 146.388 79.3144 146.528 78.5244 146.638C78.0344 146.708 77.5545 146.758 77.0645 146.818C76.3445 146.908 75.6244 146.998 74.9044 147.068C74.3844 147.118 73.8744 147.148 73.3544 147.188C72.6644 147.238 71.9744 147.288 71.2944 147.328C70.7644 147.358 70.2444 147.368 69.7144 147.378C69.0444 147.398 68.3744 147.418 67.7144 147.418C67.1844 147.418 66.6545 147.408 66.1245 147.398C65.4745 147.388 64.8244 147.368 64.1744 147.338C63.6444 147.318 63.1144 147.278 62.5844 147.238C61.9444 147.198 61.3044 147.148 60.6744 147.088C60.1444 147.038 59.6244 146.978 59.0944 146.918C58.4644 146.848 57.8344 146.758 57.2144 146.668C56.6944 146.588 56.1744 146.508 55.6544 146.418C55.0344 146.308 54.4244 146.198 53.8044 146.068C53.2944 145.968 52.7844 145.858 52.2744 145.748C51.6644 145.608 51.0645 145.458 50.4545 145.308C49.9545 145.178 49.4544 145.048 48.9644 144.908C48.3644 144.738 47.7744 144.548 47.1744 144.358C46.6944 144.208 46.2044 144.048 45.7344 143.888C45.1444 143.678 44.5544 143.458 43.9644 143.228C43.5044 143.048 43.0344 142.878 42.5844 142.688C41.9944 142.438 41.4145 142.178 40.8245 141.908C40.3845 141.708 39.9544 141.518 39.5244 141.308C38.9244 141.018 38.3344 140.698 37.7444 140.388C37.3544 140.178 36.9545 139.978 36.5645 139.758C35.9145 139.388 35.2844 138.998 34.6544 138.608C34.3444 138.418 34.0145 138.228 33.7045 138.028C32.7645 137.418 31.8545 136.788 30.9545 136.118C26.8145 133.028 23.3144 129.458 20.4644 125.518L28.4344 136.548C31.2844 140.488 34.7744 144.058 38.9244 147.148C39.8244 147.818 40.7444 148.458 41.6744 149.058C41.9844 149.258 42.3045 149.438 42.6245 149.638C43.2545 150.028 43.8844 150.428 44.5344 150.788C44.9244 151.008 45.3244 151.208 45.7144 151.418C46.3044 151.728 46.8944 152.048 47.4944 152.338C47.9244 152.548 48.3644 152.738 48.7944 152.938C49.3744 153.198 49.9544 153.468 50.5544 153.718C51.0144 153.908 51.4744 154.078 51.9344 154.258C52.5244 154.478 53.1045 154.708 53.7045 154.918C54.1845 155.088 54.6644 155.238 55.1444 155.388C55.7344 155.578 56.3344 155.768 56.9344 155.938C57.4244 156.078 57.9244 156.208 58.4244 156.338C59.0244 156.498 59.6344 156.648 60.2444 156.778C60.7544 156.888 61.2644 156.998 61.7744 157.098C62.3844 157.218 63.0045 157.338 63.6245 157.448C64.1345 157.538 64.6544 157.618 65.1744 157.698C65.8044 157.788 66.4345 157.868 67.0645 157.948C67.5845 158.008 68.1145 158.068 68.6345 158.118C69.2745 158.178 69.9144 158.228 70.5544 158.268C71.0844 158.308 71.6144 158.338 72.1444 158.358C72.7944 158.388 73.4444 158.398 74.1044 158.418C74.6344 158.428 75.1645 158.438 75.6945 158.438C76.3645 158.438 77.0345 158.418 77.7045 158.398C78.2245 158.378 78.7544 158.368 79.2744 158.348C79.9644 158.318 80.6544 158.258 81.3444 158.208C81.8544 158.168 82.3645 158.138 82.8845 158.088C83.6045 158.018 84.3344 157.928 85.0544 157.838C85.5444 157.778 86.0245 157.728 86.5145 157.658C87.3045 157.548 88.1044 157.408 88.8944 157.278C89.3144 157.208 89.7344 157.148 90.1544 157.068C91.2444 156.868 92.3344 156.638 93.4244 156.398C93.5444 156.368 93.6644 156.348 93.7844 156.328H93.7944C95.1744 156.018 96.5444 155.658 97.9244 155.268C98.3444 155.148 98.7544 155.028 99.1744 154.898C100.164 154.608 101.144 154.298 102.124 153.978C102.374 153.898 102.624 153.828 102.874 153.748C103.124 153.668 103.364 153.568 103.614 153.478C104.224 153.268 104.824 153.048 105.424 152.818C105.994 152.608 106.564 152.388 107.134 152.168C107.734 151.928 108.334 151.678 108.934 151.428C109.274 151.288 109.624 151.158 109.974 151.008C110.214 150.898 110.464 150.788 110.704 150.678C111.164 150.478 111.624 150.258 112.094 150.048C112.734 149.758 113.364 149.458 114.004 149.148C114.464 148.928 114.924 148.698 115.374 148.468C115.624 148.338 115.884 148.218 116.134 148.088C116.554 147.868 116.974 147.628 117.404 147.408C117.764 147.218 118.124 147.028 118.484 146.828C119.304 146.378 120.124 145.908 120.934 145.428C121.144 145.298 121.364 145.188 121.574 145.058C121.614 145.038 121.654 145.018 121.694 144.988C122.654 144.408 123.614 143.808 124.564 143.188C124.834 143.008 125.104 142.828 125.374 142.648C125.864 142.318 126.364 141.998 126.854 141.658C127.084 141.498 127.314 141.328 127.534 141.168C127.854 140.948 128.174 140.718 128.494 140.488C129.194 139.988 129.884 139.478 130.564 138.958C130.844 138.748 131.114 138.538 131.394 138.328C131.514 138.238 131.634 138.148 131.744 138.058C132.564 137.418 133.384 136.758 134.194 136.078C134.284 135.998 134.374 135.928 134.464 135.848C135.144 135.278 135.824 134.698 136.494 134.098C136.634 133.968 136.774 133.838 136.914 133.708C137.214 133.438 137.514 133.158 137.814 132.888C138.424 132.328 139.034 131.758 139.644 131.168C139.954 130.868 140.264 130.568 140.574 130.258C140.774 130.058 140.984 129.858 141.194 129.658C141.794 129.048 142.394 128.428 142.984 127.808C143.904 126.838 144.784 125.848 145.644 124.858C145.734 124.758 145.824 124.658 145.914 124.568C146.124 124.318 146.324 124.068 146.534 123.818C147.014 123.248 147.504 122.668 147.964 122.088C148.264 121.708 148.564 121.328 148.864 120.948C149.314 120.378 149.744 119.808 150.174 119.228C150.334 119.018 150.504 118.808 150.654 118.588C150.754 118.448 150.844 118.308 150.944 118.178C151.774 117.028 152.584 115.868 153.354 114.698C153.374 114.658 153.414 114.588 153.454 114.518Z" fill="url(#paint3_linear_1_90)"/>
<path d="M34.2244 41.6279C63.8744 10.1979 110.454 1.53793 138.284 22.2979C166.104 43.0479 164.634 85.3579 134.994 116.798C105.354 148.228 58.7645 156.878 30.9445 136.128C3.11447 115.368 4.59444 73.0579 34.2244 41.6279ZM109.724 97.9479C124.514 82.2679 125.244 61.1779 111.374 50.8279C97.4945 40.4779 74.2745 44.7879 59.4845 60.4679C44.7045 76.1379 43.9744 97.2279 57.8544 107.578C71.7244 117.928 94.9444 113.618 109.724 97.9479Z" fill="url(#paint4_linear_1_90)"/>
</g>
<defs>
<filter id="filter0_f_1_90" x="0" y="0" width="177.188" height="169.438" filterUnits="userSpaceOnUse" color-interpolation-filters="sRGB">
<feFlood flood-opacity="0" result="BackgroundImageFix"/>
<feBlend mode="normal" in="SourceGraphic" in2="BackgroundImageFix" result="shape"/>
<feGaussianBlur stdDeviation="5.5" result="effect1_foregroundBlur_1_90"/>
</filter>
<linearGradient id="paint0_linear_1_90" x1="62.0103" y1="57.9168" x2="97.9051" y2="93.8116" gradientUnits="userSpaceOnUse">
<stop stop-color="#B029FF"/>
<stop offset="0.8286" stop-color="#691EC1"/>
<stop offset="1" stop-color="#9024E3"/>
</linearGradient>
<linearGradient id="paint1_linear_1_90" x1="20.4528" y1="95.6663" x2="166.192" y2="95.6663" gradientUnits="userSpaceOnUse">
<stop stop-color="#9024E3"/>
<stop offset="0.2924" stop-color="#B84AFF"/>
<stop offset="1" stop-color="#691EC1"/>
</linearGradient>
<linearGradient id="paint2_linear_1_90" x1="43.1959" y1="152.189" x2="155.627" y2="39.7584" gradientUnits="userSpaceOnUse">
<stop offset="0.1766" stop-color="#00EBF9"/>
<stop offset="1" stop-color="#005CFF"/>
</linearGradient>
<linearGradient id="paint3_linear_1_90" x1="43.1959" y1="152.189" x2="155.627" y2="39.7583" gradientUnits="userSpaceOnUse">
<stop offset="0.1766" stop-color="#00EBF9"/>
<stop offset="1" stop-color="#005CFF"/>
</linearGradient>
<linearGradient id="paint4_linear_1_90" x1="40.5981" y1="35.2002" x2="128.622" y2="123.224" gradientUnits="userSpaceOnUse">
<stop offset="0.1766" stop-color="#00D3F8"/>
<stop offset="1" stop-color="#008FFF"/>
</linearGradient>
</defs>
</svg>
