<svg width="286" height="286" viewBox="0 0 286 286" fill="none" xmlns="http://www.w3.org/2000/svg">
<g filter="url(#filter0_bd_1_20)">
<path d="M53 71.8C53 63.5332 53 59.3998 55.2949 56.6258C55.6957 56.1413 56.1413 55.6957 56.6258 55.2949C59.3998 53 63.5332 53 71.8 53L214.2 53C222.467 53 226.6 53 229.374 55.2949C229.859 55.6957 230.304 56.1413 230.705 56.6258C233 59.3998 233 63.5332 233 71.8V214.2C233 222.467 233 226.6 230.705 229.374C230.304 229.859 229.859 230.304 229.374 230.705C226.6 233 222.467 233 214.2 233H71.8C63.5332 233 59.3998 233 56.6258 230.705C56.1413 230.304 55.6957 229.859 55.2949 229.374C53 226.6 53 222.467 53 214.2L53 71.8Z" fill="url(#paint0_linear_1_20)" fill-opacity="0.5" shape-rendering="crispEdges"/>
</g>
<defs>
<filter id="filter0_bd_1_20" x="0" y="0" width="286" height="286" filterUnits="userSpaceOnUse" color-interpolation-filters="sRGB">
<feFlood flood-opacity="0" result="BackgroundImageFix"/>
<feGaussianBlur in="BackgroundImageFix" stdDeviation="21"/>
<feComposite in2="SourceAlpha" operator="in" result="effect1_backgroundBlur_1_20"/>
<feColorMatrix in="SourceAlpha" type="matrix" values="0 0 0 0 0 0 0 0 0 0 0 0 0 0 0 0 0 0 127 0" result="hardAlpha"/>
<feOffset/>
<feGaussianBlur stdDeviation="26.5"/>
<feComposite in2="hardAlpha" operator="out"/>
<feColorMatrix type="matrix" values="0 0 0 0 0 0 0 0 0 0 0 0 0 0 0 0 0 0 0.25 0"/>
<feBlend mode="normal" in2="effect1_backgroundBlur_1_20" result="effect2_dropShadow_1_20"/>
<feBlend mode="normal" in="SourceGraphic" in2="effect2_dropShadow_1_20" result="shape"/>
</filter>
<linearGradient id="paint0_linear_1_20" x1="53" y1="53" x2="163.046" y2="268.691" gradientUnits="userSpaceOnUse">
<stop stop-color="white" stop-opacity="0.4"/>
<stop offset="1" stop-color="white" stop-opacity="0"/>
</linearGradient>
</defs>
</svg>
