<svg width="239" height="195" viewBox="0 0 239 195" fill="none" xmlns="http://www.w3.org/2000/svg">
<g opacity="0.15">
<path opacity="0.0323" d="M151.314 194.413C198.439 194.413 236.642 180.277 236.642 162.839C236.642 145.4 198.439 131.264 151.314 131.264C104.189 131.264 65.9861 145.4 65.9861 162.839C65.9861 180.277 104.189 194.413 151.314 194.413Z" fill="#231F20"/>
<path opacity="0.0645" d="M149.113 194.147C196.238 194.147 234.44 180.01 234.44 162.572C234.44 145.134 196.238 130.997 149.113 130.997C101.987 130.997 63.7849 145.134 63.7849 162.572C63.7849 180.01 101.987 194.147 149.113 194.147Z" fill="#231F20"/>
<path opacity="0.0968" d="M146.911 193.878C194.036 193.878 232.239 179.741 232.239 162.303C232.239 144.865 194.036 130.728 146.911 130.728C99.7861 130.728 61.5836 144.865 61.5836 162.303C61.5836 179.741 99.7861 193.878 146.911 193.878Z" fill="#231F20"/>
<path opacity="0.129" d="M144.714 193.613C191.84 193.613 230.042 179.476 230.042 162.038C230.042 144.599 191.84 130.463 144.714 130.463C97.5892 130.463 59.3867 144.599 59.3867 162.038C59.3867 179.476 97.5892 193.613 144.714 193.613Z" fill="#231F20"/>
<path opacity="0.1613" d="M142.513 193.347C189.638 193.347 227.841 179.21 227.841 161.772C227.841 144.334 189.638 130.197 142.513 130.197C95.388 130.197 57.1854 144.334 57.1854 161.772C57.1854 179.21 95.388 193.347 142.513 193.347Z" fill="#231F20"/>
<path opacity="0.1935" d="M140.316 193.082C187.441 193.082 225.644 178.946 225.644 161.507C225.644 144.069 187.441 129.932 140.316 129.932C93.1911 129.932 54.9885 144.069 54.9885 161.507C54.9885 178.946 93.1911 193.082 140.316 193.082Z" fill="#231F20"/>
<path opacity="0.2258" d="M138.115 192.812C185.24 192.812 223.443 178.676 223.443 161.238C223.443 143.799 185.24 129.663 138.115 129.663C90.9897 129.663 52.7872 143.799 52.7872 161.238C52.7872 178.676 90.9897 192.812 138.115 192.812Z" fill="#231F20"/>
<path opacity="0.2581" d="M135.914 192.547C183.039 192.547 221.241 178.41 221.241 160.972C221.241 143.534 183.039 129.397 135.914 129.397C88.7885 129.397 50.5859 143.534 50.5859 160.972C50.5859 178.41 88.7885 192.547 135.914 192.547Z" fill="#231F20"/>
<path opacity="0.2903" d="M133.717 192.281C180.842 192.281 219.044 178.145 219.044 160.706C219.044 143.268 180.842 129.132 133.717 129.132C86.5914 129.132 48.3889 143.268 48.3889 160.706C48.3889 178.145 86.5914 192.281 133.717 192.281Z" fill="#231F20"/>
<path opacity="0.3226" d="M131.515 192.011C178.641 192.011 216.843 177.875 216.843 160.437C216.843 142.998 178.641 128.862 131.515 128.862C84.3903 128.862 46.1877 142.998 46.1877 160.437C46.1877 177.875 84.3903 192.011 131.515 192.011Z" fill="#231F20"/>
<path opacity="0.3548" d="M129.319 191.746C176.444 191.746 214.646 177.61 214.646 160.171C214.646 142.733 176.444 128.596 129.319 128.596C82.1933 128.596 43.9908 142.733 43.9908 160.171C43.9908 177.61 82.1933 191.746 129.319 191.746Z" fill="#231F20"/>
<path opacity="0.3871" d="M127.117 191.481C174.242 191.481 212.445 177.345 212.445 159.906C212.445 142.468 174.242 128.332 127.117 128.332C79.9921 128.332 41.7896 142.468 41.7896 159.906C41.7896 177.345 79.9921 191.481 127.117 191.481Z" fill="#231F20"/>
<path opacity="0.4194" d="M124.916 191.215C172.041 191.215 210.244 177.079 210.244 159.641C210.244 142.202 172.041 128.066 124.916 128.066C77.7907 128.066 39.5882 142.202 39.5882 159.641C39.5882 177.079 77.7907 191.215 124.916 191.215Z" fill="#231F20"/>
<path opacity="0.4516" d="M122.719 190.946C169.844 190.946 208.047 176.81 208.047 159.371C208.047 141.933 169.844 127.796 122.719 127.796C75.5938 127.796 37.3913 141.933 37.3913 159.371C37.3913 176.81 75.5938 190.946 122.719 190.946Z" fill="#231F20"/>
<path opacity="0.4839" d="M120.518 190.68C167.643 190.68 205.845 176.544 205.845 159.105C205.845 141.667 167.643 127.531 120.518 127.531C73.3925 127.531 35.19 141.667 35.19 159.105C35.19 176.544 73.3925 190.68 120.518 190.68Z" fill="#231F20"/>
<path opacity="0.5161" d="M118.321 190.415C165.446 190.415 203.649 176.279 203.649 158.84C203.649 141.402 165.446 127.266 118.321 127.266C71.1957 127.266 32.9932 141.402 32.9932 158.84C32.9932 176.279 71.1957 190.415 118.321 190.415Z" fill="#231F20"/>
<path opacity="0.5484" d="M116.12 190.145C163.245 190.145 201.447 176.009 201.447 158.57C201.447 141.132 163.245 126.996 116.12 126.996C68.9945 126.996 30.7919 141.132 30.7919 158.57C30.7919 176.009 68.9945 190.145 116.12 190.145Z" fill="#231F20"/>
<path opacity="0.5806" d="M113.918 189.88C161.044 189.88 199.246 175.744 199.246 158.305C199.246 140.867 161.044 126.73 113.918 126.73C66.7932 126.73 28.5906 140.867 28.5906 158.305C28.5906 175.744 66.7932 189.88 113.918 189.88Z" fill="#231F20"/>
<path opacity="0.6129" d="M111.721 189.615C158.847 189.615 197.049 175.478 197.049 158.04C197.049 140.602 158.847 126.465 111.721 126.465C64.5962 126.465 26.3937 140.602 26.3937 158.04C26.3937 175.478 64.5962 189.615 111.721 189.615Z" fill="#231F20"/>
<path opacity="0.6452" d="M109.52 189.349C156.645 189.349 194.848 175.212 194.848 157.774C194.848 140.336 156.645 126.199 109.52 126.199C62.3948 126.199 24.1923 140.336 24.1923 157.774C24.1923 175.212 62.3948 189.349 109.52 189.349Z" fill="#231F20"/>
<path opacity="0.6774" d="M107.323 189.079C154.448 189.079 192.651 174.942 192.651 157.504C192.651 140.066 154.448 125.929 107.323 125.929C60.198 125.929 21.9955 140.066 21.9955 157.504C21.9955 174.942 60.198 189.079 107.323 189.079Z" fill="#231F20"/>
<path opacity="0.7097" d="M105.122 188.814C152.247 188.814 190.45 174.677 190.45 157.239C190.45 139.801 152.247 125.664 105.122 125.664C57.9967 125.664 19.7942 139.801 19.7942 157.239C19.7942 174.677 57.9967 188.814 105.122 188.814Z" fill="#231F20"/>
<path opacity="0.7419" d="M102.921 188.549C150.046 188.549 188.248 174.412 188.248 156.974C188.248 139.535 150.046 125.399 102.921 125.399C55.7954 125.399 17.5928 139.535 17.5928 156.974C17.5928 174.412 55.7954 188.549 102.921 188.549Z" fill="#231F20"/>
<path opacity="0.7742" d="M100.724 188.279C147.849 188.279 186.051 174.142 186.051 156.704C186.051 139.266 147.849 125.129 100.724 125.129C53.5985 125.129 15.396 139.266 15.396 156.704C15.396 174.142 53.5985 188.279 100.724 188.279Z" fill="#231F20"/>
<path opacity="0.8065" d="M98.5224 188.014C145.648 188.014 183.85 173.877 183.85 156.439C183.85 139.001 145.648 124.864 98.5224 124.864C51.3972 124.864 13.1946 139.001 13.1946 156.439C13.1946 173.877 51.3972 188.014 98.5224 188.014Z" fill="#231F20"/>
<path opacity="0.8387" d="M96.3254 187.748C143.451 187.748 181.653 173.612 181.653 156.173C181.653 138.735 143.451 124.598 96.3254 124.598C49.2002 124.598 10.9977 138.735 10.9977 156.173C10.9977 173.612 49.2002 187.748 96.3254 187.748Z" fill="#231F20"/>
<path opacity="0.871" d="M94.1242 187.483C141.249 187.483 179.452 173.347 179.452 155.908C179.452 138.47 141.249 124.333 94.1242 124.333C46.999 124.333 8.79651 138.47 8.79651 155.908C8.79651 173.347 46.999 187.483 94.1242 187.483Z" fill="#231F20"/>
<path opacity="0.9032" d="M91.923 187.213C139.048 187.213 177.251 173.076 177.251 155.638C177.251 138.2 139.048 124.063 91.923 124.063C44.7977 124.063 6.59521 138.2 6.59521 155.638C6.59521 173.076 44.7977 187.213 91.923 187.213Z" fill="#231F20"/>
<path opacity="0.9355" d="M89.7261 186.947C136.851 186.947 175.054 172.811 175.054 155.373C175.054 137.934 136.851 123.798 89.7261 123.798C42.6009 123.798 4.39838 137.934 4.39838 155.373C4.39838 172.811 42.6009 186.947 89.7261 186.947Z" fill="#231F20"/>
<path opacity="0.9677" d="M87.5247 186.683C134.65 186.683 172.852 172.546 172.852 155.108C172.852 137.669 134.65 123.533 87.5247 123.533C40.3995 123.533 2.19702 137.669 2.19702 155.108C2.19702 172.546 40.3995 186.683 87.5247 186.683Z" fill="#231F20"/>
<path d="M85.3278 186.413C132.453 186.413 170.656 172.276 170.656 154.838C170.656 137.4 132.453 123.263 85.3278 123.263C38.2026 123.263 6.10352e-05 137.4 6.10352e-05 154.838C6.10352e-05 172.276 38.2026 186.413 85.3278 186.413Z" fill="#231F20"/>
</g>
<path d="M6.10352e-05 105.957V156.743H0.161022C2.82343 173.292 39.9319 186.413 85.3278 186.413C130.724 186.413 167.832 173.292 170.495 156.743H170.656V105.957H6.10352e-05Z" fill="url(#paint0_linear_116_2)"/>
<path opacity="0.5" d="M6.10352e-05 105.957V156.743H0.161022C2.82343 173.292 39.9319 186.413 85.3278 186.413C130.724 186.413 167.832 173.292 170.495 156.743H170.656V105.957H6.10352e-05Z" fill="url(#paint1_linear_116_2)"/>
<path d="M85.3278 139.333C132.453 139.333 170.656 125.196 170.656 107.758C170.656 90.3199 132.453 76.1833 85.3278 76.1833C38.2026 76.1833 6.10352e-05 90.3199 6.10352e-05 107.758C6.10352e-05 125.196 38.2026 139.333 85.3278 139.333Z" fill="#638BD0"/>
<path d="M85.3278 137.945C132.453 137.945 170.656 123.809 170.656 106.37C170.656 88.9322 132.453 74.7957 85.3278 74.7957C38.2026 74.7957 6.10352e-05 88.9322 6.10352e-05 106.37C6.10352e-05 123.809 38.2026 137.945 85.3278 137.945Z" fill="url(#paint2_linear_116_2)"/>
<mask id="mask0_116_2" style="mask-type:alpha" maskUnits="userSpaceOnUse" x="3" y="76" width="164" height="61">
<path d="M85.3278 136.557C130.384 136.557 166.91 123.042 166.91 106.37C166.91 89.6986 130.384 76.1833 85.3278 76.1833C40.2713 76.1833 3.74573 89.6986 3.74573 106.37C3.74573 123.042 40.2713 136.557 85.3278 136.557Z" fill="url(#paint3_linear_116_2)"/>
</mask>
<g mask="url(#mask0_116_2)">
<path d="M85.3278 136.557C130.384 136.557 166.91 123.042 166.91 106.37C166.91 89.6986 130.384 76.1833 85.3278 76.1833C40.2713 76.1833 3.74573 89.6986 3.74573 106.37C3.74573 123.042 40.2713 136.557 85.3278 136.557Z" fill="url(#paint4_linear_116_2)"/>
</g>
<path opacity="0.15" d="M82.0857 117.438C111.956 117.438 136.171 115.768 136.171 113.708C136.171 111.647 111.956 109.977 82.0857 109.977C52.215 109.977 28 111.647 28 113.708C28 115.768 52.215 117.438 82.0857 117.438Z" fill="black"/>
<path d="M120.613 79.0439C120.673 79.3049 120.729 79.5665 120.78 79.83C121.125 81.6107 121.259 83.44 121.199 85.2752C121.189 85.5752 121.174 85.8753 121.154 86.1754C121.034 87.9368 120.739 89.6969 120.279 91.4192C120.197 91.7276 120.11 92.0341 120.017 92.3399C119.431 94.2757 118.638 96.1532 117.658 97.9178C117.496 98.2128 117.326 98.5039 117.153 98.7918C115.837 100.974 114.229 102.962 112.37 104.643C112.039 104.943 111.7 105.235 111.352 105.514C110.953 105.836 110.544 106.144 110.125 106.439C109.593 106.811 108.755 107.445 107.963 107.638C107.705 107.701 107.452 107.717 107.216 107.663C107.166 107.651 107.118 107.637 107.069 107.618C105.751 107.122 105.641 104.133 105.561 102.929C105.532 102.498 105.515 102.068 105.51 101.638C105.501 101.118 105.51 100.598 105.535 100.081C105.608 98.4814 105.823 96.8964 106.144 95.3286C106.219 94.958 106.301 94.588 106.389 94.2187C106.391 94.2059 106.395 94.193 106.398 94.1796C106.782 92.5586 107.271 90.9582 107.822 89.3814C107.924 89.0852 108.03 88.789 108.139 88.4934C108.498 87.5046 108.88 86.5255 109.273 85.5573C109.414 85.2117 109.556 84.8673 109.696 84.5237C109.802 84.2653 109.91 84.0068 110.016 83.7497C110.627 82.2698 111.236 80.795 111.786 79.2927C111.884 79.0285 111.979 78.7637 112.071 78.4982C112.216 78.0853 112.355 77.6698 112.488 77.2517C112.802 76.2669 113.087 75.2717 113.327 74.2669C113.4 73.9636 113.469 73.6597 113.533 73.3545C113.575 73.1551 113.614 72.9563 113.652 72.7563C113.734 72.3209 114.151 70.571 114.256 69.3489C114.264 69.261 114.293 69.1835 114.336 69.1193C114.495 68.8814 114.853 68.8186 115.084 69.0462C115.087 69.0488 115.089 69.0514 115.092 69.0539C116.397 70.3402 117.479 71.756 118.352 73.2647C118.484 73.4949 118.613 73.727 118.735 73.9611C119.585 75.5724 120.205 77.2812 120.613 79.0439Z" fill="#F0426A"/>
<path d="M116.112 82.2729C117.613 81.197 119.113 80.121 120.613 79.0445C120.673 79.3054 120.729 79.567 120.78 79.8306C119.172 80.9835 117.566 82.1364 115.958 83.2892C115.64 85.2052 115.173 87.0999 114.597 88.9613C114.864 88.8331 115.13 88.7036 115.396 88.5715C115.963 88.2894 116.526 87.9983 117.084 87.6982C118.488 86.9448 119.86 86.1362 121.199 85.2757C121.189 85.5758 121.174 85.8759 121.154 86.1759C120.834 86.3786 120.513 86.5773 120.189 86.7736C119.012 87.4879 117.811 88.1618 116.588 88.794C115.986 89.1056 115.38 89.407 114.768 89.6987C114.619 89.7693 114.456 89.8654 114.288 89.9199C113.766 91.4915 113.172 93.0381 112.524 94.5527C112.506 94.5943 112.488 94.6354 112.471 94.6771C115.094 93.6396 117.697 92.5547 120.279 91.4204C120.197 91.7288 120.11 92.0353 120.018 92.3411C117.382 93.4902 114.724 94.5886 112.048 95.6369C111.402 97.0713 110.714 98.4916 110.095 99.9381C112.592 99.1751 115.114 98.5018 117.659 97.919C117.496 98.2139 117.327 98.505 117.153 98.7929C114.656 99.3803 112.179 100.056 109.729 100.818C109.35 101.759 109.009 102.715 108.739 103.697C108.615 104.146 108.505 104.598 108.407 105.052C108.689 105.043 108.975 105.006 109.254 104.983C110.296 104.897 111.336 104.783 112.371 104.645C112.04 104.945 111.701 105.236 111.353 105.515C110.485 105.615 109.616 105.697 108.745 105.761C108.575 105.773 108.412 105.785 108.258 105.781C108.142 106.397 108.044 107.017 107.964 107.64C107.706 107.702 107.453 107.718 107.217 107.664C107.31 106.943 107.422 106.223 107.56 105.51C107.506 105.453 107.456 105.388 107.41 105.308C107.062 104.709 106.769 104.073 106.452 103.458C106.137 102.852 105.824 102.246 105.51 101.639C105.502 101.119 105.511 100.599 105.535 100.081C106.012 101.003 106.489 101.925 106.966 102.847C107.24 103.376 107.515 103.907 107.79 104.437C107.93 103.838 108.091 103.244 108.277 102.655C108.489 101.983 108.731 101.322 108.991 100.668C108.042 98.8885 107.094 97.1085 106.146 95.3285C106.221 94.9579 106.303 94.5879 106.39 94.2186C107.378 96.073 108.366 97.9273 109.354 99.7817C109.978 98.3114 110.676 96.87 111.336 95.4144C110.205 93.3805 109.034 91.3684 107.824 89.3807C107.926 89.0845 108.032 88.7882 108.141 88.4926C109.37 90.4957 110.56 92.5239 111.709 94.5751C111.842 94.2731 111.973 93.9704 112.099 93.6659C112.636 92.3713 113.132 91.0587 113.576 89.7282C113.518 89.6628 113.467 89.5891 113.417 89.5153C112.26 87.7892 111.022 86.1221 109.698 84.5223C109.804 84.2639 109.912 84.0055 110.018 83.7483C110.602 84.4447 111.171 85.1539 111.724 85.8765C112.465 86.8473 113.177 87.8405 113.857 88.8555C114.285 87.4879 114.655 86.1029 114.948 84.6999C115.044 84.2414 115.132 83.7798 115.21 83.3155C114.09 81.9562 112.95 80.6148 111.788 79.2913C111.886 79.0271 111.981 78.7623 112.073 78.4969C113.188 79.762 114.284 81.0444 115.362 82.3415C115.607 80.5994 115.721 78.8329 115.684 77.0747C115.636 77.0529 115.595 77.0227 115.564 76.9856C114.819 76.0795 114.075 75.1729 113.329 74.2662C113.402 73.9629 113.471 73.659 113.535 73.3538C114.235 74.2053 114.935 75.0568 115.636 75.9083C115.495 73.5968 115.08 71.3102 114.338 69.1186C114.497 68.8807 114.855 68.8179 115.086 69.0455C115.089 69.0481 115.091 69.0506 115.094 69.0532C115.793 71.1775 116.201 73.3942 116.358 75.6307C117.045 74.86 117.71 74.07 118.354 73.264C118.486 73.4942 118.615 73.7263 118.737 73.9603C117.99 74.885 117.214 75.7871 116.413 76.6656C116.479 78.5462 116.368 80.4186 116.112 82.2729Z" fill="#181A44"/>
<path d="M127.682 87.6446C127.648 87.8395 127.609 88.0345 127.568 88.2288C127.284 89.5419 126.844 90.8263 126.269 92.058C126.174 92.2594 126.077 92.4594 125.976 92.6582C125.382 93.8233 124.668 94.9351 123.854 95.9739C123.708 96.1598 123.559 96.3439 123.407 96.5247C122.444 97.6718 121.358 98.7195 120.178 99.6364C119.982 99.7897 119.781 99.9391 119.58 100.085C118.049 101.188 116.375 102.073 114.62 102.678C114.308 102.786 113.992 102.885 113.674 102.974C113.309 103.078 112.94 103.168 112.569 103.246C112.099 103.345 111.344 103.533 110.748 103.434C110.554 103.402 110.377 103.339 110.233 103.234C110.202 103.211 110.173 103.187 110.145 103.16C109.392 102.439 110.188 100.371 110.483 99.5287C110.589 99.2267 110.703 98.9286 110.824 98.6342C110.969 98.2777 111.127 97.9263 111.294 97.5814C111.809 96.5138 112.417 95.4975 113.092 94.5228C113.251 94.292 113.415 94.0644 113.582 93.838C113.587 93.8297 113.594 93.822 113.6 93.8143C114.333 92.823 115.131 91.8753 115.966 90.9616C116.121 90.7897 116.28 90.6185 116.44 90.4493C116.973 89.8805 117.518 89.3252 118.068 88.7802C118.264 88.5859 118.46 88.3923 118.656 88.1993C118.804 88.0544 118.952 87.9094 119.099 87.7652C119.946 86.9354 120.789 86.1083 121.602 85.2452C121.745 85.0939 121.887 84.9413 122.027 84.7868C122.246 84.5476 122.462 84.3052 122.674 84.0596C123.174 83.48 123.658 82.8856 124.113 82.2713C124.251 82.086 124.387 81.8988 124.519 81.7096C124.606 81.5859 124.691 81.4621 124.775 81.3371C124.957 81.0646 125.75 79.9944 126.178 79.1929C126.208 79.1352 126.251 79.0909 126.299 79.0602C126.476 78.9441 126.738 79.0057 126.829 79.2282C126.83 79.2307 126.831 79.2333 126.832 79.2352C127.346 80.4913 127.672 81.7699 127.827 83.051C127.85 83.2466 127.87 83.4415 127.886 83.6364C127.993 84.9823 127.918 86.3257 127.682 87.6446Z" fill="#CF2959"/>
<path d="M123.678 88.5331C125.013 88.2368 126.348 87.9412 127.682 87.6443C127.648 87.8393 127.609 88.0342 127.568 88.2285C126.138 88.5459 124.708 88.8633 123.278 89.18C122.503 90.3919 121.635 91.5467 120.7 92.6464C120.92 92.6368 121.138 92.6259 121.358 92.613C121.826 92.5861 122.294 92.5515 122.762 92.5098C123.937 92.4053 125.107 92.2546 126.269 92.0578C126.175 92.2591 126.078 92.4592 125.976 92.6579C125.699 92.7028 125.423 92.7445 125.145 92.7836C124.136 92.9272 123.122 93.0362 122.105 93.1113C121.605 93.1485 121.104 93.1773 120.603 93.1972C120.48 93.2017 120.343 93.2203 120.212 93.2081C119.399 94.1263 118.544 95.006 117.662 95.8492C117.638 95.8723 117.614 95.8947 117.589 95.9178C119.678 95.9749 121.766 95.9935 123.854 95.973C123.709 96.1589 123.56 96.3429 123.408 96.5238C121.279 96.5391 119.15 96.5135 117.022 96.4487C116.165 97.2374 115.283 98.0043 114.44 98.809C116.363 99.0161 118.276 99.2918 120.178 99.6355C119.982 99.7888 119.782 99.9382 119.58 100.084C117.708 99.7567 115.825 99.4964 113.934 99.3015C113.402 99.8324 112.892 100.384 112.422 100.974C112.207 101.244 112.001 101.519 111.802 101.8C111.997 101.876 112.202 101.934 112.399 102C113.134 102.244 113.874 102.47 114.62 102.676C114.307 102.784 113.991 102.883 113.673 102.972C113.053 102.788 112.437 102.591 111.825 102.381C111.706 102.339 111.591 102.3 111.489 102.252C111.23 102.638 110.984 103.032 110.747 103.432C110.553 103.4 110.376 103.337 110.232 103.231C110.505 102.767 110.791 102.31 111.093 101.864C111.073 101.81 111.057 101.751 111.049 101.683C110.987 101.174 110.972 100.656 110.935 100.145C110.898 99.6407 110.86 99.136 110.823 98.632C110.969 98.2755 111.127 97.9242 111.293 97.5792C111.35 98.3454 111.405 99.1117 111.463 99.8785C111.495 100.319 111.528 100.761 111.561 101.201C111.831 100.835 112.113 100.477 112.411 100.13C112.751 99.7336 113.108 99.3547 113.475 98.9847C113.347 97.4965 113.219 96.0089 113.091 94.5206C113.25 94.2898 113.414 94.0622 113.58 93.8358C113.713 95.3856 113.847 96.9361 113.98 98.4865C114.833 97.667 115.727 96.8886 116.6 96.0897C116.422 94.3751 116.21 92.665 115.964 90.9594C116.12 90.7875 116.279 90.6163 116.439 90.4471C116.693 92.1693 116.913 93.8961 117.099 95.6274C117.277 95.46 117.454 95.292 117.628 95.1214C118.371 94.3962 119.091 93.6473 119.78 92.8702C119.76 92.8086 119.746 92.7439 119.734 92.6791C119.449 91.1671 119.091 89.6718 118.655 88.1971C118.802 88.0522 118.951 87.9072 119.098 87.763C119.294 88.4074 119.474 89.0556 119.64 89.709C119.863 90.5856 120.058 91.4691 120.226 92.3578C120.916 91.5512 121.57 90.7151 122.178 89.8456C122.377 89.5616 122.571 89.2724 122.759 88.9793C122.392 87.7277 122.007 86.4825 121.601 85.2437C121.744 85.0923 121.885 84.9397 122.026 84.7852C122.417 85.9714 122.79 87.1634 123.146 88.3599C123.82 87.2449 124.412 86.0753 124.898 84.8673C124.873 84.8384 124.853 84.8057 124.843 84.7717C124.6 83.9382 124.357 83.104 124.112 82.2698C124.25 82.0845 124.385 81.8972 124.518 81.7081C124.747 82.4916 124.976 83.2752 125.205 84.0587C125.781 82.4435 126.165 80.7661 126.297 79.058C126.475 78.9419 126.737 79.0035 126.828 79.226C126.829 79.2285 126.83 79.2311 126.831 79.233C126.689 80.8828 126.322 82.5109 125.778 84.0799C126.47 83.7548 127.153 83.4105 127.825 83.0488C127.849 83.2444 127.869 83.4393 127.884 83.6343C127.107 84.0465 126.316 84.4351 125.515 84.8C125.013 86.1029 124.392 87.3449 123.678 88.5331Z" fill="#181A44"/>
<path d="M127.913 94.66C127.707 94.6337 127.502 94.6113 127.295 94.592C125.897 94.4644 124.48 94.5023 123.072 94.6908C122.842 94.7222 122.612 94.7562 122.383 94.7953C121.036 95.0229 119.705 95.3871 118.416 95.8744C118.185 95.9616 117.955 96.052 117.727 96.1469C116.283 96.7484 114.9 97.5037 113.618 98.3937C113.403 98.5418 113.192 98.6945 112.984 98.8503C111.407 100.031 110.002 101.423 108.852 102.983C108.646 103.261 108.449 103.545 108.261 103.834C108.044 104.166 107.838 104.504 107.644 104.85C107.399 105.288 106.976 105.982 106.889 106.607C106.861 106.81 106.868 107.006 106.928 107.183C106.941 107.221 106.956 107.257 106.974 107.292C107.458 108.268 109.767 108.121 110.699 108.09C111.033 108.079 111.366 108.059 111.697 108.03C112.097 107.996 112.497 107.948 112.893 107.89C114.118 107.71 115.321 107.421 116.502 107.053C116.782 106.966 117.06 106.874 117.337 106.779C117.347 106.776 117.356 106.772 117.367 106.769C118.584 106.347 119.778 105.847 120.949 105.301C121.168 105.199 121.388 105.094 121.607 104.988C122.34 104.635 123.064 104.265 123.779 103.887C124.034 103.752 124.288 103.617 124.541 103.482C124.732 103.38 124.922 103.278 125.112 103.176C126.203 102.591 127.291 102.008 128.404 101.468C128.6 101.373 128.796 101.28 128.994 101.187C129.3 101.044 129.609 100.905 129.92 100.77C130.654 100.453 131.398 100.156 132.152 99.8935C132.379 99.814 132.608 99.7377 132.838 99.6646C132.988 99.6172 133.138 99.571 133.289 99.5267C133.617 99.4299 134.931 98.9734 135.864 98.7983C135.931 98.7855 135.988 98.7573 136.034 98.7188C136.205 98.5778 136.226 98.2982 136.032 98.1379C136.03 98.136 136.028 98.134 136.026 98.1321C134.935 97.2274 133.762 96.5041 132.533 95.9495C132.346 95.8655 132.157 95.7847 131.968 95.7084C130.663 95.1813 129.301 94.837 127.913 94.66Z" fill="#F0426A"/>
<path d="M125.777 98.3732C126.489 97.1351 127.2 95.8975 127.913 94.66C127.707 94.6337 127.502 94.6113 127.295 94.592C126.531 95.9181 125.769 97.2441 125.007 98.5701C123.557 98.9631 122.135 99.4691 120.747 100.057C120.825 99.8416 120.904 99.6268 120.986 99.412C121.159 98.9535 121.34 98.4983 121.527 98.0449C121.998 96.9068 122.514 95.7873 123.072 94.6908C122.842 94.7222 122.612 94.7562 122.383 94.7953C122.252 95.0569 122.124 95.3198 121.998 95.584C121.54 96.5452 121.115 97.5217 120.722 98.5111C120.529 98.9984 120.344 99.4883 120.167 99.9814C120.124 100.102 120.063 100.234 120.034 100.368C118.865 100.891 117.721 101.468 116.606 102.084C116.575 102.101 116.545 102.119 116.514 102.135C117.109 100.037 117.742 97.9494 118.415 95.8745C118.184 95.9617 117.955 96.0521 117.726 96.147C117.047 98.2636 116.407 100.394 115.807 102.535C114.753 103.143 113.714 103.782 112.649 104.37C113.042 102.39 113.366 100.397 113.617 98.3938C113.403 98.5419 113.191 98.6945 112.983 98.8503C112.725 100.818 112.397 102.776 112 104.72C111.305 105.084 110.596 105.42 109.862 105.705C109.526 105.835 109.187 105.954 108.845 106.065C108.83 105.847 108.836 105.625 108.832 105.407C108.818 104.599 108.825 103.79 108.852 102.982C108.646 103.261 108.449 103.544 108.261 103.833C108.251 104.508 108.255 105.184 108.274 105.859C108.278 105.991 108.281 106.118 108.296 106.235C107.831 106.373 107.361 106.495 106.889 106.606C106.861 106.81 106.868 107.005 106.928 107.182C107.476 107.055 108.021 106.913 108.559 106.751C108.607 106.788 108.661 106.822 108.726 106.851C109.213 107.072 109.726 107.249 110.223 107.446C110.714 107.641 111.205 107.835 111.696 108.029C112.097 107.995 112.496 107.948 112.892 107.889C112.146 107.594 111.4 107.299 110.653 107.003C110.224 106.832 109.795 106.662 109.366 106.492C109.816 106.337 110.261 106.167 110.699 105.979C111.2 105.763 111.69 105.526 112.172 105.276C113.616 105.868 115.058 106.46 116.502 107.052C116.781 106.965 117.06 106.874 117.337 106.778C115.834 106.162 114.33 105.545 112.826 104.928C113.909 104.335 114.965 103.686 116.033 103.066C117.686 103.779 119.324 104.524 120.948 105.301C121.168 105.199 121.388 105.094 121.606 104.988C119.97 104.197 118.317 103.439 116.65 102.713C116.872 102.587 117.095 102.463 117.319 102.343C118.274 101.829 119.245 101.345 120.235 100.902C120.29 100.941 120.35 100.975 120.411 101.007C121.829 101.764 123.207 102.587 124.541 103.482C124.732 103.38 124.922 103.278 125.112 103.177C124.531 102.781 123.941 102.398 123.342 102.028C122.538 101.533 121.718 101.062 120.885 100.617C121.905 100.182 122.941 99.7909 123.998 99.4562C124.343 99.3466 124.692 99.2433 125.043 99.1478C126.176 99.9044 127.296 100.678 128.404 101.469C128.6 101.373 128.796 101.28 128.994 101.188C127.934 100.428 126.862 99.6839 125.781 98.9554C127.102 98.6323 128.453 98.4072 129.809 98.2995C129.829 98.3341 129.855 98.3636 129.886 98.3841C130.641 98.8868 131.397 99.3902 132.152 99.8935C132.379 99.814 132.608 99.7377 132.838 99.6646C132.129 99.1921 131.419 98.7188 130.709 98.2463C132.499 98.1764 134.29 98.3175 136.034 98.7188C136.205 98.5778 136.225 98.2982 136.032 98.1379C136.03 98.136 136.027 98.1341 136.025 98.1321C134.336 97.7583 132.599 97.616 130.866 97.6686C131.406 97.0806 131.962 96.508 132.533 95.9501C132.345 95.8661 132.157 95.7853 131.967 95.709C131.313 96.3554 130.679 97.0222 130.065 97.7064C128.615 97.8013 127.184 98.0328 125.777 98.3732Z" fill="#181A44"/>
<path d="M112.424 108.612C112.424 111.367 110.19 113.599 107.437 113.599H66.8102C64.055 113.599 61.8242 111.366 61.8242 108.612V30.9228C61.8242 28.1694 64.055 25.9348 66.8102 25.9348H107.437C110.19 25.9348 112.424 28.1688 112.424 30.9228V108.612Z" fill="#4640CC"/>
<path d="M109.308 36.9551H64.9392V101.303H109.308V36.9551Z" fill="white"/>
<path d="M88.9863 32.0306C88.9863 33.061 88.1521 33.8946 87.123 33.8946C86.0945 33.8946 85.259 33.061 85.259 32.0306C85.259 31.0021 86.0945 30.1672 87.123 30.1672C88.1521 30.1672 88.9863 31.0021 88.9863 32.0306Z" fill="#181A44"/>
<path d="M92.4001 107.512C92.4001 108.646 91.4806 109.563 90.3483 109.563H83.899C82.7654 109.563 81.8472 108.646 81.8472 107.512C81.8472 106.378 82.7654 105.461 83.899 105.461H90.3483C91.4806 105.461 92.4001 106.378 92.4001 107.512Z" fill="#181A44"/>
<path d="M98.9423 71.5714C97.9671 78.0988 91.884 82.6001 85.3571 81.6242C78.829 80.6489 74.3284 74.5664 75.3037 68.0383C76.2789 61.5108 82.3614 57.0096 88.8889 57.9849C95.417 58.9614 99.9176 65.0432 98.9423 71.5714Z" fill="#00CBDC"/>
<path d="M85.1513 74.5868C85.0217 74.5067 84.9044 74.4015 84.8095 74.2777L80.8308 69.0699C80.4051 68.5133 80.5109 67.7163 81.0687 67.2912C81.6246 66.8648 82.4229 66.9744 82.848 67.5278L85.9464 71.5834L92.393 65.147C92.8868 64.652 93.6857 64.6526 94.1884 65.1483C94.6828 65.6439 94.6821 66.448 94.1858 66.9443L86.7152 74.4047C86.4561 74.6631 86.0996 74.7984 85.7347 74.7728C85.5251 74.7593 85.325 74.6939 85.1513 74.5868Z" fill="white"/>
<path d="M72.3182 113.826L70.4439 107.28H70.9165C71.2339 107.28 71.4917 107.022 71.4917 106.705V105.464C71.4917 105.146 71.2339 104.889 70.9165 104.889H62.7873C62.4699 104.889 62.2121 105.146 62.2121 105.464V106.705C62.2121 107.022 62.4699 107.28 62.7873 107.28H63.2945L61.4202 113.826C61.3484 114.077 61.4933 114.338 61.7441 114.41L62.0884 114.509C62.3391 114.58 62.6007 114.436 62.6725 114.185L64.65 107.28H69.0884L71.0659 114.185C71.1377 114.436 71.3993 114.58 71.65 114.509L71.9944 114.41C72.2451 114.338 72.39 114.077 72.3182 113.826Z" fill="#00CBDC"/>
<path d="M74.429 112.759L73.2819 112.538C73.2819 112.538 72.7895 109.06 72.8414 104.806L71.0486 104.886L67.6605 101.561C67.6605 101.561 71.5064 101.096 74.17 102.252C75.144 102.675 75.6813 103.724 75.4607 104.763C75.1453 106.255 75.092 107.816 74.429 112.759Z" fill="#222559"/>
<path d="M67.0487 93.8872L67.0269 92.29L65.6291 91.3506V94.0956L67.0487 93.8872Z" fill="#EDA27C"/>
<path d="M70.0367 114.132L69.8412 114.758C69.7713 114.982 69.9386 115.209 70.1733 115.209H73.0664C73.0664 115.209 73.1338 114.671 72.4605 114.536C71.7872 114.401 71.1813 114.132 71.1813 114.132H70.0367Z" fill="#181A44"/>
<path d="M73.3031 112.474L72.9812 113.045C72.8658 113.25 72.9825 113.507 73.2114 113.556L76.041 114.159C76.041 114.159 76.2193 113.646 75.589 113.374C74.9587 113.102 74.422 112.712 74.422 112.712L73.3031 112.474Z" fill="#181A44"/>
<path d="M65.5291 91.2095C65.5291 91.2095 65.6881 92.5061 66.6441 92.5061C67.6001 92.5061 68.0778 92.5926 68.0778 91.5551C68.0778 90.5177 68.317 89.4808 67.6797 89.1352C67.0423 88.7896 65.4489 88.7031 65.5291 90.1721C65.5291 90.1721 65.1309 89.8264 65.1309 90.3452C65.1309 90.8639 65.1309 91.3827 65.5291 91.2095Z" fill="#F7C4A3"/>
<path d="M65.5291 91.4693C65.5291 91.4693 63.0598 89.4816 64.7327 88.0985C66.4056 86.7154 66.8833 88.3575 68.3972 87.2341C68.3972 87.2341 69.8309 88.5307 67.999 89.395C67.999 89.395 65.7285 89.0923 65.8882 90.4754C65.8882 90.4754 65.649 90.1298 65.2508 90.2164C64.852 90.3023 65.4098 91.1666 65.5291 91.4693Z" fill="#181A44"/>
<path d="M72.6356 97.5673L71.2967 94.8594C70.7959 93.847 69.8393 93.1346 68.7242 92.9544C67.3995 92.7409 65.622 92.5646 64.3659 92.8647C62.1179 93.402 62.3615 94.5235 62.3904 94.9582C62.4192 95.3936 62.6981 98.7336 62.6981 98.7336H64.591L64.4525 101.846L68.7409 102.045L69.7219 96.2553L70.4894 97.4461L72.6356 97.5673Z" fill="#9792FF"/>
<path d="M68.7409 102.045L64.6635 101.067V96.1396L65.1732 100.615L68.8037 101.676L68.7409 102.045Z" fill="#6858F7"/>
<path d="M63.3567 102.147C63.3567 102.147 62.6821 104.151 64.0427 104.886C65.404 105.621 69.2577 105.102 69.2577 105.102C69.2577 105.102 68.7941 108.484 70.0387 114.128H71.2159L71.5987 104.524C71.6314 103.705 71.1332 102.958 70.365 102.674L68.9396 102.146L63.3567 102.147Z" fill="#292A72"/>
<path d="M76.9201 102.328L78.661 97.1677H70.5491L68.9198 102.336L76.9201 102.328Z" fill="#F4BD42"/>
<path d="M62.6988 98.7336L63.3567 102.147C63.3567 102.147 66.6223 102.858 68.3985 102.645C68.3985 102.645 70.0643 102.896 70.6164 102.431C71.1678 101.965 69.5905 102.398 69.2275 102.163C68.8646 101.927 64.6634 101.067 64.6634 101.067L64.5916 98.7329H62.6988V98.7336Z" fill="#F7C4A3"/>
<path d="M51.0558 33.314L43.2863 29.3347L49.7291 34.0719L45.9396 36.5355L43.2863 29.3347L54.2894 31.6091L51.0558 33.314Z" fill="#F4BD42"/>
<path d="M49.7291 34.0719L50.4755 36.5355L51.0558 33.314L43.2863 29.3347L49.7291 34.0719Z" fill="#F6A731"/>
<path d="M49.7291 34.072L50.487 36.5355L48.2422 35.039L49.7291 34.072Z" fill="#E78800"/>
<path d="M51.6772 37.0181C51.6547 37.0181 51.6323 37.0137 51.6105 37.0034C51.4925 36.9489 51.3758 36.895 51.261 36.8418C51.1809 36.8046 51.1456 36.7091 51.1834 36.6289C51.2206 36.5488 51.3162 36.5135 51.3963 36.5513C51.5111 36.6046 51.6271 36.6584 51.7451 36.7123C51.8253 36.7495 51.8605 36.8444 51.824 36.9252C51.7958 36.9835 51.7374 37.0181 51.6772 37.0181Z" fill="#181A44"/>
<path d="M118.618 49.5096C118.53 49.5096 118.458 49.4378 118.458 49.3499C118.458 49.2615 118.529 49.1896 118.618 49.189C118.871 49.1884 119.127 49.1832 119.379 49.1743C119.465 49.1704 119.542 49.2403 119.545 49.3281C119.548 49.4166 119.479 49.491 119.39 49.4942C119.135 49.5045 118.876 49.5096 118.618 49.5096ZM117.852 49.4981C117.85 49.4981 117.848 49.4981 117.846 49.4981C117.589 49.4897 117.329 49.4763 117.074 49.459C116.986 49.4525 116.919 49.3762 116.926 49.2878C116.932 49.1993 117.008 49.1332 117.097 49.139C117.348 49.1563 117.603 49.1698 117.857 49.1781C117.946 49.1813 118.015 49.255 118.012 49.3435C118.009 49.4295 117.937 49.4981 117.852 49.4981ZM120.151 49.4525C120.068 49.4525 119.998 49.3884 119.991 49.3038C119.985 49.2153 120.051 49.139 120.139 49.1326C120.395 49.114 120.649 49.0909 120.897 49.0633C120.984 49.0537 121.065 49.1172 121.074 49.205C121.084 49.2929 121.02 49.3724 120.932 49.382C120.681 49.4096 120.421 49.4333 120.163 49.4519C120.159 49.4525 120.155 49.4525 120.151 49.4525ZM116.322 49.3916C116.316 49.3916 116.31 49.3916 116.304 49.391C116.048 49.3634 115.79 49.3314 115.537 49.2942C115.45 49.2813 115.389 49.1999 115.402 49.1127C115.415 49.0249 115.496 48.9639 115.584 48.9774C115.832 49.0133 116.086 49.0454 116.338 49.0723C116.426 49.0819 116.49 49.1608 116.481 49.2486C116.472 49.3307 116.402 49.3916 116.322 49.3916ZM121.675 49.2839C121.597 49.2839 121.529 49.2268 121.517 49.148C121.503 49.0608 121.563 48.9787 121.651 48.9652C122.033 48.9069 122.257 48.8581 122.282 48.853C122.319 48.8447 122.357 48.8363 122.394 48.828C122.48 48.8081 122.566 48.8626 122.586 48.9486C122.605 49.0351 122.551 49.121 122.465 49.1403C122.427 49.1486 122.389 49.1576 122.351 49.1659C122.309 49.1749 122.083 49.2236 121.699 49.282C121.691 49.2833 121.683 49.2839 121.675 49.2839ZM114.804 49.1704C114.794 49.1704 114.784 49.1698 114.774 49.1678C114.52 49.1204 114.266 49.0678 114.017 49.0101C113.931 48.9902 113.877 48.9043 113.897 48.8177C113.916 48.7312 114.002 48.6773 114.089 48.6972C114.333 48.7536 114.584 48.8056 114.833 48.8517C114.921 48.8678 114.978 48.9518 114.962 49.039C114.947 49.1165 114.88 49.1704 114.804 49.1704ZM123.173 48.9569C123.102 48.9569 123.038 48.9101 123.018 48.8389C122.995 48.7536 123.045 48.6651 123.131 48.6414C123.374 48.5741 123.619 48.501 123.858 48.4228C123.942 48.3952 124.032 48.4414 124.06 48.5254C124.087 48.6094 124.041 48.6998 123.956 48.7273C123.712 48.8068 123.463 48.8819 123.215 48.9498C123.202 48.955 123.187 48.9569 123.173 48.9569ZM113.309 48.8261C113.295 48.8261 113.281 48.8242 113.266 48.8203C113.017 48.7517 112.767 48.6767 112.525 48.5978C112.441 48.5702 112.395 48.4798 112.422 48.3958C112.449 48.3118 112.54 48.2657 112.624 48.2926C112.862 48.3702 113.107 48.4433 113.352 48.5106C113.437 48.5343 113.487 48.6222 113.464 48.7075C113.444 48.7799 113.38 48.8261 113.309 48.8261ZM124.632 48.4837C124.567 48.4837 124.506 48.4439 124.482 48.3798C124.45 48.2971 124.492 48.2048 124.575 48.1733C124.811 48.0848 125.048 47.9899 125.281 47.8906C125.362 47.8559 125.456 47.8938 125.491 47.9752C125.525 48.0566 125.488 48.1509 125.406 48.1855C125.17 48.2862 124.928 48.383 124.688 48.4734C124.669 48.4798 124.65 48.4837 124.632 48.4837ZM111.851 48.3522C111.832 48.3522 111.813 48.349 111.795 48.342C111.554 48.2509 111.312 48.1535 111.077 48.0515C110.995 48.0162 110.958 47.922 110.993 47.8405C111.028 47.7591 111.123 47.7219 111.204 47.7572C111.434 47.8572 111.672 47.9528 111.908 48.0419C111.99 48.0733 112.032 48.1656 112.001 48.2484C111.977 48.3131 111.916 48.3522 111.851 48.3522ZM126.042 47.8822C125.982 47.8822 125.924 47.8489 125.897 47.7912C125.858 47.711 125.892 47.6155 125.972 47.577C126.199 47.4687 126.426 47.3532 126.65 47.234C126.728 47.1923 126.825 47.2218 126.867 47.3C126.909 47.3782 126.879 47.4751 126.801 47.5167C126.574 47.6379 126.341 47.7553 126.11 47.8662C126.088 47.8771 126.065 47.8822 126.042 47.8822ZM110.444 47.7431C110.421 47.7431 110.396 47.738 110.374 47.7264C110.142 47.6123 109.911 47.4911 109.688 47.3661C109.61 47.3231 109.583 47.225 109.626 47.148C109.669 47.0705 109.767 47.0429 109.844 47.0865C110.063 47.209 110.289 47.3276 110.515 47.4392C110.595 47.4783 110.628 47.5744 110.589 47.654C110.56 47.7104 110.503 47.7431 110.444 47.7431ZM127.395 47.1609C127.34 47.1609 127.287 47.1327 127.257 47.082C127.212 47.0057 127.237 46.9076 127.314 46.8627C127.531 46.7351 127.749 46.6005 127.961 46.4632C128.035 46.4152 128.135 46.4363 128.183 46.5107C128.231 46.5851 128.21 46.6845 128.135 46.7325C127.919 46.8723 127.698 47.0089 127.477 47.1391C127.451 47.1538 127.423 47.1609 127.395 47.1609ZM109.106 46.9961C109.077 46.9961 109.047 46.9884 109.021 46.9717C108.803 46.8351 108.586 46.6902 108.376 46.5421C108.303 46.4908 108.286 46.3908 108.337 46.319C108.389 46.2465 108.489 46.2292 108.56 46.2805C108.766 46.4254 108.978 46.5671 109.191 46.7005C109.266 46.7473 109.289 46.8467 109.242 46.9217C109.211 46.9692 109.159 46.9961 109.106 46.9961ZM128.683 46.3279C128.633 46.3279 128.583 46.3042 128.552 46.26C128.501 46.1875 128.518 46.0875 128.59 46.0368C128.796 45.8913 129.002 45.7393 129.202 45.5854C129.273 45.5316 129.373 45.5444 129.427 45.6143C129.481 45.6842 129.468 45.7848 129.398 45.8393C129.195 45.9958 128.986 46.1503 128.776 46.2991C128.747 46.3183 128.715 46.3279 128.683 46.3279ZM107.853 46.1125C107.819 46.1125 107.783 46.1016 107.754 46.0779C107.552 45.9189 107.352 45.7521 107.159 45.5822C107.092 45.5239 107.086 45.4226 107.144 45.3559C107.202 45.2892 107.304 45.2828 107.37 45.3411C107.56 45.5072 107.756 45.6701 107.953 45.8259C108.022 45.8804 108.035 45.9817 107.98 46.0509C107.947 46.092 107.901 46.1125 107.853 46.1125ZM106.702 45.102C106.662 45.102 106.621 45.0866 106.59 45.0564C106.469 44.9385 106.35 44.8173 106.233 44.6954C106.171 44.6313 106.11 44.5659 106.049 44.5005C105.989 44.4357 105.994 44.3338 106.058 44.2742C106.123 44.2139 106.225 44.2184 106.285 44.2831C106.344 44.3473 106.404 44.4114 106.464 44.4742C106.578 44.5935 106.695 44.7121 106.813 44.8269C106.877 44.8884 106.878 44.9904 106.816 45.0539C106.785 45.0853 106.743 45.102 106.702 45.102ZM85.7617 45.0212H85.7611C85.5046 45.0199 85.2488 45.0173 84.9936 45.0135C84.9051 45.0122 84.8345 44.9391 84.8358 44.8506C84.8371 44.7628 84.9089 44.6929 84.9961 44.6929C84.9968 44.6929 84.998 44.6929 84.9987 44.6929C85.2526 44.6967 85.5078 44.6993 85.763 44.7006C85.8515 44.7012 85.9233 44.773 85.9227 44.8615C85.9214 44.95 85.8502 45.0212 85.7617 45.0212ZM86.528 45.0205C86.4401 45.0205 86.3683 44.9494 86.3677 44.8615C86.367 44.773 86.4382 44.7006 86.5267 44.6999C86.7812 44.698 87.0384 44.6948 87.291 44.6903C87.3769 44.6884 87.4526 44.7589 87.4539 44.848C87.4551 44.9365 87.3846 45.0096 87.2961 45.0109C87.0422 45.0154 86.7845 45.0186 86.528 45.0205C86.528 45.0205 86.5286 45.0205 86.528 45.0205ZM84.2292 44.9974C84.228 44.9974 84.2267 44.9974 84.2248 44.9974C83.9683 44.991 83.7118 44.9827 83.4566 44.9731C83.3681 44.9699 83.2989 44.8955 83.3021 44.807C83.3053 44.7185 83.3784 44.6493 83.4681 44.6525C83.7221 44.6621 83.9772 44.6698 84.2331 44.6768C84.3216 44.6794 84.3915 44.7525 84.3889 44.841C84.387 44.9288 84.3158 44.9974 84.2292 44.9974ZM88.0598 44.993C87.9732 44.993 87.9021 44.9243 87.8995 44.8371C87.8969 44.7487 87.9668 44.6749 88.0553 44.6724C88.3092 44.6653 88.5638 44.6563 88.819 44.6461C88.9088 44.6429 88.9819 44.7115 88.9857 44.8C88.9896 44.8884 88.9203 44.9628 88.8318 44.9667C88.5753 44.9769 88.3195 44.9859 88.0643 44.993C88.063 44.993 88.0611 44.993 88.0598 44.993ZM82.6968 44.941C82.6942 44.941 82.6916 44.941 82.6891 44.941C82.4326 44.9288 82.1767 44.9154 81.9215 44.9C81.8331 44.8949 81.7657 44.8192 81.7709 44.7307C81.776 44.6422 81.851 44.5749 81.9401 44.58C82.1941 44.5948 82.4486 44.6082 82.7045 44.6211C82.7929 44.6255 82.8609 44.7006 82.8571 44.7891C82.8526 44.8743 82.7814 44.941 82.6968 44.941ZM89.5904 44.9314C89.5057 44.9314 89.4346 44.8647 89.4301 44.7794C89.4256 44.6909 89.4935 44.6159 89.582 44.6108C89.8359 44.598 90.0924 44.5832 90.3451 44.5672C90.4342 44.5614 90.5098 44.6287 90.515 44.7172C90.5208 44.8057 90.4534 44.882 90.3649 44.8872C90.111 44.9032 89.8533 44.9179 89.5981 44.9308C89.5961 44.9314 89.5936 44.9314 89.5904 44.9314ZM81.1656 44.8512C81.1617 44.8512 81.1579 44.8512 81.154 44.8506C80.8975 44.8327 80.6423 44.8141 80.3878 44.7935C80.2993 44.7865 80.2339 44.7095 80.2409 44.6211C80.248 44.5326 80.3256 44.4672 80.4134 44.4742C80.6667 44.4947 80.9213 44.5133 81.1765 44.5313C81.2649 44.5377 81.3316 44.614 81.3252 44.7025C81.3195 44.7865 81.2489 44.8512 81.1656 44.8512ZM91.1196 44.8352C91.0363 44.8352 90.9664 44.7711 90.96 44.6871C90.9536 44.5986 91.0196 44.5217 91.1081 44.5153C91.3614 44.4967 91.6172 44.4761 91.8699 44.4543C91.9571 44.4466 92.0359 44.512 92.0436 44.6005C92.0513 44.689 91.9859 44.7666 91.8974 44.7743C91.6435 44.7961 91.3864 44.8166 91.1318 44.8359C91.128 44.8352 91.1235 44.8352 91.1196 44.8352ZM79.6369 44.7288C79.6318 44.7288 79.6273 44.7288 79.6222 44.7281C79.3663 44.7051 79.1111 44.6807 78.8572 44.655C78.7694 44.6461 78.7046 44.5678 78.7136 44.4794C78.7226 44.3915 78.8014 44.3267 78.8893 44.3357C79.1426 44.3614 79.3965 44.3857 79.651 44.4088C79.7395 44.4165 79.8043 44.4947 79.796 44.5826C79.7889 44.6666 79.719 44.7288 79.6369 44.7288ZM92.6463 44.7038C92.5649 44.7038 92.495 44.6416 92.4867 44.5589C92.4784 44.471 92.5425 44.3921 92.631 44.3838C92.8842 44.3588 93.1401 44.3325 93.3914 44.3049C93.4786 44.2953 93.5588 44.3588 93.5684 44.4466C93.578 44.5345 93.5145 44.614 93.4267 44.6236C93.1741 44.6512 92.9176 44.6781 92.663 44.7025C92.6566 44.7038 92.6515 44.7038 92.6463 44.7038ZM78.1109 44.5749C78.1051 44.5749 78.0987 44.5742 78.0929 44.5736C77.8377 44.5454 77.5831 44.5153 77.3292 44.4845C77.2414 44.4736 77.1785 44.3941 77.1894 44.3062C77.2004 44.2184 77.2799 44.1555 77.3677 44.1664C77.6203 44.1972 77.8736 44.2267 78.1275 44.2549C78.2154 44.2645 78.2789 44.3441 78.2692 44.4319C78.2609 44.5146 78.1917 44.5749 78.1109 44.5749ZM94.1692 44.5371C94.0891 44.5371 94.0198 44.4774 94.0102 44.396C93.9993 44.3081 94.0621 44.228 94.15 44.2177C94.4007 44.1876 94.6559 44.1549 94.9079 44.1216C94.9957 44.1094 95.0765 44.1716 95.0881 44.2594C95.0996 44.3473 95.038 44.4281 94.9502 44.4396C94.6969 44.4736 94.4404 44.5056 94.1884 44.5364C94.182 44.5371 94.1756 44.5371 94.1692 44.5371ZM76.5886 44.3902C76.5816 44.3902 76.5745 44.3896 76.5675 44.3889C76.3129 44.3556 76.059 44.3203 75.8064 44.2844C75.7185 44.2722 75.6576 44.1908 75.6704 44.103C75.6833 44.0151 75.7641 43.9542 75.8519 43.967C76.1039 44.0029 76.3565 44.0376 76.6104 44.0709C76.6983 44.0824 76.7598 44.1632 76.7483 44.2511C76.7368 44.3312 76.6675 44.3902 76.5886 44.3902ZM95.6876 44.3351C95.6094 44.3351 95.5407 44.2774 95.5292 44.1979C95.5164 44.11 95.5773 44.0292 95.6651 44.0164C95.9152 43.9799 96.1691 43.942 96.4205 43.9023C96.5083 43.8888 96.5898 43.9484 96.6039 44.0356C96.6173 44.1228 96.5577 44.2049 96.4705 44.219C96.2179 44.2588 95.9627 44.2972 95.7113 44.3338C95.703 44.3351 95.6953 44.3351 95.6876 44.3351ZM75.0696 44.1741C75.0613 44.1741 75.0536 44.1735 75.0453 44.1722C74.7913 44.1337 74.5381 44.0933 74.2861 44.0529C74.1989 44.0388 74.1392 43.9561 74.1533 43.8689C74.1674 43.7817 74.2495 43.7221 74.3374 43.7362C74.5881 43.7772 74.8401 43.8163 75.0933 43.8555C75.1812 43.8689 75.2408 43.9504 75.228 44.0382C75.2165 44.1171 75.1478 44.1741 75.0696 44.1741ZM97.2015 44.0978C97.1245 44.0978 97.0566 44.0427 97.0437 43.9645C97.029 43.8773 97.088 43.7945 97.1752 43.7798C97.4259 43.7375 97.6792 43.6932 97.928 43.6477C98.0145 43.6317 98.0985 43.6894 98.1145 43.7766C98.1306 43.8638 98.0722 43.9471 97.9857 43.9632C97.7356 44.0087 97.481 44.0529 97.2297 44.0959C97.2188 44.0972 97.2104 44.0978 97.2015 44.0978ZM105.662 43.9754C105.617 43.9754 105.571 43.9561 105.539 43.9177C105.376 43.7234 105.214 43.5195 105.056 43.3124C105.002 43.2418 105.016 43.1412 105.086 43.0879C105.157 43.0341 105.258 43.0475 105.311 43.1181C105.465 43.3213 105.625 43.5207 105.785 43.7118C105.842 43.7798 105.833 43.8811 105.765 43.9375C105.735 43.9632 105.698 43.9754 105.662 43.9754ZM73.5557 43.9286C73.5468 43.9286 73.5378 43.9279 73.5282 43.926C73.2749 43.8824 73.0223 43.8375 72.7715 43.792C72.6843 43.7759 72.6266 43.6926 72.6427 43.6054C72.6587 43.5182 72.7427 43.4611 72.8293 43.4765C73.0793 43.522 73.3307 43.5669 73.5827 43.6105C73.6699 43.6253 73.7282 43.7086 73.7135 43.7958C73.7007 43.8734 73.6327 43.9286 73.5557 43.9286ZM98.7083 43.8247C98.6333 43.8247 98.566 43.7715 98.5512 43.6945C98.5345 43.6073 98.591 43.5233 98.6782 43.5066C98.9263 43.4585 99.1783 43.4085 99.4271 43.3572C99.5137 43.3393 99.5983 43.3951 99.6162 43.4816C99.6342 43.5682 99.5784 43.6528 99.4912 43.6708C99.2405 43.7221 98.9872 43.7727 98.7384 43.8208C98.7288 43.824 98.7186 43.8247 98.7083 43.8247ZM72.047 43.6528C72.0367 43.6528 72.0265 43.6522 72.0162 43.6496C71.7636 43.6009 71.5122 43.5515 71.2621 43.5009C71.1756 43.4836 71.1192 43.3989 71.1371 43.3117C71.1544 43.2252 71.2391 43.1687 71.3263 43.1867C71.575 43.2373 71.8258 43.2867 72.0771 43.3348C72.1643 43.3515 72.2207 43.4355 72.2041 43.5227C72.19 43.5996 72.1226 43.6528 72.047 43.6528ZM100.209 43.5163C100.135 43.5163 100.069 43.465 100.052 43.3899C100.034 43.3034 100.088 43.2181 100.175 43.1989C100.423 43.145 100.674 43.0886 100.92 43.0315C101.006 43.0116 101.093 43.0655 101.113 43.1514C101.133 43.238 101.079 43.3239 100.993 43.3438C100.745 43.4008 100.493 43.4573 100.244 43.5118C100.232 43.515 100.22 43.5163 100.209 43.5163ZM70.544 43.3489C70.5331 43.3489 70.5216 43.3476 70.5107 43.3451C70.2593 43.2918 70.0086 43.2373 69.7598 43.1822C69.6732 43.163 69.6187 43.0777 69.638 42.9911C69.6572 42.9045 69.7425 42.85 69.829 42.8693C70.0772 42.9244 70.3266 42.9783 70.5773 43.0315C70.6639 43.0501 70.719 43.1347 70.7011 43.2213C70.6844 43.297 70.6177 43.3489 70.544 43.3489ZM101.701 43.1719C101.629 43.1719 101.564 43.1226 101.546 43.0495C101.524 42.9635 101.578 42.877 101.664 42.8558C101.911 42.7955 102.161 42.7333 102.405 42.6711C102.491 42.6493 102.578 42.7006 102.6 42.7866C102.622 42.8725 102.57 42.9597 102.484 42.9815C102.239 43.0443 101.988 43.1072 101.739 43.1674C101.727 43.1706 101.714 43.1719 101.701 43.1719ZM69.0468 43.0161C69.0346 43.0161 69.0224 43.0148 69.0102 43.0116C68.7595 42.9533 68.5101 42.8943 68.2626 42.8347C68.1767 42.8141 68.1234 42.7269 68.1446 42.641C68.1651 42.5551 68.2517 42.5019 68.3382 42.523C68.5851 42.5827 68.8333 42.6417 69.0833 42.6994C69.1699 42.7192 69.2231 42.8058 69.2032 42.8917C69.1853 42.9661 69.1192 43.0161 69.0468 43.0161ZM103.186 42.793C103.115 42.793 103.05 42.7449 103.031 42.6718C103.01 42.5859 103.061 42.4987 103.147 42.4769C103.378 42.4185 103.626 42.364 103.907 42.3114C103.994 42.2954 104.077 42.3525 104.094 42.439C104.11 42.5262 104.053 42.6096 103.966 42.6263C103.693 42.6776 103.451 42.7301 103.226 42.7872C103.213 42.7911 103.2 42.793 103.186 42.793ZM104.732 42.7564C104.681 42.7564 104.631 42.7327 104.6 42.6878C104.455 42.4788 104.311 42.2627 104.171 42.044C104.123 41.9697 104.145 41.8703 104.219 41.8228C104.294 41.7754 104.393 41.7972 104.441 41.8716C104.509 41.978 104.577 42.0832 104.647 42.1877C104.654 42.1858 104.661 42.1845 104.668 42.1832C104.934 42.1422 105.202 42.1043 105.429 42.0729C105.517 42.0607 105.598 42.1223 105.61 42.2095C105.622 42.2973 105.561 42.3781 105.474 42.3903C105.285 42.4166 105.067 42.4474 104.847 42.4801C104.852 42.4878 104.857 42.4961 104.863 42.5038C104.914 42.5763 104.896 42.6763 104.823 42.7269C104.795 42.7468 104.763 42.7564 104.732 42.7564ZM67.556 42.6558C67.5432 42.6558 67.5297 42.6545 67.5169 42.6506C67.2674 42.5878 67.0193 42.5243 66.7724 42.4602C66.6865 42.4377 66.6352 42.3505 66.6576 42.2646C66.6801 42.1787 66.7673 42.1274 66.8532 42.1498C67.0988 42.214 67.3463 42.2775 67.5944 42.3396C67.6804 42.3614 67.7323 42.448 67.7111 42.5339C67.6926 42.607 67.6272 42.6558 67.556 42.6558ZM106.212 42.2871C106.133 42.2871 106.064 42.2294 106.053 42.1492C106.041 42.0614 106.102 41.9806 106.19 41.9684C106.485 41.9267 106.726 41.8921 106.947 41.8575C107.034 41.844 107.116 41.9036 107.129 41.9915C107.143 42.0787 107.083 42.1608 106.995 42.1742C106.773 42.2088 106.532 42.2441 106.234 42.2858C106.226 42.2864 106.219 42.2871 106.212 42.2871ZM66.0716 42.2685C66.0575 42.2685 66.0434 42.2665 66.0299 42.2627C65.7811 42.1954 65.5343 42.1274 65.2893 42.0588C65.204 42.0351 65.154 41.9466 65.1784 41.8613C65.2021 41.776 65.2906 41.7267 65.3759 41.7504C65.6202 41.819 65.8664 41.887 66.1139 41.9536C66.1992 41.9767 66.2498 42.0646 66.2268 42.1505C66.2069 42.2217 66.1421 42.2685 66.0716 42.2685ZM107.727 42.0492C107.652 42.0492 107.584 41.9953 107.57 41.9177C107.554 41.8305 107.611 41.7472 107.699 41.7311C107.964 41.6824 108.208 41.6337 108.444 41.5805C108.53 41.5612 108.616 41.6157 108.636 41.7016C108.655 41.7882 108.601 41.8735 108.515 41.8934C108.274 41.9472 108.026 41.9972 107.757 42.0466C107.747 42.0485 107.737 42.0492 107.727 42.0492ZM64.5949 41.8543C64.5801 41.8543 64.5654 41.8523 64.55 41.8478C64.3025 41.776 64.0569 41.7036 63.8133 41.6305C63.7286 41.6048 63.6805 41.5157 63.7055 41.4311C63.7312 41.3464 63.8203 41.2977 63.9049 41.3233C64.148 41.3958 64.3929 41.4682 64.6391 41.5394C64.7244 41.5638 64.7731 41.6529 64.7488 41.7382C64.7283 41.8087 64.6641 41.8543 64.5949 41.8543ZM109.223 41.7113C109.154 41.7113 109.089 41.6651 109.069 41.5939C109.045 41.5086 109.095 41.4202 109.18 41.3964C109.431 41.3259 109.673 41.2496 109.901 41.1688C109.985 41.1393 110.076 41.1829 110.106 41.2663C110.135 41.3496 110.092 41.4413 110.008 41.4708C109.774 41.5542 109.524 41.6324 109.266 41.7049C109.252 41.7093 109.238 41.7113 109.223 41.7113ZM103.907 41.4631C103.851 41.4631 103.798 41.4349 103.768 41.3836C103.639 41.1618 103.512 40.9348 103.391 40.7084C103.349 40.6302 103.379 40.5334 103.457 40.4917C103.535 40.45 103.632 40.4795 103.674 40.5577C103.792 40.7802 103.917 41.004 104.044 41.222C104.089 41.2983 104.063 41.3964 103.987 41.4413C103.962 41.4561 103.934 41.4631 103.907 41.4631ZM63.1252 41.4144C63.1092 41.4144 63.0938 41.4118 63.0778 41.4073C62.8316 41.331 62.5873 41.2547 62.3449 41.1771C62.2603 41.1502 62.2141 41.0598 62.241 40.9758C62.268 40.8912 62.3577 40.845 62.4424 40.8719C62.6841 40.9489 62.9271 41.0252 63.1727 41.1008C63.2573 41.1271 63.3048 41.2169 63.2785 41.3015C63.2567 41.3701 63.1932 41.4144 63.1252 41.4144ZM110.667 41.1957C110.606 41.1957 110.547 41.1605 110.521 41.1015C110.484 41.0207 110.52 40.9258 110.601 40.8892C110.834 40.7841 111.059 40.6699 111.27 40.5488C111.346 40.5045 111.445 40.5314 111.488 40.6078C111.532 40.6847 111.505 40.7828 111.429 40.8264C111.21 40.9521 110.975 41.072 110.732 41.181C110.711 41.1912 110.689 41.1957 110.667 41.1957ZM61.6633 40.9489C61.6466 40.9489 61.63 40.9463 61.6133 40.9405C61.3683 40.8604 61.1253 40.779 60.8842 40.6982C60.8002 40.6699 60.7554 40.5789 60.7836 40.4949C60.8118 40.4109 60.9028 40.366 60.9868 40.3942C61.2266 40.475 61.469 40.5558 61.7133 40.636C61.7973 40.6635 61.8435 40.7539 61.8159 40.8379C61.7935 40.9059 61.7313 40.9489 61.6633 40.9489ZM60.2103 40.4583C60.193 40.4583 60.1751 40.4558 60.1577 40.4494C59.9141 40.3647 59.6724 40.2795 59.4332 40.1948C59.3498 40.1653 59.3062 40.0736 59.3357 39.9903C59.3652 39.9069 59.4569 39.8633 59.5403 39.8928C59.7788 39.9774 60.0192 40.0627 60.2623 40.1467C60.3456 40.1756 60.3905 40.2673 60.361 40.3506C60.3386 40.4167 60.2764 40.4583 60.2103 40.4583ZM111.992 40.4308C111.942 40.4308 111.893 40.4083 111.862 40.3654C111.809 40.2942 111.825 40.1935 111.897 40.1416C112.099 39.9935 112.292 39.8332 112.471 39.6645C112.535 39.6036 112.637 39.6068 112.697 39.6716C112.758 39.7364 112.755 39.8377 112.69 39.8979C112.501 40.0749 112.299 40.2442 112.086 40.4C112.058 40.4212 112.024 40.4308 111.992 40.4308ZM103.185 40.1095C103.125 40.1095 103.068 40.0762 103.04 40.0191C102.928 39.7876 102.819 39.5517 102.716 39.317C102.681 39.2362 102.718 39.1413 102.799 39.106C102.88 39.0708 102.975 39.1073 103.01 39.1888C103.111 39.4196 103.219 39.6517 103.329 39.8793C103.367 39.9588 103.334 40.055 103.254 40.0935C103.232 40.1044 103.208 40.1095 103.185 40.1095ZM58.7651 39.9435C58.7465 39.9435 58.7279 39.9403 58.7099 39.9338C58.4669 39.8447 58.2271 39.7562 57.9892 39.6671C57.9065 39.6363 57.8642 39.5433 57.8956 39.4606C57.927 39.3779 58.0193 39.3356 58.102 39.367C58.3386 39.4561 58.5778 39.5446 58.8202 39.6331C58.9036 39.6633 58.9459 39.7556 58.9157 39.8389C58.892 39.9031 58.8305 39.9435 58.7651 39.9435ZM57.3288 39.4048C57.3095 39.4048 57.2903 39.4016 57.271 39.3939C57.0293 39.301 56.7908 39.208 56.5548 39.115C56.4727 39.0823 56.4317 38.9893 56.4644 38.9073C56.4971 38.8252 56.5901 38.7842 56.6722 38.8169C56.9068 38.9092 57.1447 39.0022 57.3858 39.0945C57.4685 39.1266 57.5096 39.2189 57.4781 39.3016C57.4538 39.3657 57.3935 39.4048 57.3288 39.4048ZM113.103 39.383C113.067 39.383 113.032 39.3709 113.001 39.3465C112.933 39.2901 112.923 39.1894 112.98 39.1208C113.036 39.0522 113.092 38.981 113.146 38.9092C113.24 38.7842 113.333 38.6521 113.422 38.5168C113.471 38.4424 113.57 38.4219 113.644 38.4706C113.718 38.5193 113.739 38.6187 113.69 38.6925C113.598 38.8342 113.501 38.9714 113.403 39.1022C113.346 39.1779 113.287 39.2529 113.227 39.3253C113.195 39.3632 113.15 39.383 113.103 39.383ZM55.9014 38.8425C55.8815 38.8425 55.861 38.8387 55.8418 38.831C55.6013 38.7341 55.3641 38.6373 55.1307 38.5405C55.0486 38.5065 55.0102 38.4129 55.0435 38.3308C55.0775 38.2488 55.1711 38.2103 55.2525 38.2436C55.4853 38.3398 55.7219 38.4366 55.9617 38.5328C56.0438 38.5661 56.0835 38.6591 56.0502 38.7412C56.0252 38.804 55.9649 38.8425 55.9014 38.8425ZM102.57 38.7053C102.506 38.7053 102.445 38.6668 102.42 38.6033C102.326 38.3629 102.236 38.1186 102.153 37.8775C102.124 37.7935 102.168 37.7024 102.252 37.6736C102.336 37.6447 102.427 37.689 102.456 37.773C102.538 38.0102 102.626 38.25 102.719 38.4866C102.751 38.5694 102.711 38.6623 102.628 38.6944C102.609 38.7014 102.589 38.7053 102.57 38.7053ZM54.4837 38.2564C54.4632 38.2564 54.442 38.2526 54.4215 38.2436C54.1824 38.1423 53.9464 38.0416 53.7149 37.9416C53.6335 37.9064 53.5963 37.8121 53.6316 37.7307C53.6668 37.6492 53.7611 37.612 53.8425 37.6473C54.0734 37.7467 54.308 37.8474 54.5466 37.948C54.628 37.9827 54.6665 38.0763 54.6318 38.1583C54.6055 38.2199 54.5459 38.2564 54.4837 38.2564ZM113.946 38.1045C113.92 38.1045 113.895 38.0987 113.871 38.0859C113.793 38.0442 113.763 37.9474 113.805 37.8692C113.921 37.6512 114.031 37.4222 114.131 37.1895C114.166 37.1081 114.26 37.0709 114.341 37.1055C114.422 37.1408 114.46 37.235 114.425 37.3158C114.321 37.5569 114.208 37.7935 114.088 38.0192C114.059 38.0737 114.003 38.1045 113.946 38.1045ZM53.075 37.6486C53.0532 37.6486 53.0314 37.6441 53.0102 37.6351C52.7717 37.53 52.5377 37.4254 52.3087 37.3222C52.228 37.2857 52.1921 37.1908 52.2286 37.11C52.2651 37.0292 52.3601 36.9933 52.4408 37.0298C52.6691 37.1331 52.9025 37.2369 53.1404 37.3414C53.2212 37.3774 53.2584 37.4716 53.2225 37.553C53.1955 37.6127 53.1366 37.6486 53.075 37.6486ZM102.07 37.2549C102.001 37.2549 101.937 37.21 101.916 37.1401C101.842 36.89 101.773 36.6387 101.712 36.3931C101.691 36.3072 101.743 36.22 101.829 36.1988C101.915 36.177 102.002 36.2296 102.023 36.3155C102.083 36.5566 102.15 36.8035 102.223 37.0484C102.248 37.1331 102.2 37.2222 102.116 37.2478C102.1 37.253 102.085 37.2549 102.07 37.2549ZM114.552 36.6977C114.535 36.6977 114.517 36.6951 114.501 36.6893C114.417 36.6611 114.372 36.5701 114.401 36.4861C114.481 36.2488 114.553 36.0058 114.615 35.7628C114.636 35.6769 114.724 35.6249 114.81 35.6474C114.896 35.6692 114.947 35.7564 114.925 35.8423C114.861 36.093 114.787 36.3444 114.703 36.5893C114.681 36.6554 114.619 36.6977 114.552 36.6977ZM101.701 35.7666C101.626 35.7666 101.559 35.7134 101.544 35.6371C101.494 35.3806 101.451 35.1235 101.415 34.8722C101.403 34.7843 101.464 34.7035 101.552 34.6913C101.64 34.6792 101.721 34.7401 101.733 34.8279C101.767 35.0735 101.81 35.3249 101.859 35.5756C101.876 35.6621 101.819 35.7468 101.733 35.7634C101.722 35.7654 101.712 35.7666 101.701 35.7666ZM114.93 35.2126C114.921 35.2126 114.912 35.212 114.903 35.2101C114.815 35.1953 114.757 35.112 114.772 35.0248C114.815 34.776 114.847 34.5246 114.869 34.2778C114.877 34.1893 114.956 34.1239 115.043 34.1322C115.132 34.1399 115.196 34.2175 115.189 34.306C115.166 34.5618 115.132 34.8215 115.088 35.0793C115.074 35.1575 115.006 35.2126 114.93 35.2126ZM101.489 34.2483C101.407 34.2483 101.336 34.1848 101.33 34.1008C101.308 33.8379 101.297 33.5763 101.294 33.3237C101.292 33.2352 101.364 33.1627 101.452 33.1614C101.541 33.1595 101.613 33.2313 101.614 33.3198C101.617 33.5647 101.628 33.8187 101.649 34.0751C101.656 34.1636 101.59 34.2406 101.502 34.2476C101.498 34.2483 101.494 34.2483 101.489 34.2483ZM115.064 33.6814C114.976 33.6814 114.904 33.6141 114.904 33.5256V33.5128C114.904 33.2666 114.892 33.0172 114.87 32.7748C114.862 32.6869 114.926 32.6087 115.015 32.6004C115.103 32.5927 115.181 32.6568 115.189 32.7453C115.213 32.9973 115.224 33.257 115.224 33.5167C115.224 33.6051 115.153 33.6814 115.064 33.6814ZM101.475 32.7158C101.471 32.7158 101.468 32.7158 101.464 32.7152C101.376 32.7094 101.309 32.6331 101.315 32.5446C101.333 32.2791 101.362 32.0182 101.401 31.7681C101.415 31.6809 101.497 31.6213 101.585 31.6347C101.672 31.6488 101.732 31.7309 101.718 31.8181C101.68 32.0586 101.652 32.3099 101.635 32.5657C101.629 32.651 101.558 32.7158 101.475 32.7158ZM114.919 32.1618C114.844 32.1618 114.778 32.1092 114.762 32.0323C114.713 31.7854 114.651 31.5411 114.577 31.3071C114.55 31.2224 114.597 31.1327 114.681 31.1057C114.766 31.0794 114.856 31.1256 114.883 31.2102C114.96 31.4558 115.026 31.7117 115.076 31.9701C115.094 32.0566 115.037 32.1413 114.95 32.1586C114.94 32.1611 114.93 32.1618 114.919 32.1618ZM101.719 31.2045C101.705 31.2045 101.691 31.2025 101.677 31.1987C101.592 31.1756 101.541 31.0878 101.564 31.0025C101.633 30.7447 101.717 30.4934 101.813 30.2568C101.846 30.1747 101.939 30.1349 102.022 30.1683C102.104 30.2016 102.144 30.2952 102.111 30.3773C102.019 30.6017 101.94 30.8396 101.874 31.0852C101.854 31.157 101.789 31.2045 101.719 31.2045ZM114.457 30.7037C114.396 30.7037 114.338 30.6684 114.311 30.6094C114.208 30.3824 114.09 30.1606 113.961 29.9503C113.915 29.8746 113.939 29.7759 114.015 29.7297C114.09 29.6835 114.188 29.7073 114.235 29.7823C114.371 30.0035 114.495 30.2375 114.603 30.4767C114.64 30.5575 114.604 30.6524 114.523 30.6889C114.501 30.6992 114.479 30.7037 114.457 30.7037ZM102.298 29.7893C102.27 29.7893 102.243 29.7823 102.218 29.7675C102.141 29.7233 102.115 29.6252 102.159 29.5482C102.293 29.318 102.444 29.0988 102.608 28.8974C102.664 28.8288 102.765 28.8185 102.834 28.8743C102.902 28.9301 102.913 29.0314 102.857 29.1C102.704 29.2885 102.562 29.4937 102.437 29.7098C102.407 29.7605 102.353 29.7893 102.298 29.7893ZM113.657 29.4008C113.611 29.4008 113.564 29.3802 113.532 29.3411C113.416 29.1969 113.291 29.0552 113.16 28.9218C113.117 28.8775 113.073 28.8339 113.029 28.791C112.966 28.7294 112.964 28.6281 113.025 28.564C113.086 28.5005 113.187 28.4986 113.251 28.5595C113.298 28.6044 113.344 28.6506 113.389 28.6974C113.527 28.8384 113.659 28.9872 113.782 29.1398C113.838 29.209 113.827 29.3097 113.757 29.3655C113.728 29.3892 113.692 29.4008 113.657 29.4008ZM103.262 28.6057C103.218 28.6057 103.174 28.5877 103.142 28.5518C103.083 28.4858 103.09 28.3844 103.156 28.3255C103.347 28.1555 103.558 27.9946 103.782 27.8458C103.856 27.7971 103.955 27.817 104.004 27.8914C104.053 27.9651 104.032 28.0645 103.959 28.1132C103.746 28.2536 103.547 28.4056 103.368 28.5653C103.338 28.5922 103.3 28.6057 103.262 28.6057ZM112.556 28.3389C112.522 28.3389 112.488 28.3287 112.46 28.3069C112.263 28.1594 112.052 28.0209 111.836 27.8959C111.759 27.8516 111.732 27.7535 111.777 27.6766C111.821 27.5996 111.919 27.5733 111.995 27.6176C112.224 27.749 112.444 27.8946 112.651 28.0497C112.722 28.103 112.737 28.203 112.683 28.2742C112.653 28.3171 112.605 28.3389 112.556 28.3389ZM104.535 27.758C104.476 27.758 104.42 27.7253 104.391 27.6689C104.352 27.5894 104.384 27.4932 104.463 27.4541C104.692 27.3399 104.934 27.2354 105.183 27.1437C105.265 27.1129 105.358 27.1553 105.388 27.2386C105.419 27.322 105.377 27.4137 105.293 27.4444C105.056 27.5323 104.824 27.6323 104.605 27.7413C104.583 27.7522 104.559 27.758 104.535 27.758ZM111.231 27.5733C111.21 27.5733 111.188 27.5688 111.168 27.5599C110.942 27.4618 110.705 27.3739 110.465 27.2989C110.38 27.2726 110.333 27.1828 110.36 27.0982C110.386 27.0136 110.476 26.9667 110.56 26.993C110.812 27.0713 111.059 27.163 111.295 27.2655C111.377 27.3008 111.414 27.3951 111.379 27.4765C111.352 27.5374 111.293 27.5733 111.231 27.5733ZM105.97 27.2245C105.899 27.2245 105.834 27.1771 105.815 27.1046C105.792 27.0187 105.844 26.9315 105.929 26.909C106.178 26.8436 106.435 26.7891 106.693 26.7462C106.781 26.7314 106.863 26.7911 106.878 26.8783C106.892 26.9655 106.833 27.0482 106.746 27.0623C106.498 27.1033 106.25 27.1559 106.01 27.2187C105.997 27.2226 105.983 27.2245 105.97 27.2245ZM109.77 27.1155C109.759 27.1155 109.749 27.1142 109.738 27.1123C109.496 27.0629 109.246 27.0238 108.996 26.9969C108.908 26.9873 108.844 26.9084 108.853 26.8205C108.863 26.7327 108.942 26.6692 109.03 26.6782C109.29 26.7064 109.55 26.7468 109.802 26.7981C109.889 26.8161 109.945 26.9007 109.927 26.9873C109.911 27.0629 109.845 27.1155 109.77 27.1155ZM107.481 26.9738C107.397 26.9738 107.327 26.9097 107.321 26.825C107.315 26.7366 107.381 26.6596 107.469 26.6532C107.728 26.634 107.991 26.6263 108.25 26.6301C108.339 26.6314 108.409 26.7045 108.408 26.793C108.407 26.8808 108.335 26.9507 108.248 26.9507C108.247 26.9507 108.246 26.9507 108.245 26.9507C107.996 26.9469 107.742 26.9546 107.493 26.9732C107.489 26.9738 107.485 26.9738 107.481 26.9738Z" fill="#181A44"/>
<path d="M129.912 45.3796C129.866 45.3796 129.821 45.3603 129.789 45.3225C129.732 45.2545 129.741 45.1539 129.809 45.0968C129.911 45.0109 130.007 44.9282 130.098 44.8487C130.165 44.7903 130.266 44.7974 130.325 44.864C130.383 44.9307 130.376 45.032 130.309 45.0904C130.217 45.1712 130.119 45.2552 130.015 45.3424C129.985 45.3674 129.948 45.3796 129.912 45.3796Z" fill="#181A44"/>
<path d="M43.0307 100.768C44.2131 101.95 44.0041 104.074 44.0041 104.074C44.0041 104.074 41.8785 104.285 40.6968 103.102C39.5144 101.92 39.7247 99.7949 39.7247 99.7949C39.7247 99.7949 41.8484 99.5852 43.0307 100.768Z" fill="#F0426A"/>
<path d="M39.7238 99.7944L44.0032 104.074C44.0032 104.074 41.8776 104.284 40.6959 103.102C39.5135 101.92 39.7238 99.7944 39.7238 99.7944Z" fill="#CF2959"/>
<path d="M45.4543 100.768C44.2719 101.95 44.4809 104.074 44.4809 104.074C44.4809 104.074 46.6065 104.285 47.7883 103.102C48.9707 101.92 48.7603 99.7949 48.7603 99.7949C48.7603 99.7949 46.636 99.5852 45.4543 100.768Z" fill="#F0426A"/>
<path d="M48.7605 99.7944L44.4811 104.074C44.4811 104.074 46.6067 104.284 47.7884 103.102C48.9708 101.92 48.7605 99.7944 48.7605 99.7944Z" fill="#CF2959"/>
<path d="M43.2447 96.64C44.218 97.6133 44.0456 99.3619 44.0456 99.3619C44.0456 99.3619 42.2964 99.535 41.323 98.5617C40.3497 97.5883 40.5228 95.8391 40.5228 95.8391C40.5228 95.8391 42.272 95.6673 43.2447 96.64Z" fill="#F0426A"/>
<path d="M40.5227 95.8394L44.0455 99.3621C44.0455 99.3621 42.2963 99.5353 41.323 98.5619C40.3503 97.5886 40.5227 95.8394 40.5227 95.8394Z" fill="#CF2959"/>
<path d="M45.2395 96.64C44.2661 97.6133 44.4386 99.3619 44.4386 99.3619C44.4386 99.3619 46.1878 99.535 47.1612 98.5617C48.1345 97.5883 47.9614 95.8391 47.9614 95.8391C47.9614 95.8391 46.2128 95.6673 45.2395 96.64Z" fill="#F0426A"/>
<path d="M47.9614 95.8394L44.4387 99.3621C44.4387 99.3621 46.1879 99.5353 47.1612 98.5619C48.1346 97.5886 47.9614 95.8394 47.9614 95.8394Z" fill="#CF2959"/>
<path d="M43.5159 93.3583C44.2245 94.0668 44.0988 95.3396 44.0988 95.3396C44.0988 95.3396 42.8254 95.4653 42.1168 94.7574C41.4083 94.0489 41.5346 92.7755 41.5346 92.7755C41.5346 92.7755 42.808 92.6498 43.5159 93.3583Z" fill="#F0426A"/>
<path d="M41.5353 92.7749L44.0995 95.3391C44.0995 95.3391 42.826 95.4648 42.1175 94.7569C41.409 94.0483 41.5353 92.7749 41.5353 92.7749Z" fill="#CF2959"/>
<path d="M44.9683 93.3583C44.2598 94.0668 44.3854 95.3396 44.3854 95.3396C44.3854 95.3396 45.6589 95.4653 46.3674 94.7574C47.0759 94.0489 46.9496 92.7755 46.9496 92.7755C46.9496 92.7755 45.6768 92.6498 44.9683 93.3583Z" fill="#F0426A"/>
<path d="M46.9497 92.7749L44.3856 95.3391C44.3856 95.3391 45.659 95.4648 46.3675 94.7569C47.0754 94.0483 46.9497 92.7749 46.9497 92.7749Z" fill="#CF2959"/>
<path d="M44.4809 92.2671H44.0032V106.922H44.4809V92.2671Z" fill="#181A44"/>
<path d="M43.8179 91.0003C44.3302 91.5126 44.2392 92.4327 44.2392 92.4327C44.2392 92.4327 43.3184 92.5238 42.8067 92.0115C42.2944 91.4991 42.3855 90.579 42.3855 90.579C42.3855 90.579 43.3062 90.488 43.8179 91.0003Z" fill="#F0426A"/>
<path d="M42.3861 90.5784L44.2399 92.4321C44.2399 92.4321 43.3191 92.5231 42.8074 92.0108C42.2951 91.4991 42.3861 90.5784 42.3861 90.5784Z" fill="#CF2959"/>
<path d="M44.6662 91C44.1539 91.5124 44.245 92.4325 44.245 92.4325C44.245 92.4325 45.1657 92.5235 45.6774 92.0112C46.1897 91.4989 46.0987 90.5788 46.0987 90.5788C46.0987 90.5788 45.1786 90.4877 44.6662 91Z" fill="#F0426A"/>
<path d="M46.0987 90.5781L44.245 92.4319C44.245 92.4319 45.1658 92.5229 45.6774 92.0106C46.1898 91.4989 46.0987 90.5781 46.0987 90.5781Z" fill="#CF2959"/>
<path d="M46.5328 113.569H41.9514L40.4413 105.967H48.0428L46.5328 113.569Z" fill="#292A72"/>
<path d="M48.509 105.967H39.9758V106.421H48.509V105.967Z" fill="#181A44"/>
<path d="M37.5033 54.4952C37.4027 55.1704 36.7736 55.6353 36.0984 55.5346C35.4233 55.434 34.9584 54.805 35.0591 54.1298C35.1597 53.4546 35.7887 52.9897 36.4639 53.0904C37.1391 53.1917 37.604 53.8201 37.5033 54.4952Z" fill="#6858F7"/>
<path d="M36.0773 54.9398C36.0638 54.9315 36.0516 54.9206 36.042 54.9078L35.6303 54.3692C35.5861 54.3115 35.597 54.2294 35.6547 54.1851C35.7124 54.1409 35.7945 54.1524 35.8387 54.2095L36.1593 54.6288L36.8262 53.9633C36.8775 53.912 36.9596 53.912 37.0115 53.9633C37.0628 54.0146 37.0628 54.0979 37.0115 54.1492L36.2388 54.9206C36.2119 54.9475 36.1754 54.961 36.1375 54.9584C36.1164 54.9578 36.0952 54.9507 36.0773 54.9398Z" fill="white"/>
<path d="M107.611 14.3134C107.468 15.2701 106.577 15.9292 105.62 15.7863C104.663 15.6433 104.004 14.752 104.147 13.7953C104.29 12.8386 105.181 12.1795 106.138 12.3225C107.095 12.4655 107.754 13.3567 107.611 14.3134Z" fill="#6858F7"/>
<path d="M105.59 14.9429C105.571 14.9314 105.554 14.916 105.54 14.8974L104.957 14.1344C104.895 14.053 104.911 13.9363 104.992 13.8734C105.074 13.8112 105.19 13.8272 105.253 13.908L105.707 14.5024L106.652 13.5592C106.724 13.4868 106.841 13.4868 106.914 13.5592C106.987 13.6317 106.987 13.7497 106.914 13.8221L105.819 14.9154C105.781 14.9532 105.729 14.9731 105.676 14.9692C105.645 14.9686 105.616 14.959 105.59 14.9429Z" fill="white"/>
<path d="M134.245 15.4806C134.145 16.1558 133.516 16.6207 132.84 16.52C132.165 16.4193 131.7 15.7903 131.801 15.1151C131.902 14.4399 132.531 13.975 133.206 14.0757C133.88 14.177 134.346 14.806 134.245 15.4806Z" fill="#6858F7"/>
<path d="M132.819 15.9252C132.806 15.9168 132.793 15.9059 132.784 15.8931L132.372 15.3545C132.328 15.2968 132.339 15.2147 132.397 15.1705C132.454 15.1262 132.536 15.1378 132.581 15.1949L132.901 15.6142L133.568 14.9486C133.619 14.8973 133.701 14.8973 133.753 14.9486C133.805 14.9999 133.805 15.0833 133.753 15.1346L132.981 15.9059C132.954 15.9329 132.917 15.9463 132.879 15.9438C132.858 15.9431 132.837 15.9367 132.819 15.9252Z" fill="white"/>
<path d="M125.336 67.0069C125.203 68.0091 124.375 68.7004 123.486 68.5503C122.598 68.4003 121.985 67.4667 122.118 66.4645C122.251 65.4623 123.079 64.7711 123.967 64.9211C124.856 65.0705 125.468 66.0047 125.336 67.0069Z" fill="#6858F7"/>
<path d="M123.459 67.6668C123.441 67.6546 123.425 67.6386 123.412 67.6193L122.87 66.8197C122.812 66.7344 122.827 66.612 122.902 66.5466C122.978 66.4812 123.086 66.4978 123.145 66.5831L123.567 67.2057L124.444 66.2176C124.511 66.1413 124.619 66.142 124.688 66.2176C124.755 66.2939 124.755 66.4171 124.687 66.4934L123.67 67.6385C123.635 67.6783 123.586 67.6988 123.537 67.695C123.51 67.693 123.483 67.6828 123.459 67.6668Z" fill="white"/>
<path d="M64.5077 10.0114C64.407 10.6865 63.778 11.1514 63.1028 11.0507C62.4276 10.9501 61.9627 10.3211 62.0634 9.64587C62.1641 8.97068 62.7931 8.50581 63.4683 8.60647C64.1428 8.70779 64.6083 9.33681 64.5077 10.0114Z" fill="#6858F7"/>
<path d="M63.0816 10.4559C63.0682 10.4476 63.056 10.4367 63.0464 10.4239L62.6347 9.88527C62.5905 9.82756 62.6014 9.74549 62.6591 9.70125C62.7168 9.657 62.7989 9.66855 62.8431 9.72561L63.1637 10.145L63.8306 9.47939C63.8819 9.42809 63.9639 9.42809 64.0159 9.47939C64.0672 9.53069 64.0672 9.61404 64.0159 9.66534L63.2432 10.4367C63.2163 10.4636 63.1798 10.4771 63.1419 10.4745C63.1201 10.4739 63.0996 10.4675 63.0816 10.4559Z" fill="white"/>
<path d="M50.1017 73.632C49.9023 73.632 49.7401 73.4697 49.7401 73.2703V70.7183C49.7401 70.5189 49.9023 70.3567 50.1017 70.3567C50.3012 70.3567 50.4634 70.5189 50.4634 70.7183V73.2703C50.4634 73.4697 50.3018 73.632 50.1017 73.632Z" fill="#F0426A"/>
<path d="M51.3784 72.3561H48.8264C48.627 72.3561 48.4648 72.1939 48.4648 71.9945C48.4648 71.795 48.627 71.6328 48.8264 71.6328H51.3784C51.5778 71.6328 51.7401 71.795 51.7401 71.9945C51.7401 72.1939 51.5778 72.3561 51.3784 72.3561Z" fill="#F0426A"/>
<path d="M40.0245 3.32312C39.8219 3.32312 39.6577 3.15833 39.6577 2.95571V0.366526C39.6577 0.163905 39.8225 -0.000244141 40.0245 -0.000244141C40.2271 -0.000244141 40.3919 0.164546 40.3919 0.366526V2.95635C40.3919 3.15898 40.2271 3.32312 40.0245 3.32312Z" fill="#F0426A"/>
<path d="M41.3197 2.02886H38.7298C38.5272 2.02886 38.3624 1.86407 38.3624 1.66145C38.3624 1.45883 38.5272 1.29468 38.7298 1.29468H41.3197C41.5223 1.29468 41.6871 1.45947 41.6871 1.66145C41.6871 1.86407 41.5223 2.02886 41.3197 2.02886Z" fill="#F0426A"/>
<path d="M90.9593 3.03148C90.8195 3.03148 90.706 2.91798 90.706 2.7782V0.991801C90.706 0.852019 90.8195 0.738525 90.9593 0.738525C91.099 0.738525 91.2126 0.852019 91.2126 0.991801V2.7782C91.2126 2.91798 91.099 3.03148 90.9593 3.03148Z" fill="#F0426A"/>
<path d="M91.8525 2.13814H90.0661C89.9263 2.13814 89.8128 2.02465 89.8128 1.88487C89.8128 1.74509 89.9263 1.63159 90.0661 1.63159H91.8525C91.9923 1.63159 92.1058 1.74509 92.1058 1.88487C92.1058 2.02401 91.9923 2.13814 91.8525 2.13814Z" fill="#F0426A"/>
<path d="M29.1497 27.7746C29.0099 27.7746 28.8964 27.6611 28.8964 27.5214V25.735C28.8964 25.5952 29.0099 25.4817 29.1497 25.4817C29.2895 25.4817 29.403 25.5952 29.403 25.735V27.5214C29.403 27.6611 29.2895 27.7746 29.1497 27.7746Z" fill="#F0426A"/>
<path d="M30.0428 26.8816H28.2564C28.1167 26.8816 28.0032 26.7681 28.0032 26.6283C28.0032 26.4885 28.1167 26.375 28.2564 26.375H30.0428C30.1826 26.375 30.2961 26.4885 30.2961 26.6283C30.2961 26.7681 30.1826 26.8816 30.0428 26.8816Z" fill="#F0426A"/>
<path d="M122.494 33.5509C122.324 33.5509 122.186 33.4131 122.186 33.2431V31.0727C122.186 30.9028 122.324 30.7649 122.494 30.7649C122.664 30.7649 122.802 30.9028 122.802 31.0727V33.2431C122.802 33.4124 122.664 33.5509 122.494 33.5509Z" fill="#F0426A"/>
<path d="M123.579 32.4657H121.409C121.239 32.4657 121.101 32.3278 121.101 32.1579C121.101 31.988 121.239 31.8501 121.409 31.8501H123.579C123.749 31.8501 123.887 31.988 123.887 32.1579C123.887 32.3278 123.749 32.4657 123.579 32.4657Z" fill="#F0426A"/>
<defs>
<linearGradient id="paint0_linear_116_2" x1="1.75317e-05" y1="146.184" x2="170.651" y2="146.184" gradientUnits="userSpaceOnUse">
<stop stop-color="#F86424"/>
<stop offset="1" stop-color="#F86424"/>
</linearGradient>
<linearGradient id="paint1_linear_116_2" x1="146.548" y1="146.184" x2="18.3186" y2="146.184" gradientUnits="userSpaceOnUse">
<stop stop-color="#231F20"/>
<stop offset="1" stop-color="white"/>
</linearGradient>
<linearGradient id="paint2_linear_116_2" x1="169.209" y1="106.372" x2="1.3736" y2="106.372" gradientUnits="userSpaceOnUse">
<stop stop-color="#F86424"/>
<stop offset="1" stop-color="#F86424"/>
</linearGradient>
<linearGradient id="paint3_linear_116_2" x1="-46.5029" y1="21.465" x2="75.0178" y2="99.7326" gradientUnits="userSpaceOnUse">
<stop stop-color="white"/>
<stop offset="1"/>
</linearGradient>
<linearGradient id="paint4_linear_116_2" x1="-46.5029" y1="21.465" x2="75.0178" y2="99.7326" gradientUnits="userSpaceOnUse">
<stop stop-color="white"/>
<stop offset="1" stop-color="white"/>
</linearGradient>
</defs>
</svg>
