<svg width="239" height="205" viewBox="0 0 239 205" fill="none" xmlns="http://www.w3.org/2000/svg">
<g opacity="0.15">
<path opacity="0.0323" d="M151.314 204.414C198.439 204.414 236.641 190.277 236.641 172.839C236.641 155.4 198.439 141.264 151.314 141.264C104.189 141.264 65.986 155.4 65.986 172.839C65.986 190.277 104.189 204.414 151.314 204.414Z" fill="#231F20"/>
<path opacity="0.0645" d="M149.117 204.148C196.242 204.148 234.445 190.011 234.445 172.573C234.445 155.135 196.242 140.998 149.117 140.998C101.992 140.998 63.7892 155.135 63.7892 172.573C63.7892 190.011 101.992 204.148 149.117 204.148Z" fill="#231F20"/>
<path opacity="0.0968" d="M146.916 203.883C194.041 203.883 232.243 189.746 232.243 172.308C232.243 154.87 194.041 140.733 146.916 140.733C99.7904 140.733 61.5879 154.87 61.5879 172.308C61.5879 189.746 99.7904 203.883 146.916 203.883Z" fill="#231F20"/>
<path opacity="0.129" d="M144.714 203.617C191.84 203.617 230.042 189.48 230.042 172.042C230.042 154.604 191.84 140.467 144.714 140.467C97.5892 140.467 59.3866 154.604 59.3866 172.042C59.3866 189.48 97.5892 203.617 144.714 203.617Z" fill="#231F20"/>
<path opacity="0.1613" d="M142.517 203.347C189.643 203.347 227.845 189.211 227.845 171.773C227.845 154.334 189.643 140.198 142.517 140.198C95.3923 140.198 57.1897 154.334 57.1897 171.773C57.1897 189.211 95.3923 203.347 142.517 203.347Z" fill="#231F20"/>
<path opacity="0.1935" d="M140.316 203.083C187.441 203.083 225.644 188.946 225.644 171.508C225.644 154.069 187.441 139.933 140.316 139.933C93.1909 139.933 54.9884 154.069 54.9884 171.508C54.9884 188.946 93.1909 203.083 140.316 203.083Z" fill="#231F20"/>
<path opacity="0.2258" d="M138.119 202.817C185.244 202.817 223.447 188.68 223.447 171.242C223.447 153.804 185.244 139.667 138.119 139.667C90.994 139.667 52.7915 153.804 52.7915 171.242C52.7915 188.68 90.994 202.817 138.119 202.817Z" fill="#231F20"/>
<path opacity="0.2581" d="M135.918 202.547C183.043 202.547 221.246 188.411 221.246 170.973C221.246 153.534 183.043 139.398 135.918 139.398C88.7927 139.398 50.5902 153.534 50.5902 170.973C50.5902 188.411 88.7927 202.547 135.918 202.547Z" fill="#231F20"/>
<path opacity="0.2903" d="M133.717 202.282C180.842 202.282 219.044 188.146 219.044 170.708C219.044 153.269 180.842 139.133 133.717 139.133C86.5915 139.133 48.3889 153.269 48.3889 170.708C48.3889 188.146 86.5915 202.282 133.717 202.282Z" fill="#231F20"/>
<path opacity="0.3226" d="M131.52 202.017C178.645 202.017 216.847 187.88 216.847 170.442C216.847 153.003 178.645 138.867 131.52 138.867C84.3946 138.867 46.192 153.003 46.192 170.442C46.192 187.88 84.3946 202.017 131.52 202.017Z" fill="#231F20"/>
<path opacity="0.3548" d="M129.318 201.751C176.444 201.751 214.646 187.615 214.646 170.176C214.646 152.738 176.444 138.602 129.318 138.602C82.1932 138.602 43.9908 152.738 43.9908 170.176C43.9908 187.615 82.1932 201.751 129.318 201.751Z" fill="#231F20"/>
<path opacity="0.3871" d="M127.117 201.481C174.242 201.481 212.445 187.345 212.445 169.907C212.445 152.468 174.242 138.332 127.117 138.332C79.9919 138.332 41.7894 152.468 41.7894 169.907C41.7894 187.345 79.9919 201.481 127.117 201.481Z" fill="#231F20"/>
<path opacity="0.4194" d="M124.92 201.216C172.046 201.216 210.248 187.08 210.248 169.641C210.248 152.203 172.046 138.066 124.92 138.066C77.7951 138.066 39.5925 152.203 39.5925 169.641C39.5925 187.08 77.7951 201.216 124.92 201.216Z" fill="#231F20"/>
<path opacity="0.4516" d="M122.719 200.951C169.844 200.951 208.047 186.814 208.047 169.376C208.047 151.938 169.844 137.801 122.719 137.801C75.5938 137.801 37.3912 151.938 37.3912 169.376C37.3912 186.814 75.5938 200.951 122.719 200.951Z" fill="#231F20"/>
<path opacity="0.4839" d="M120.522 200.68C167.647 200.68 205.85 186.544 205.85 169.106C205.85 151.667 167.647 137.531 120.522 137.531C73.3969 137.531 35.1944 151.667 35.1944 169.106C35.1944 186.544 73.3969 200.68 120.522 200.68Z" fill="#231F20"/>
<path opacity="0.5161" d="M118.321 200.415C165.446 200.415 203.649 186.278 203.649 168.84C203.649 151.402 165.446 137.265 118.321 137.265C71.1955 137.265 32.9931 151.402 32.9931 168.84C32.9931 186.278 71.1955 200.415 118.321 200.415Z" fill="#231F20"/>
<path opacity="0.5484" d="M116.119 200.151C163.245 200.151 201.447 186.014 201.447 168.576C201.447 151.137 163.245 137.001 116.119 137.001C68.9943 137.001 30.7918 151.137 30.7918 168.576C30.7918 186.014 68.9943 200.151 116.119 200.151Z" fill="#231F20"/>
<path opacity="0.5806" d="M113.923 199.88C161.048 199.88 199.25 185.744 199.25 168.305C199.25 150.867 161.048 136.73 113.923 136.73C66.7974 136.73 28.5948 150.867 28.5948 168.305C28.5948 185.744 66.7974 199.88 113.923 199.88Z" fill="#231F20"/>
<path opacity="0.6129" d="M111.721 199.615C158.847 199.615 197.049 185.478 197.049 168.04C197.049 150.602 158.847 136.465 111.721 136.465C64.5961 136.465 26.3935 150.602 26.3935 168.04C26.3935 185.478 64.5961 199.615 111.721 199.615Z" fill="#231F20"/>
<path opacity="0.6452" d="M109.524 199.35C156.65 199.35 194.852 185.213 194.852 167.775C194.852 150.337 156.65 136.2 109.524 136.2C62.3992 136.2 24.1967 150.337 24.1967 167.775C24.1967 185.213 62.3992 199.35 109.524 199.35Z" fill="#231F20"/>
<path opacity="0.6774" d="M107.323 199.084C154.448 199.084 192.651 184.948 192.651 167.509C192.651 150.071 154.448 135.935 107.323 135.935C60.1979 135.935 21.9954 150.071 21.9954 167.509C21.9954 184.948 60.1979 199.084 107.323 199.084Z" fill="#231F20"/>
<path opacity="0.7097" d="M105.122 198.815C152.247 198.815 190.45 184.678 190.45 167.24C190.45 149.802 152.247 135.665 105.122 135.665C57.9967 135.665 19.7941 149.802 19.7941 167.24C19.7941 184.678 57.9967 198.815 105.122 198.815Z" fill="#231F20"/>
<path opacity="0.7419" d="M102.925 198.549C150.05 198.549 188.253 184.413 188.253 166.975C188.253 149.536 150.05 135.4 102.925 135.4C55.7997 135.4 17.5971 149.536 17.5971 166.975C17.5971 184.413 55.7997 198.549 102.925 198.549Z" fill="#231F20"/>
<path opacity="0.7742" d="M100.724 198.283C147.849 198.283 186.051 184.147 186.051 166.709C186.051 149.27 147.849 135.134 100.724 135.134C53.5984 135.134 15.3959 149.27 15.3959 166.709C15.3959 184.147 53.5984 198.283 100.724 198.283Z" fill="#231F20"/>
<path opacity="0.8065" d="M98.5267 198.014C145.652 198.014 183.854 183.878 183.854 166.439C183.854 149.001 145.652 134.865 98.5267 134.865C51.4015 134.865 13.199 149.001 13.199 166.439C13.199 183.878 51.4015 198.014 98.5267 198.014Z" fill="#231F20"/>
<path opacity="0.8387" d="M96.3254 197.748C143.451 197.748 181.653 183.612 181.653 166.173C181.653 148.735 143.451 134.599 96.3254 134.599C49.2002 134.599 10.9977 148.735 10.9977 166.173C10.9977 183.612 49.2002 197.748 96.3254 197.748Z" fill="#231F20"/>
<path opacity="0.871" d="M94.1242 197.483C141.249 197.483 179.452 183.347 179.452 165.909C179.452 148.47 141.249 134.334 94.1242 134.334C46.999 134.334 8.7964 148.47 8.7964 165.909C8.7964 183.347 46.999 197.483 94.1242 197.483Z" fill="#231F20"/>
<path opacity="0.9032" d="M91.9272 197.218C139.052 197.218 177.255 183.081 177.255 165.643C177.255 148.204 139.052 134.068 91.9272 134.068C44.802 134.068 6.59946 148.204 6.59946 165.643C6.59946 183.081 44.802 197.218 91.9272 197.218Z" fill="#231F20"/>
<path opacity="0.9355" d="M89.7259 196.948C136.851 196.948 175.054 182.812 175.054 165.373C175.054 147.935 136.851 133.799 89.7259 133.799C42.6007 133.799 4.39825 147.935 4.39825 165.373C4.39825 182.812 42.6007 196.948 89.7259 196.948Z" fill="#231F20"/>
<path opacity="0.9677" d="M87.529 196.683C134.654 196.683 172.857 182.547 172.857 165.108C172.857 147.67 134.654 133.534 87.529 133.534C40.4038 133.534 2.20131 147.67 2.20131 165.108C2.20131 182.547 40.4038 196.683 87.529 196.683Z" fill="#231F20"/>
<path d="M85.3278 196.417C132.453 196.417 170.655 182.281 170.655 164.843C170.655 147.404 132.453 133.268 85.3278 133.268C38.2026 133.268 0 147.404 0 164.843C0 182.281 38.2026 196.417 85.3278 196.417Z" fill="#231F20"/>
</g>
<path d="M0.00436401 115.958V166.743H0.161023C2.82344 183.292 39.9319 196.413 85.3278 196.413C130.724 196.413 167.832 183.292 170.494 166.743H170.655V115.958H0.00436401Z" fill="url(#paint0_linear_116_10)"/>
<path opacity="0.5" d="M0.00436401 115.958V166.743H0.161023C2.82344 183.292 39.9319 196.413 85.3278 196.413C130.724 196.413 167.832 183.292 170.494 166.743H170.655V115.958H0.00436401Z" fill="url(#paint1_linear_116_10)"/>
<path d="M85.3278 149.334C132.453 149.334 170.655 135.197 170.655 117.759C170.655 100.32 132.453 86.1838 85.3278 86.1838C38.2026 86.1838 0 100.32 0 117.759C0 135.197 38.2026 149.334 85.3278 149.334Z" fill="#638BD0"/>
<path d="M85.3278 147.95C132.453 147.95 170.655 133.813 170.655 116.375C170.655 98.9368 132.453 84.8003 85.3278 84.8003C38.2026 84.8003 0 98.9368 0 116.375C0 133.813 38.2026 147.95 85.3278 147.95Z" fill="url(#paint2_linear_116_10)"/>
<mask id="mask0_116_10" style="mask-type:alpha" maskUnits="userSpaceOnUse" x="3" y="86" width="164" height="61">
<path d="M85.3278 146.563C130.384 146.563 166.91 133.047 166.91 116.376C166.91 99.7037 130.384 86.1885 85.3278 86.1885C40.2713 86.1885 3.7457 99.7037 3.7457 116.376C3.7457 133.047 40.2713 146.563 85.3278 146.563Z" fill="url(#paint3_linear_116_10)"/>
</mask>
<g mask="url(#mask0_116_10)">
<path d="M85.3278 146.563C130.384 146.563 166.91 133.047 166.91 116.376C166.91 99.7037 130.384 86.1885 85.3278 86.1885C40.2713 86.1885 3.7457 99.7037 3.7457 116.376C3.7457 133.047 40.2713 146.563 85.3278 146.563Z" fill="url(#paint4_linear_116_10)"/>
</g>
<g filter="url(#filter0_d_116_10)">
<path d="M80.509 2.52213L80.0203 1.47081L80.8134 1.0051C80.8226 1.00049 80.8364 0.995877 80.8456 0.991266V0.986658L82.4687 0.0782815C82.667 -0.0416057 82.9391 -0.0277753 83.2434 0.147444L129.916 27.3157C130.239 27.5048 130.525 27.8414 130.723 28.2149C130.723 28.2149 130.723 28.2149 130.728 28.2149C130.742 28.2379 130.751 28.2656 130.765 28.2933C130.788 28.3394 130.811 28.3855 130.829 28.4316C130.848 28.4731 130.862 28.5146 130.875 28.5561C130.889 28.6022 130.908 28.6437 130.922 28.6898C130.935 28.7405 130.945 28.7913 130.958 28.842C130.968 28.8789 130.977 28.9111 130.982 28.948C130.995 29.0356 131 29.1186 131 29.2016L130.737 102.379C130.737 102.467 130.728 102.545 130.714 102.614C130.705 102.651 130.696 102.679 130.682 102.711C130.673 102.743 130.663 102.78 130.65 102.812C130.631 102.849 130.608 102.882 130.59 102.909C130.576 102.928 130.567 102.951 130.553 102.965C130.53 102.992 130.497 103.015 130.465 103.038C130.451 103.048 130.442 103.061 130.428 103.071L128.81 103.965C128.801 103.974 128.796 103.979 128.787 103.988C128.773 103.997 128.754 103.997 128.741 104.007L128.007 104.449L127.671 103.725L81.3344 76.7507C81.0347 76.5755 80.7673 76.2804 80.5736 75.9392L80.5597 75.9484C80.3753 75.6118 80.26 75.2383 80.26 74.9017V74.8786C80.26 74.874 80.26 74.874 80.26 74.8694L80.509 2.52213Z" fill="url(#paint5_linear_116_10)"/>
<path d="M126.145 101.226C111.306 92.6079 96.4725 83.9945 81.6341 75.3765L81.8877 4.75829V4.7168C96.7261 13.3441 111.56 21.9667 126.398 30.5894C126.366 39.8898 126.334 49.1949 126.297 58.4954C126.251 72.7435 126.195 86.9824 126.145 101.226Z" fill="url(#paint6_linear_116_10)"/>
<path d="M80.8182 1.52562L127.491 28.6939C128.086 29.0397 128.57 29.8882 128.566 30.5798L128.303 103.757C128.298 104.453 127.814 104.735 127.219 104.384L80.5462 77.2159C79.9514 76.8701 79.4672 76.0217 79.4718 75.33L79.7346 2.15273C79.7346 1.46107 80.2188 1.1798 80.8182 1.52562ZM126.145 101.244C126.228 77.6955 126.315 54.1423 126.398 30.5936C111.56 21.9525 96.7263 13.3161 81.888 4.67497L81.6344 75.3346L126.145 101.244Z" fill="url(#paint7_linear_116_10)"/>
<path d="M126.398 30.5941C127.03 30.2621 127.662 29.9301 128.298 29.5981C128.464 29.9163 128.565 30.2667 128.565 30.5849L128.303 103.762C128.303 104.099 128.183 104.339 127.998 104.458L126.149 101.212L126.398 30.5941Z" fill="url(#paint8_linear_116_10)"/>
<path d="M81.8877 4.71691C81.2606 3.65176 80.6336 2.58661 80.0018 1.51685C79.8312 1.64134 79.7298 1.8719 79.7298 2.19006L79.4669 75.3673C79.4669 75.7039 79.5822 76.0821 79.7667 76.414L81.6341 75.3304L81.8877 4.71691Z" fill="url(#paint9_linear_116_10)"/>
<path d="M118.822 71.2679C118.822 78.8761 113.45 81.9379 106.82 78.1107C100.189 74.2835 94.8171 65.0153 94.8171 57.4071C94.8171 49.7989 100.189 46.7372 106.82 50.5643C113.446 54.3915 118.822 63.6597 118.822 71.2679Z" fill="url(#paint10_linear_116_10)"/>
<path d="M118.85 41.5866C118.85 44.4639 116.816 45.6212 114.308 44.1734C111.8 42.7255 109.771 39.2211 109.771 36.3438C109.771 33.4665 111.804 32.3092 114.308 33.757C116.821 35.2049 118.85 38.7093 118.85 41.5866Z" fill="url(#paint11_linear_116_10)"/>
<path d="M111.85 47.2214C111.85 52.2244 108.314 54.2394 103.956 51.7218C99.5942 49.2042 96.0621 43.1084 96.0621 38.1054C96.0621 33.1024 99.5988 31.0874 103.956 33.605C108.314 36.1226 111.85 42.2184 111.85 47.2214Z" fill="url(#paint12_linear_116_10)"/>
<path d="M64.1352 4.05753L63.6465 3.00622L64.4396 2.5405C64.4488 2.53589 64.4626 2.53128 64.4718 2.52667V2.52206L66.0949 1.61368C66.2932 1.49379 66.5652 1.50763 66.8696 1.68285L113.543 28.8511C113.865 29.0402 114.151 29.3768 114.35 29.7503C114.35 29.7503 114.35 29.7503 114.354 29.7503C114.368 29.7733 114.377 29.801 114.391 29.8287C114.414 29.8748 114.437 29.9209 114.456 29.967C114.474 30.0085 114.488 30.05 114.502 30.0915C114.516 30.1376 114.534 30.1791 114.548 30.2252C114.562 30.2759 114.571 30.3267 114.585 30.3774C114.594 30.4143 114.603 30.4465 114.608 30.4834C114.622 30.571 114.626 30.654 114.626 30.737L114.363 103.914C114.363 104.002 114.354 104.08 114.34 104.149C114.331 104.186 114.322 104.214 114.313 104.246C114.303 104.279 114.294 104.315 114.28 104.348C114.262 104.385 114.239 104.417 114.22 104.445C114.207 104.463 114.197 104.486 114.184 104.5C114.16 104.528 114.128 104.551 114.096 104.574C114.082 104.583 114.073 104.597 114.059 104.606L112.441 105.501C112.431 105.51 112.427 105.514 112.417 105.524C112.404 105.533 112.385 105.533 112.371 105.542L111.638 105.985L111.302 105.261L64.9652 78.2861C64.6655 78.1109 64.3981 77.8158 64.2044 77.4746L64.1906 77.4838C64.0061 77.1472 63.8909 76.7737 63.8909 76.4371V76.4141C63.8909 76.4094 63.8909 76.4094 63.8909 76.4048L64.1352 4.05753Z" fill="url(#paint13_linear_116_10)"/>
<path d="M109.771 102.766C94.9324 94.148 80.0987 85.5345 65.2603 76.9165L65.5139 6.29833V6.25684C80.3523 14.8841 95.186 23.5068 110.024 32.1294C109.992 41.4299 109.96 50.735 109.923 60.0354C109.877 74.279 109.821 88.5225 109.771 102.766Z" fill="url(#paint14_linear_116_10)"/>
<path d="M104.92 55.0551C104.911 55.0459 104.897 55.0321 104.888 55.0183C99.3405 60.3901 93.7981 65.7574 88.251 71.1292C83.1604 64.4248 78.0698 57.7203 72.9792 51.0159C70.4339 51.3386 67.8932 51.6568 65.3479 51.9796C65.3203 60.2887 65.288 68.6024 65.2603 76.9115C80.0987 85.5295 94.9324 94.143 109.771 102.761C109.817 90.0299 109.863 77.3034 109.909 64.5723C108.249 61.4046 106.585 58.2275 104.92 55.0551Z" fill="url(#paint15_linear_116_10)"/>
<path d="M104.237 61.8383C105.353 61.2665 106.465 60.6994 107.581 60.1276C106.695 58.4354 105.81 56.7477 104.925 55.0555C104.915 55.0463 104.901 55.0324 104.892 55.0232C103.878 56.0053 102.859 56.9921 101.844 57.9743C102.642 59.2607 103.44 60.5518 104.237 61.8383Z" fill="url(#paint16_linear_116_10)"/>
<path d="M73.0484 55.0833C73.8599 54.8251 74.6715 54.5715 75.483 54.3133C74.6484 53.2158 73.8138 52.1184 72.9838 51.021C72.1815 51.1224 71.3792 51.2239 70.5722 51.3253C71.3976 52.5749 72.223 53.8291 73.0484 55.0833Z" fill="url(#paint17_linear_116_10)"/>
<path d="M64.4442 3.06531L111.117 30.2336C111.712 30.5794 112.196 31.4278 112.192 32.1195L111.929 105.297C111.924 105.993 111.44 106.274 110.845 105.924L64.1721 78.7602C63.5773 78.4144 63.0931 77.566 63.0977 76.8743L63.3606 3.69702C63.3606 3.00075 63.8448 2.71948 64.4442 3.06531ZM109.771 102.784C109.854 79.2352 109.941 55.6819 110.024 32.1333C95.186 23.4922 80.3523 14.8557 65.5139 6.21465L65.2603 76.8743L109.771 102.784Z" fill="url(#paint18_linear_116_10)"/>
<path d="M110.024 32.1288C110.656 31.7968 111.292 31.4648 111.924 31.1328C112.09 31.451 112.192 31.8014 112.192 32.1196L111.929 105.297C111.929 105.633 111.809 105.873 111.624 105.993L109.775 102.747L110.024 32.1288Z" fill="url(#paint19_linear_116_10)"/>
<path d="M65.5139 6.25158C64.8868 5.18643 64.2597 4.12128 63.628 3.05151C63.4574 3.17601 63.356 3.40656 63.356 3.72472L63.0931 76.902C63.0931 77.2386 63.2084 77.6167 63.3929 77.9487L65.2603 76.8651L65.5139 6.25158Z" fill="url(#paint20_linear_116_10)"/>
<path d="M47.0421 5.59684L46.5533 4.54552L47.3464 4.07981C47.3557 4.0752 47.3695 4.07058 47.3787 4.06597V4.06136L49.0018 3.15299C49.2001 3.0331 49.4721 3.04693 49.7764 3.22215L96.4494 30.3904C96.7722 30.5795 97.0581 30.9161 97.2564 31.2896C97.2564 31.2896 97.2564 31.2896 97.261 31.2896C97.2748 31.3126 97.2841 31.3403 97.2979 31.368C97.3209 31.4141 97.344 31.4602 97.3624 31.5063C97.3809 31.5478 97.3947 31.5893 97.4086 31.6308C97.4224 31.6769 97.4408 31.7184 97.4546 31.7645C97.4685 31.8152 97.4777 31.866 97.4915 31.9167C97.5008 31.9536 97.51 31.9858 97.5146 32.0227C97.5284 32.1103 97.533 32.1934 97.533 32.2764L97.2702 105.454C97.2702 105.541 97.261 105.62 97.2471 105.689C97.2425 105.726 97.2287 105.753 97.2149 105.786C97.2056 105.818 97.1964 105.855 97.1826 105.887C97.1642 105.924 97.1411 105.956 97.1227 105.984C97.1088 106.002 97.0996 106.025 97.0858 106.039C97.0627 106.067 97.0304 106.09 96.9982 106.113C96.9843 106.122 96.9751 106.136 96.9613 106.145L95.3428 107.04C95.3336 107.049 95.329 107.054 95.3197 107.063C95.3059 107.072 95.2875 107.072 95.2736 107.081L94.5405 107.524L94.2039 106.8L47.8675 79.8254C47.5678 79.6502 47.3003 79.3551 47.1066 79.0139L47.0928 79.0231C46.9084 78.6865 46.7931 78.313 46.7931 77.9764V77.9534C46.7931 77.9488 46.7931 77.9487 46.7931 77.9441L47.0421 5.59684Z" fill="url(#paint21_linear_116_10)"/>
<path d="M92.6822 104.305C77.8439 95.6873 63.0101 87.0738 48.1718 78.4558L48.4254 7.83764V7.79614C63.2637 16.4188 78.0975 25.0461 92.9358 33.6687C92.9035 42.9692 92.8712 52.2743 92.8344 61.5748C92.7836 75.8183 92.7329 90.0618 92.6822 104.305Z" fill="url(#paint22_linear_116_10)"/>
<path d="M47.3512 4.60546L94.0242 31.7737C94.619 32.1196 95.1032 32.968 95.0986 33.6597L94.8358 106.837C94.8312 107.533 94.347 107.814 93.7522 107.464L47.0792 80.2958C46.4844 79.9499 46.0002 79.1015 46.0048 78.4098L46.2676 5.23256C46.2676 4.5409 46.7564 4.25963 47.3512 4.60546ZM92.6824 104.324C92.7654 80.7753 92.853 57.2221 92.936 33.6735C78.0977 25.0324 63.2639 16.3959 48.4256 7.7548L48.172 78.4145L92.6824 104.324Z" fill="url(#paint23_linear_116_10)"/>
<path d="M92.9312 33.6691C93.5629 33.3371 94.1946 33.0051 94.831 32.6731C94.997 32.9913 95.0984 33.3417 95.0984 33.6599L94.8356 106.837C94.8356 107.174 94.7157 107.414 94.5313 107.533L92.6822 104.287L92.9312 33.6691Z" fill="url(#paint24_linear_116_10)"/>
<path d="M48.4208 7.79186C47.7937 6.72671 47.1666 5.66156 46.5349 4.5918C46.3643 4.7163 46.2628 4.94685 46.2628 5.26501L46 78.4423C46 78.7789 46.1153 79.157 46.2997 79.489L48.1672 78.4054L48.4208 7.79186Z" fill="url(#paint25_linear_116_10)"/>
<path d="M65.3756 59.2556C65.8782 59.3524 66.4823 59.4585 67.1416 59.8827C70.3878 61.9715 70.0327 68.1042 69.9267 70.9861C69.8483 73.144 69.4979 74.6426 69.2535 75.9337C68.6448 79.1799 67.8886 83.9293 67.4045 90.0343C63.6649 87.8302 59.93 85.6215 56.1904 83.4175C57.1726 78.8894 57.3155 75.1406 57.2371 72.4155C57.0711 66.8776 55.946 64.5906 57.6706 62.2343C59.183 60.187 62.4107 58.6792 65.3756 59.2556Z" fill="url(#paint26_linear_116_10)"/>
<path d="M55.2405 82.5275C54.678 81.3655 53.954 79.5995 53.5344 77.3401C53.3546 76.3626 53.184 75.4496 53.2209 74.2092C53.3085 71.4518 54.3506 68.8189 55.3742 67.7722C55.9552 67.1774 56.527 66.5687 57.1126 65.9739C57.4907 65.5866 57.5368 65.4989 58.1778 64.692C58.6481 64.1018 59.0077 63.6776 59.7916 62.6954C60.8798 61.3352 61.4931 60.3899 61.6868 60.1363C62.6459 58.8821 68.7417 57.4573 74.8559 60.579C75.4784 60.8971 77.5396 61.9946 80.5552 65.1301C82.8561 67.5232 84.2348 67.6569 86.8585 73.7481C86.7939 81.8405 84.2624 91.2839 84.1979 99.3763C73.0945 92.9208 66.3531 88.9968 55.2405 82.5275Z" fill="url(#paint27_linear_116_10)"/>
<path d="M77.2352 67.8643C78.3834 67.44 79.4531 67.7121 80.154 67.9011C84.3731 69.0262 86.2544 73.7433 86.6094 74.6794C86.5772 83.4634 86.5449 92.2429 86.5172 101.027C82.8607 98.9012 79.2087 96.7755 75.5522 94.6498C75.7366 90.1679 75.2847 86.5897 74.8098 84.0813C74.0305 79.9544 73.0668 78.0915 73.5602 74.5872C73.74 73.3191 74.3579 68.9202 77.2352 67.8643Z" fill="url(#paint28_linear_116_10)"/>
<path d="M64.4903 60.5977C63.5635 61.4785 63.5865 62.7696 63.5496 64.199C63.4113 69.6308 62.5167 71.7196 63.1577 71.9455C64.0015 72.2406 64.5917 68.2798 68.0085 66.7028C71.2132 65.2226 74.5562 66.9241 75.8334 64.9829C75.8842 64.9045 76.2761 64.2866 76.2023 63.4981C76.0271 61.6767 73.5418 60.8006 73.4219 60.7638C73.2974 60.0998 73.1959 59.3851 73.136 58.6196C72.9285 55.8945 73.3389 53.5429 73.8369 51.7722C70.8996 53.091 67.9624 54.4097 65.0251 55.7239C65.4217 56.0144 66.2102 56.6784 66.699 57.8219C67.0356 58.6058 67.1047 59.3159 67.1093 59.7678C66.4085 59.7493 65.288 59.8415 64.4903 60.5977Z" fill="url(#paint29_linear_116_10)"/>
<path d="M61.1057 45.2244C61.1749 46.3403 61.3594 46.4233 61.364 47.47C61.3686 48.4475 61.2072 48.7749 61.138 49.5219C61.032 50.6516 61.3594 51.7582 62.028 53.93C62.5813 55.7376 62.8672 56.6506 63.2822 56.9733C64.6194 58.02 66.888 57.0702 67.9024 56.7428C71.5867 55.5485 74.8928 52.2055 75.7366 47.9311C75.9533 46.8336 76.8018 41.6739 73.6893 39.4514C72.5089 38.6075 71.0979 38.6813 68.3036 38.7828C66.4131 38.8519 64.0845 38.9718 62.5121 40.5626C61.9311 41.1528 61.6268 41.7707 61.5576 41.9137C60.9813 43.0987 61.0458 44.2607 61.1057 45.2244Z" fill="url(#paint30_linear_116_10)"/>
<path d="M68.1099 44.9659C69.5117 45.3487 70.7014 46.8795 70.5169 48.0554C70.5031 48.1476 70.397 48.7839 69.8898 49.1528C69.3134 49.5724 68.6079 49.3418 68.5849 49.4663C68.5526 49.6369 69.7976 50.3747 70.8812 49.9874C71.642 49.7153 71.725 49.1021 72.2875 49.1021C72.9377 49.0974 73.491 49.909 73.7077 50.49C74.0905 51.5044 73.7031 52.4773 73.4357 53.1598C73.3112 53.4687 72.9469 54.3633 72.0801 55.1564C71.3238 55.848 70.872 55.8388 70.8258 56.1477C70.6967 57.0884 73.6109 59.191 75.626 58.444C76.9908 57.9368 76.8248 56.5304 78.5263 55.7881C79.8036 55.2347 80.2785 55.8618 81.4635 55.2993C82.8607 54.6353 84.1103 52.8508 83.7644 51.5044C83.4324 50.2225 81.8508 50.264 81.1407 48.3505C80.8687 47.6127 80.8272 46.9349 80.8226 46.6997C80.7995 44.8 82.0399 43.7763 80.984 41.2956C79.0704 36.7998 73.468 35.126 73.1452 35.043C72.3475 34.8309 71.5728 34.7802 71.5728 34.7802C71.559 34.7802 71.5405 34.7755 71.5129 34.7755C69.1382 34.6326 67.8978 36.2372 65.7906 37.2793C63.0147 38.6488 61.7144 37.5652 60.7692 38.9116C59.7732 40.3318 60.6124 42.393 60.7184 42.6558C61.2994 44.0898 62.6505 45.4132 64.2413 45.6346C65.9981 45.8559 66.5606 44.5417 68.1099 44.9659Z" fill="url(#paint31_linear_116_10)"/>
<path d="M72.3798 51.6019C72.555 52.2705 72.6564 52.644 72.9515 52.7731C73.4127 52.976 74.0351 52.4549 74.2565 52.2705C74.7222 51.8832 74.9205 51.4497 75.2386 50.7535C75.6121 49.9281 75.8012 49.5177 75.6675 49.1396C75.4692 48.5724 74.7729 48.222 74.1827 48.2266C73.1083 48.2312 72.2737 49.407 72.1861 50.3615C72.1492 50.7304 72.2322 51.0393 72.3798 51.6019Z" fill="url(#paint32_linear_116_10)"/>
<path d="M67.4367 60.0165C67.4367 60.3669 67.1509 60.6528 66.8004 60.6528C66.45 60.6528 66.1641 60.3669 66.1641 60.0165C66.1641 59.666 66.45 59.3801 66.8004 59.3801C67.1509 59.3801 67.4367 59.666 67.4367 60.0165Z" fill="url(#paint33_linear_116_10)"/>
<path d="M68.8293 61.5381C68.8293 62.1652 68.3221 62.6724 67.695 62.6724C67.0679 62.6724 66.5606 62.1652 66.5606 61.5381C66.5606 60.911 67.0679 60.4038 67.695 60.4038C68.3221 60.4038 68.8293 60.911 68.8293 61.5381Z" fill="url(#paint34_linear_116_10)"/>
<path d="M68.5342 61.5379C68.5342 62.0037 68.1607 62.3772 67.695 62.3772C67.2293 62.3772 66.8558 62.0037 66.8558 61.5379C66.8558 61.0722 67.2293 60.6987 67.695 60.6987C68.1607 60.6987 68.5342 61.0722 68.5342 61.5379Z" fill="url(#paint35_linear_116_10)"/>
<path d="M69.4702 62.2343C69.8216 62.2343 70.1065 61.9494 70.1065 61.598C70.1065 61.2466 69.8216 60.9617 69.4702 60.9617C69.1188 60.9617 68.8339 61.2466 68.8339 61.598C68.8339 61.9494 69.1188 62.2343 69.4702 62.2343Z" fill="url(#paint36_linear_116_10)"/>
<path d="M71.3884 61.5611C71.3607 61.9116 71.0564 62.1744 70.706 62.1467C70.3555 62.1191 70.0927 61.8147 70.1204 61.4643C70.148 61.1139 70.4524 60.851 70.8028 60.8787C71.1532 60.9018 71.4161 61.2107 71.3884 61.5611Z" fill="url(#paint37_linear_116_10)"/>
<path d="M72.5873 61.1971C72.5596 61.5476 72.2553 61.8104 71.9048 61.7827C71.5544 61.7551 71.2916 61.4507 71.3192 61.1003C71.3469 60.7499 71.6512 60.487 72.0017 60.5147C72.3521 60.5377 72.6149 60.8421 72.5873 61.1971Z" fill="url(#paint38_linear_116_10)"/>
<path d="M73.6432 60.5143C73.6155 60.8647 73.3112 61.1275 72.9607 61.0999C72.6103 61.0722 72.3475 60.7679 72.3751 60.4174C72.4028 60.067 72.7072 59.8042 73.0576 59.8318C73.408 59.8595 73.6708 60.1638 73.6432 60.5143Z" fill="url(#paint39_linear_116_10)"/>
<path d="M72.0432 45.22C71.5452 44.9617 71.3469 44.3485 71.6051 43.8459C71.8633 43.3479 72.4766 43.1496 72.9792 43.4078C73.4772 43.666 73.6755 44.2793 73.4172 44.7819C73.1544 45.2799 72.5412 45.4782 72.0432 45.22Z" fill="url(#paint40_linear_116_10)"/>
<path d="M70.9089 46.1285C70.5077 45.921 70.3509 45.4276 70.5538 45.0264C70.7613 44.6253 71.2547 44.4685 71.6558 44.6714C72.057 44.8789 72.2138 45.3723 72.0109 45.7734C71.808 46.1746 71.3146 46.336 70.9089 46.1285Z" fill="url(#paint41_linear_116_10)"/>
<path d="M69.7469 46.603C69.4333 46.4416 69.3088 46.0543 69.4702 45.7361C69.6316 45.418 70.0189 45.2981 70.3371 45.4595C70.6553 45.6209 70.7751 46.0082 70.6137 46.3264C70.4524 46.6399 70.0604 46.7644 69.7469 46.603Z" fill="url(#paint42_linear_116_10)"/>
</g>
<defs>
<filter id="filter0_d_116_10" x="42" y="0" width="93" height="145.615" filterUnits="userSpaceOnUse" color-interpolation-filters="sRGB">
<feFlood flood-opacity="0" result="BackgroundImageFix"/>
<feColorMatrix in="SourceAlpha" type="matrix" values="0 0 0 0 0 0 0 0 0 0 0 0 0 0 0 0 0 0 127 0" result="hardAlpha"/>
<feOffset dy="34"/>
<feGaussianBlur stdDeviation="2"/>
<feComposite in2="hardAlpha" operator="out"/>
<feColorMatrix type="matrix" values="0 0 0 0 0 0 0 0 0 0 0 0 0 0 0 0 0 0 0.04 0"/>
<feBlend mode="normal" in2="BackgroundImageFix" result="effect1_dropShadow_116_10"/>
<feBlend mode="normal" in="SourceGraphic" in2="effect1_dropShadow_116_10" result="shape"/>
</filter>
<linearGradient id="paint0_linear_116_10" x1="0.00223234" y1="156.186" x2="170.654" y2="156.186" gradientUnits="userSpaceOnUse">
<stop stop-color="#1EC0B1"/>
<stop offset="1" stop-color="#1EC0B1"/>
</linearGradient>
<linearGradient id="paint1_linear_116_10" x1="146.55" y1="156.186" x2="18.3208" y2="156.186" gradientUnits="userSpaceOnUse">
<stop stop-color="#231F20"/>
<stop offset="1" stop-color="white"/>
</linearGradient>
<linearGradient id="paint2_linear_116_10" x1="169.211" y1="116.374" x2="1.37572" y2="116.374" gradientUnits="userSpaceOnUse">
<stop stop-color="#1EC0B1"/>
<stop offset="1" stop-color="#1EC0B1"/>
</linearGradient>
<linearGradient id="paint3_linear_116_10" x1="-46.5007" y1="31.4675" x2="75.0201" y2="109.735" gradientUnits="userSpaceOnUse">
<stop stop-color="white"/>
<stop offset="1"/>
</linearGradient>
<linearGradient id="paint4_linear_116_10" x1="-46.5007" y1="31.4675" x2="75.0201" y2="109.735" gradientUnits="userSpaceOnUse">
<stop stop-color="white"/>
<stop offset="1" stop-color="white"/>
</linearGradient>
<linearGradient id="paint5_linear_116_10" x1="88.3451" y1="81.5634" x2="122.321" y2="22.7159" gradientUnits="userSpaceOnUse">
<stop offset="0.3762" stop-color="#DDDAFB"/>
<stop offset="1" stop-color="#EFEDFE"/>
</linearGradient>
<linearGradient id="paint6_linear_116_10" x1="126.399" y1="52.972" x2="81.6359" y2="52.972" gradientUnits="userSpaceOnUse">
<stop offset="0.1931" stop-color="#ABF2D4"/>
<stop offset="1" stop-color="#56C5EB"/>
</linearGradient>
<linearGradient id="paint7_linear_116_10" x1="104.019" y1="1.37878" x2="104.017" y2="104.538" gradientUnits="userSpaceOnUse">
<stop offset="0.0049505" stop-color="#DDDAFB"/>
<stop offset="0.6089" stop-color="#EFEDFE"/>
</linearGradient>
<linearGradient id="paint8_linear_116_10" x1="127.355" y1="104.085" x2="159.878" y2="47.8663" gradientUnits="userSpaceOnUse">
<stop offset="0.0049505" stop-color="#DDDAFB"/>
<stop offset="0.6089" stop-color="#EFEDFE"/>
</linearGradient>
<linearGradient id="paint9_linear_116_10" x1="66.5861" y1="63.0344" x2="104.15" y2="26.0227" gradientUnits="userSpaceOnUse">
<stop offset="0.0049505" stop-color="#DDDAFB"/>
<stop offset="0.6089" stop-color="#EFEDFE"/>
</linearGradient>
<linearGradient id="paint10_linear_116_10" x1="94.8152" y1="64.3369" x2="118.822" y2="64.3369" gradientUnits="userSpaceOnUse">
<stop stop-color="#5748ED"/>
<stop offset="1" stop-color="#4516B2"/>
</linearGradient>
<linearGradient id="paint11_linear_116_10" x1="118.852" y1="38.9662" x2="109.773" y2="38.9662" gradientUnits="userSpaceOnUse">
<stop stop-color="#FBC700"/>
<stop offset="1" stop-color="#FB9200"/>
</linearGradient>
<linearGradient id="paint12_linear_116_10" x1="111.849" y1="42.6636" x2="96.0598" y2="42.6636" gradientUnits="userSpaceOnUse">
<stop stop-color="#A098ED"/>
<stop offset="1" stop-color="#CFAFDF"/>
</linearGradient>
<linearGradient id="paint13_linear_116_10" x1="71.9713" y1="83.1017" x2="105.947" y2="24.2543" gradientUnits="userSpaceOnUse">
<stop offset="0.3762" stop-color="#DDDAFB"/>
<stop offset="1" stop-color="#EFEDFE"/>
</linearGradient>
<linearGradient id="paint14_linear_116_10" x1="65.262" y1="54.5104" x2="110.025" y2="54.5104" gradientUnits="userSpaceOnUse">
<stop stop-color="#5748ED"/>
<stop offset="0.7228" stop-color="#56C5EB"/>
</linearGradient>
<linearGradient id="paint15_linear_116_10" x1="110.025" y1="76.8918" x2="65.2619" y2="76.8918" gradientUnits="userSpaceOnUse">
<stop stop-color="#5748ED"/>
<stop offset="1" stop-color="#4516B2"/>
</linearGradient>
<linearGradient id="paint16_linear_116_10" x1="110.025" y1="58.4303" x2="65.2623" y2="58.4303" gradientUnits="userSpaceOnUse">
<stop offset="0.0049505" stop-color="#DDDAFB"/>
<stop offset="0.6089" stop-color="#EFEDFE"/>
</linearGradient>
<linearGradient id="paint17_linear_116_10" x1="110.025" y1="53.0511" x2="65.262" y2="53.0511" gradientUnits="userSpaceOnUse">
<stop offset="0.0049505" stop-color="#DDDAFB"/>
<stop offset="0.6089" stop-color="#EFEDFE"/>
</linearGradient>
<linearGradient id="paint18_linear_116_10" x1="87.6447" y1="2.91681" x2="87.6429" y2="106.076" gradientUnits="userSpaceOnUse">
<stop offset="0.0049505" stop-color="#DDDAFB"/>
<stop offset="0.6089" stop-color="#EFEDFE"/>
</linearGradient>
<linearGradient id="paint19_linear_116_10" x1="110.981" y1="105.623" x2="143.505" y2="49.4042" gradientUnits="userSpaceOnUse">
<stop offset="0.0049505" stop-color="#DDDAFB"/>
<stop offset="0.6089" stop-color="#EFEDFE"/>
</linearGradient>
<linearGradient id="paint20_linear_116_10" x1="50.2122" y1="64.572" x2="87.7765" y2="27.5604" gradientUnits="userSpaceOnUse">
<stop offset="0.0049505" stop-color="#DDDAFB"/>
<stop offset="0.6089" stop-color="#EFEDFE"/>
</linearGradient>
<linearGradient id="paint21_linear_116_10" x1="54.8787" y1="84.6406" x2="88.8543" y2="25.7931" gradientUnits="userSpaceOnUse">
<stop offset="0.3762" stop-color="#DDDAFB"/>
<stop offset="1" stop-color="#EFEDFE"/>
</linearGradient>
<linearGradient id="paint22_linear_116_10" x1="48.1694" y1="56.0492" x2="92.9329" y2="56.0492" gradientUnits="userSpaceOnUse">
<stop stop-color="#A098ED"/>
<stop offset="1" stop-color="#CFAFDF"/>
</linearGradient>
<linearGradient id="paint23_linear_116_10" x1="70.5524" y1="4.45646" x2="70.5506" y2="107.616" gradientUnits="userSpaceOnUse">
<stop offset="0.0049505" stop-color="#DDDAFB"/>
<stop offset="0.6089" stop-color="#EFEDFE"/>
</linearGradient>
<linearGradient id="paint24_linear_116_10" x1="93.8886" y1="107.162" x2="126.412" y2="50.9441" gradientUnits="userSpaceOnUse">
<stop offset="0.0049505" stop-color="#DDDAFB"/>
<stop offset="0.6089" stop-color="#EFEDFE"/>
</linearGradient>
<linearGradient id="paint25_linear_116_10" x1="33.1196" y1="66.1117" x2="70.6839" y2="29.1001" gradientUnits="userSpaceOnUse">
<stop offset="0.0049505" stop-color="#DDDAFB"/>
<stop offset="0.6089" stop-color="#EFEDFE"/>
</linearGradient>
<linearGradient id="paint26_linear_116_10" x1="56.1957" y1="74.5924" x2="69.9937" y2="74.5924" gradientUnits="userSpaceOnUse">
<stop offset="0.1931" stop-color="#ABF2D4"/>
<stop offset="1" stop-color="#56C5EB"/>
</linearGradient>
<linearGradient id="paint27_linear_116_10" x1="91.1065" y1="89.2717" x2="45.0432" y2="57.8467" gradientUnits="userSpaceOnUse">
<stop offset="0.1931" stop-color="#ABF2D4"/>
<stop offset="1" stop-color="#56C5EB"/>
</linearGradient>
<linearGradient id="paint28_linear_116_10" x1="93.0743" y1="91.4121" x2="70.6999" y2="76.1479" gradientUnits="userSpaceOnUse">
<stop offset="0.1931" stop-color="#ABF2D4"/>
<stop offset="1" stop-color="#56C5EB"/>
</linearGradient>
<linearGradient id="paint29_linear_116_10" x1="74.0788" y1="51.8722" x2="65.1296" y2="72.7871" gradientUnits="userSpaceOnUse">
<stop stop-color="#FFAA90"/>
<stop offset="0.6634" stop-color="#FFD5C5"/>
</linearGradient>
<linearGradient id="paint30_linear_116_10" x1="75.9377" y1="48.2651" x2="60.9848" y2="47.9331" gradientUnits="userSpaceOnUse">
<stop stop-color="#FFAA90"/>
<stop offset="0.599" stop-color="#FFD5C5"/>
</linearGradient>
<linearGradient id="paint31_linear_116_10" x1="82.8367" y1="41.4977" x2="64.4234" y2="50.3579" gradientUnits="userSpaceOnUse">
<stop stop-color="#5748ED"/>
<stop offset="1" stop-color="#4516B2"/>
</linearGradient>
<linearGradient id="paint32_linear_116_10" x1="72.1763" y1="50.4903" x2="75.6834" y2="50.5682" gradientUnits="userSpaceOnUse">
<stop stop-color="#FFAA90"/>
<stop offset="1" stop-color="#FFD5C5"/>
</linearGradient>
<linearGradient id="paint33_linear_116_10" x1="67.4618" y1="59.6801" x2="66.2304" y2="60.3067" gradientUnits="userSpaceOnUse">
<stop offset="0.0049505" stop-color="#DDDAFB"/>
<stop offset="0.6089" stop-color="#EFEDFE"/>
</linearGradient>
<linearGradient id="paint34_linear_116_10" x1="69.0193" y1="61.5359" x2="66.5628" y2="61.5359" gradientUnits="userSpaceOnUse">
<stop stop-color="#FBC700"/>
<stop offset="1" stop-color="#FB9200"/>
</linearGradient>
<linearGradient id="paint35_linear_116_10" x1="66.718" y1="61.5357" x2="68.5359" y2="61.5357" gradientUnits="userSpaceOnUse">
<stop offset="0.0049505" stop-color="#DDDAFB"/>
<stop offset="0.6089" stop-color="#EFEDFE"/>
</linearGradient>
<linearGradient id="paint36_linear_116_10" x1="70.1553" y1="61.31" x2="68.8796" y2="61.8407" gradientUnits="userSpaceOnUse">
<stop offset="0.0049505" stop-color="#DDDAFB"/>
<stop offset="0.6089" stop-color="#EFEDFE"/>
</linearGradient>
<linearGradient id="paint37_linear_116_10" x1="71.441" y1="61.2261" x2="70.1652" y2="61.7569" gradientUnits="userSpaceOnUse">
<stop offset="0.0049505" stop-color="#DDDAFB"/>
<stop offset="0.6089" stop-color="#EFEDFE"/>
</linearGradient>
<linearGradient id="paint38_linear_116_10" x1="72.6376" y1="60.861" x2="71.3619" y2="61.3916" gradientUnits="userSpaceOnUse">
<stop offset="0.0049505" stop-color="#DDDAFB"/>
<stop offset="0.6089" stop-color="#EFEDFE"/>
</linearGradient>
<linearGradient id="paint39_linear_116_10" x1="73.6957" y1="60.1809" x2="72.42" y2="60.7117" gradientUnits="userSpaceOnUse">
<stop offset="0.0049505" stop-color="#DDDAFB"/>
<stop offset="0.6089" stop-color="#EFEDFE"/>
</linearGradient>
<linearGradient id="paint40_linear_116_10" x1="71.6115" y1="44.7983" x2="73.4034" y2="43.8273" gradientUnits="userSpaceOnUse">
<stop offset="0.0049505" stop-color="#DDDAFB"/>
<stop offset="0.6089" stop-color="#EFEDFE"/>
</linearGradient>
<linearGradient id="paint41_linear_116_10" x1="70.566" y1="45.7899" x2="72.0051" y2="45.0101" gradientUnits="userSpaceOnUse">
<stop offset="0.0049505" stop-color="#DDDAFB"/>
<stop offset="0.6089" stop-color="#EFEDFE"/>
</linearGradient>
<linearGradient id="paint42_linear_116_10" x1="69.4754" y1="46.3354" x2="70.6068" y2="45.7223" gradientUnits="userSpaceOnUse">
<stop offset="0.0049505" stop-color="#DDDAFB"/>
<stop offset="0.6089" stop-color="#EFEDFE"/>
</linearGradient>
</defs>
</svg>
